<svg width="64" height="64" viewBox="0 0 64 64" fill="none" xmlns="http://www.w3.org/2000/svg">
<path d="M53.9936 25.9688C52.8874 25.9688 51.9936 25.075 51.9936 23.9688C51.9936 12.9563 43.0374 4 32.0249 4C21.0124 4 12.0562 12.9563 12.0562 23.9688C12.0562 25.075 11.1624 25.9688 10.0562 25.9688C8.9499 25.9688 8.05615 25.075 8.05615 23.9688C8.05615 20.7313 8.6874 17.5938 9.94365 14.6375C11.1499 11.7813 12.8812 9.21875 15.0812 7.01875C17.2812 4.81875 19.8436 3.0875 22.6999 1.88125C25.6499 0.63125 28.7874 0 32.0249 0C35.2624 0 38.3999 0.63125 41.3561 1.8875C44.2124 3.09375 46.7749 4.825 48.9749 7.025C51.1749 9.225 52.9061 11.7875 54.1124 14.6438C55.3624 17.6 55.9999 20.7375 55.9999 23.975C55.9936 25.075 55.0999 25.9688 53.9936 25.9688V25.9688ZM34.0686 63.7938H29.9436C26.6374 63.7938 23.9499 61.1063 23.9499 57.8C23.9499 54.4938 26.6374 51.8063 29.9436 51.8063H34.0686C37.3749 51.8063 40.0624 54.4938 40.0624 57.8C40.0624 61.1063 37.3749 63.7938 34.0686 63.7938ZM29.9436 55.8063C28.8436 55.8063 27.9499 56.7 27.9499 57.8C27.9499 58.9 28.8436 59.7938 29.9436 59.7938H34.0686C35.1686 59.7938 36.0624 58.9 36.0624 57.8C36.0624 56.7 35.1686 55.8063 34.0686 55.8063H29.9436Z" fill="white"/>
<path d="M10.0625 45.8061H6C2.69375 45.8061 0 43.1123 0 39.8061V27.7998C0 24.4936 2.69375 21.7998 6 21.7998H10.0625C11.1688 21.7998 12.0625 22.6936 12.0625 23.7998V43.8061C12.0625 44.9123 11.1688 45.8061 10.0625 45.8061V45.8061ZM6 25.7998C4.9 25.7998 4 26.6998 4 27.7998V39.8061C4 40.9061 4.9 41.8061 6 41.8061H8.0625V25.7998H6ZM57.95 45.8061H53.95C52.8438 45.8061 51.95 44.9123 51.95 43.8061V23.7998C51.95 22.6936 52.8438 21.7998 53.95 21.7998H57.95C61.2563 21.7998 63.95 24.4936 63.95 27.7998V39.8061C63.95 43.1123 61.2563 45.8061 57.95 45.8061ZM55.95 41.8061H57.95C59.05 41.8061 59.95 40.9061 59.95 39.8061V27.7998C59.95 26.6998 59.05 25.7998 57.95 25.7998H55.95V41.8061V41.8061Z" fill="white"/>
<path d="M23.8749 58.8063C19.8812 58.8063 16.1249 57.25 13.2999 54.4188C10.4687 51.5813 8.91867 47.8125 8.93742 43.8063C8.93742 43.2563 9.38742 42.8125 9.93742 42.8125H9.94367C10.4937 42.8125 10.9437 43.2625 10.9374 43.8187C10.9249 47.2875 12.2624 50.5563 14.7124 53.0125C17.1562 55.4625 20.4062 56.8125 23.8687 56.8125H23.8937L25.9374 56.8063C26.4874 56.8063 26.9374 57.25 26.9374 57.8063C26.9374 58.3563 26.4937 58.8063 25.9374 58.8063L23.8937 58.8125C23.8937 58.8062 23.8874 58.8063 23.8749 58.8063V58.8063Z" fill="white"/>
</svg>
