<svg width="215" height="473" viewBox="0 0 215 473" fill="none" xmlns="http://www.w3.org/2000/svg">
<g opacity="0.6">
<circle cx="210.24" cy="468.636" r="3.52358" transform="rotate(-180 210.24 468.636)" fill="white"/>
<circle cx="158.561" cy="468.636" r="3.52358" transform="rotate(-180 158.561 468.636)" fill="white"/>
<circle cx="106.882" cy="468.636" r="3.52358" transform="rotate(-180 106.882 468.636)" fill="white"/>
<circle cx="55.2025" cy="468.636" r="3.52358" transform="rotate(-180 55.2025 468.636)" fill="white"/>
<circle cx="3.52329" cy="468.636" r="3.52358" transform="rotate(-180 3.52329 468.636)" fill="white"/>
<circle cx="210.24" cy="416.956" r="3.52358" transform="rotate(-180 210.24 416.956)" fill="white"/>
<circle cx="158.561" cy="416.956" r="3.52358" transform="rotate(-180 158.561 416.956)" fill="white"/>
<circle cx="106.882" cy="416.956" r="3.52358" transform="rotate(-180 106.882 416.956)" fill="white"/>
<circle cx="55.2025" cy="416.956" r="3.52358" transform="rotate(-180 55.2025 416.956)" fill="white"/>
<circle cx="3.52329" cy="416.956" r="3.52358" transform="rotate(-180 3.52329 416.956)" fill="white"/>
<circle cx="210.24" cy="365.277" r="3.52358" transform="rotate(-180 210.24 365.277)" fill="white"/>
<circle cx="158.561" cy="365.277" r="3.52358" transform="rotate(-180 158.561 365.277)" fill="white"/>
<circle cx="106.882" cy="365.277" r="3.52358" transform="rotate(-180 106.882 365.277)" fill="white"/>
<circle cx="55.2025" cy="365.277" r="3.52358" transform="rotate(-180 55.2025 365.277)" fill="white"/>
<circle cx="3.52329" cy="365.277" r="3.52358" transform="rotate(-180 3.52329 365.277)" fill="white"/>
<circle cx="210.24" cy="313.598" r="3.52358" transform="rotate(-180 210.24 313.598)" fill="white"/>
<circle cx="158.561" cy="313.598" r="3.52358" transform="rotate(-180 158.561 313.598)" fill="white"/>
<circle cx="106.882" cy="313.598" r="3.52358" transform="rotate(-180 106.882 313.598)" fill="white"/>
<circle cx="55.2025" cy="313.598" r="3.52358" transform="rotate(-180 55.2025 313.598)" fill="white"/>
<circle cx="3.52329" cy="313.598" r="3.52358" transform="rotate(-180 3.52329 313.598)" fill="white"/>
<circle cx="210.24" cy="261.919" r="3.52358" transform="rotate(-180 210.24 261.919)" fill="white"/>
<circle cx="158.561" cy="261.919" r="3.52358" transform="rotate(-180 158.561 261.919)" fill="white"/>
<circle cx="106.882" cy="261.919" r="3.52358" transform="rotate(-180 106.882 261.919)" fill="white"/>
<circle cx="55.2025" cy="261.919" r="3.52358" transform="rotate(-180 55.2025 261.919)" fill="white"/>
<circle cx="3.52329" cy="261.919" r="3.52358" transform="rotate(-180 3.52329 261.919)" fill="white"/>
<circle cx="210.24" cy="210.24" r="3.52358" transform="rotate(-180 210.24 210.24)" fill="white"/>
<circle cx="158.561" cy="210.24" r="3.52358" transform="rotate(-180 158.561 210.24)" fill="white"/>
<circle cx="106.882" cy="210.24" r="3.52358" transform="rotate(-180 106.882 210.24)" fill="white"/>
<circle cx="55.2025" cy="210.24" r="3.52358" transform="rotate(-180 55.2025 210.24)" fill="white"/>
<circle cx="3.52329" cy="210.24" r="3.52358" transform="rotate(-180 3.52329 210.24)" fill="white"/>
<circle cx="210.24" cy="158.56" r="3.52358" transform="rotate(-180 210.24 158.56)" fill="white"/>
<circle cx="158.561" cy="158.56" r="3.52358" transform="rotate(-180 158.561 158.56)" fill="white"/>
<circle cx="106.882" cy="158.56" r="3.52358" transform="rotate(-180 106.882 158.56)" fill="white"/>
<circle cx="55.2025" cy="158.56" r="3.52358" transform="rotate(-180 55.2025 158.56)" fill="white"/>
<circle cx="3.52329" cy="158.56" r="3.52358" transform="rotate(-180 3.52329 158.56)" fill="white"/>
<circle cx="210.24" cy="106.881" r="3.52358" transform="rotate(-180 210.24 106.881)" fill="white"/>
<circle cx="158.561" cy="106.881" r="3.52358" transform="rotate(-180 158.561 106.881)" fill="white"/>
<circle cx="106.882" cy="106.881" r="3.52358" transform="rotate(-180 106.882 106.881)" fill="white"/>
<circle cx="55.2025" cy="106.881" r="3.52358" transform="rotate(-180 55.2025 106.881)" fill="white"/>
<circle cx="3.52329" cy="106.881" r="3.52358" transform="rotate(-180 3.52329 106.881)" fill="white"/>
<circle cx="210.524" cy="55.5236" r="3.52358" transform="rotate(-180 210.524 55.5236)" fill="white"/>
<circle cx="158.561" cy="55.2021" r="3.52358" transform="rotate(-180 158.561 55.2021)" fill="white"/>
<circle cx="106.882" cy="55.2021" r="3.52358" transform="rotate(-180 106.882 55.2021)" fill="white"/>
<circle cx="55.2025" cy="55.2021" r="3.52358" transform="rotate(-180 55.2025 55.2021)" fill="white"/>
<circle cx="3.52329" cy="55.2021" r="3.52358" transform="rotate(-180 3.52329 55.2021)" fill="white"/>
<circle cx="210.24" cy="3.5229" r="3.52358" transform="rotate(-180 210.24 3.5229)" fill="white"/>
<circle cx="158.561" cy="3.5229" r="3.52358" transform="rotate(-180 158.561 3.5229)" fill="white"/>
<circle cx="106.882" cy="3.52288" r="3.52358" transform="rotate(-180 106.882 3.52288)" fill="white"/>
<circle cx="55.2025" cy="3.52288" r="3.52358" transform="rotate(-180 55.2025 3.52288)" fill="white"/>
<circle cx="3.52329" cy="3.52288" r="3.52358" transform="rotate(-180 3.52329 3.52288)" fill="white"/>
</g>
</svg>
