<svg xmlns="http://www.w3.org/2000/svg" width="16" height="17" fill="none" xmlns:v="https://vecta.io/nano"><path fill-rule="evenodd" d="M5.943 5.583h2.971v1.48c.428-.851 1.526-1.616 3.174-1.616C15.25 5.447 16 7.141 16 10.25v5.758h-3.2v-5.05c0-1.77-.428-2.769-1.518-2.769-1.511 0-2.139 1.076-2.139 2.768v5.05h-3.2V5.583zM.456 15.872h3.2V5.447h-3.2v10.425zM4.114 2.048c0 .268-.053.534-.156.781s-.255.472-.446.66a2.06 2.06 0 0 1-1.456.598A2.07 2.07 0 0 1 .602 3.49 2.04 2.04 0 0 1 0 2.048C0 1.506.216.988.602.605s.91-.598 1.454-.598a2.07 2.07 0 0 1 1.455.598 2.03 2.03 0 0 1 .602 1.442z" fill="#fff"/></svg>