<svg xmlns="http://www.w3.org/2000/svg" width="16" height="16" fill="none" xmlns:v="https://vecta.io/nano"><path fill-rule="evenodd" d="M5.943 5.575h2.971v1.48c.428-.851 1.526-1.616 3.174-1.616C15.25 5.439 16 7.134 16 10.242V16h-3.2v-5.05c0-1.77-.428-2.769-1.518-2.769-1.511 0-2.139 1.076-2.139 2.768V16h-3.2V5.575zM.456 15.864h3.2V5.439h-3.2v10.425zM4.114 2.04c0 .268-.053.534-.156.781s-.255.472-.446.66a2.06 2.06 0 0 1-1.456.598 2.07 2.07 0 0 1-1.454-.598A2.04 2.04 0 0 1 0 2.04C0 1.498.216.98.602.598S1.512 0 2.057 0a2.07 2.07 0 0 1 1.455.598 2.03 2.03 0 0 1 .602 1.442z" fill="#00486f"/></svg>