<svg width="313" height="208" viewBox="0 0 313 208" fill="none" xmlns="http://www.w3.org/2000/svg">
<path d="M56.7153 192.793C56.7153 192.818 56.7129 192.857 56.708 192.91C56.708 192.959 56.7007 193.013 56.686 193.071C56.6763 193.13 56.6616 193.191 56.6421 193.255C56.6274 193.318 56.6055 193.377 56.5762 193.43C56.5469 193.479 56.5103 193.521 56.4663 193.555C56.4272 193.584 56.3833 193.599 56.3345 193.599H52.6357L52.0352 196.572H55.2212C55.2798 196.572 55.3237 196.592 55.353 196.631C55.3823 196.67 55.397 196.729 55.397 196.807C55.397 196.831 55.3921 196.87 55.3823 196.924C55.3774 196.973 55.3701 197.029 55.3604 197.092C55.3506 197.151 55.3359 197.21 55.3164 197.268C55.2969 197.327 55.2725 197.38 55.2432 197.429C55.2188 197.473 55.187 197.512 55.1479 197.547C55.1089 197.576 55.0649 197.59 55.0161 197.59H51.8374L51.1489 200.982H54.9209C54.9697 200.982 55.0088 201.001 55.0381 201.04C55.0723 201.079 55.0894 201.14 55.0894 201.223C55.0894 201.253 55.0869 201.294 55.082 201.348C55.0771 201.401 55.0674 201.458 55.0527 201.516C55.043 201.575 55.0283 201.636 55.0088 201.699C54.9941 201.758 54.9722 201.814 54.9429 201.868C54.9136 201.917 54.877 201.956 54.833 201.985C54.7939 202.014 54.75 202.029 54.7012 202.029H50.1455C50.0918 202.029 50.0381 202.022 49.9844 202.007C49.9355 201.987 49.8916 201.958 49.8525 201.919C49.8184 201.875 49.7939 201.821 49.7793 201.758C49.7646 201.69 49.7695 201.609 49.7939 201.516L51.4858 193.064C51.52 192.874 51.5957 192.742 51.7129 192.669C51.8301 192.59 51.9448 192.551 52.0571 192.551H56.5469C56.6592 192.551 56.7153 192.632 56.7153 192.793ZM59.1396 196.067L57.8872 202.307C57.8042 202.717 57.6919 203.071 57.5503 203.369C57.4087 203.672 57.2354 203.921 57.0303 204.116C56.8252 204.317 56.5884 204.463 56.3198 204.556C56.0513 204.653 55.7485 204.702 55.4116 204.702C55.1919 204.702 55.0137 204.685 54.877 204.651C54.7354 204.617 54.6475 204.585 54.6133 204.556C54.5938 204.531 54.5791 204.505 54.5693 204.475C54.5596 204.446 54.5547 204.407 54.5547 204.358C54.5547 204.339 54.5596 204.304 54.5693 204.255C54.5742 204.212 54.5815 204.163 54.5913 204.109C54.6011 204.06 54.6133 204.006 54.6279 203.948C54.6426 203.894 54.6597 203.843 54.6792 203.794C54.6987 203.745 54.7207 203.706 54.7451 203.677C54.7695 203.648 54.7988 203.633 54.833 203.633C54.8672 203.633 54.9014 203.635 54.9355 203.64C54.9648 203.65 54.999 203.657 55.0381 203.662C55.0723 203.672 55.1162 203.679 55.1699 203.684C55.2188 203.694 55.2822 203.699 55.3604 203.699C55.5654 203.699 55.7437 203.667 55.895 203.604C56.0415 203.54 56.166 203.44 56.2686 203.303C56.376 203.172 56.4639 203.003 56.5322 202.798C56.6055 202.593 56.6714 202.346 56.73 202.058L57.9312 196.067H56.9937C56.9448 196.067 56.9058 196.052 56.8765 196.023C56.8521 195.989 56.8398 195.928 56.8398 195.84C56.8398 195.801 56.8423 195.755 56.8472 195.701C56.8521 195.642 56.8594 195.584 56.8691 195.525C56.8838 195.466 56.9009 195.41 56.9204 195.357C56.9399 195.303 56.9644 195.254 56.9937 195.21C57.0229 195.166 57.0522 195.132 57.0815 195.108C57.1157 195.078 57.1572 195.064 57.2061 195.064H58.1289L58.2974 194.243C58.3804 193.838 58.4927 193.486 58.6343 193.189C58.7808 192.891 58.9565 192.644 59.1616 192.449C59.3716 192.249 59.6108 192.1 59.8794 192.002C60.1528 191.904 60.4556 191.856 60.7876 191.856C60.895 191.856 61.0049 191.863 61.1172 191.878C61.2344 191.887 61.3418 191.904 61.4395 191.929C61.542 191.948 61.6323 191.973 61.7104 192.002C61.7886 192.031 61.8423 192.061 61.8716 192.09C61.896 192.114 61.9155 192.149 61.9302 192.193C61.9448 192.236 61.9521 192.283 61.9521 192.332C61.9521 192.351 61.9497 192.383 61.9448 192.427C61.9399 192.466 61.9326 192.512 61.9229 192.566C61.918 192.615 61.9082 192.669 61.8936 192.727C61.8789 192.786 61.8618 192.839 61.8423 192.888C61.8228 192.932 61.8008 192.969 61.7764 192.998C61.752 193.027 61.7251 193.042 61.6958 193.042C61.6616 193.042 61.6177 193.032 61.564 193.013C61.5151 192.993 61.4565 192.974 61.3882 192.954C61.3198 192.93 61.2393 192.908 61.1465 192.888C61.0537 192.869 60.9536 192.859 60.8462 192.859C60.6313 192.859 60.4482 192.891 60.2969 192.954C60.1504 193.018 60.0234 193.118 59.916 193.255C59.8135 193.386 59.7231 193.555 59.645 193.76C59.5718 193.965 59.5083 194.207 59.4546 194.485L59.3447 195.064H62.311L62.4868 194.163C62.5698 193.757 62.6821 193.406 62.8237 193.108C62.9702 192.805 63.146 192.556 63.3511 192.361C63.5562 192.161 63.793 192.012 64.0615 191.914C64.3301 191.817 64.6328 191.768 64.9697 191.768C65.082 191.768 65.1919 191.775 65.2993 191.79C65.4067 191.799 65.5044 191.817 65.5923 191.841C65.6802 191.86 65.7559 191.882 65.8193 191.907C65.8828 191.931 65.9292 191.958 65.9585 191.987C65.9829 192.012 65.9976 192.044 66.0024 192.083C66.0073 192.122 66.0098 192.166 66.0098 192.214C66.0098 192.229 66.0073 192.258 66.0024 192.302C66.0024 192.341 65.9976 192.388 65.9878 192.442C65.978 192.49 65.9658 192.544 65.9512 192.603C65.9414 192.656 65.9268 192.708 65.9072 192.756C65.8877 192.8 65.8657 192.839 65.8413 192.874C65.8169 192.903 65.79 192.918 65.7607 192.918C65.7217 192.918 65.6777 192.91 65.6289 192.896C65.585 192.881 65.5312 192.866 65.4678 192.852C65.4092 192.832 65.3408 192.815 65.2627 192.8C65.1846 192.781 65.0918 192.771 64.9844 192.771C64.7793 192.771 64.606 192.803 64.4644 192.866C64.3228 192.93 64.2007 193.03 64.0981 193.167C63.9956 193.298 63.9077 193.467 63.8345 193.672C63.7661 193.877 63.7026 194.119 63.644 194.397L63.5195 195.064H67.3208C67.4526 195.064 67.5381 195.098 67.5771 195.166C67.6211 195.23 67.6357 195.32 67.6211 195.437L66.3467 201.846C66.332 201.885 66.3125 201.919 66.2881 201.948C66.2686 201.973 66.2319 201.995 66.1782 202.014C66.1294 202.034 66.0635 202.048 65.9805 202.058C65.9023 202.068 65.8047 202.073 65.6875 202.073C65.5654 202.073 65.4653 202.068 65.3872 202.058C65.314 202.048 65.2554 202.034 65.2114 202.014C65.1724 201.995 65.1455 201.973 65.1309 201.948C65.1211 201.919 65.1211 201.885 65.1309 201.846L66.2808 196.067H63.3145L62.1133 202.051C62.0254 202.495 61.9082 202.879 61.7617 203.201C61.6201 203.528 61.4443 203.797 61.2344 204.006C61.0293 204.216 60.7876 204.37 60.5093 204.468C60.2358 204.566 59.9258 204.614 59.5791 204.614C59.3301 204.614 59.1152 204.595 58.9346 204.556C58.7588 204.522 58.6416 204.473 58.583 204.409C58.5391 204.37 58.5171 204.304 58.5171 204.212C58.5171 204.187 58.5195 204.151 58.5244 204.102C58.5293 204.058 58.5366 204.009 58.5464 203.955C58.5562 203.901 58.5684 203.845 58.583 203.787C58.5977 203.733 58.6147 203.682 58.6343 203.633C58.6587 203.589 58.6831 203.552 58.7075 203.523C58.7368 203.494 58.7686 203.479 58.8027 203.479C58.8369 203.479 58.876 203.484 58.9199 203.494C58.9688 203.508 59.0225 203.523 59.0811 203.538C59.1445 203.557 59.2153 203.574 59.2935 203.589C59.3716 203.604 59.4595 203.611 59.5571 203.611C59.7573 203.611 59.9307 203.579 60.0771 203.516C60.2236 203.452 60.3481 203.357 60.4507 203.23C60.5581 203.103 60.6484 202.94 60.7217 202.739C60.7949 202.539 60.8584 202.302 60.9121 202.029L62.106 196.067H59.1396ZM68.2363 193.035C68.2119 193.172 68.1777 193.286 68.1338 193.379C68.0947 193.472 68.041 193.547 67.9727 193.606C67.9043 193.66 67.8188 193.699 67.7163 193.723C67.6187 193.748 67.4966 193.76 67.3501 193.76C67.2036 193.76 67.084 193.748 66.9912 193.723C66.9033 193.699 66.8374 193.66 66.7935 193.606C66.7495 193.547 66.7251 193.472 66.7202 193.379C66.7202 193.286 66.7324 193.172 66.7568 193.035C66.7861 192.898 66.8203 192.786 66.8594 192.698C66.9033 192.605 66.957 192.529 67.0205 192.471C67.0889 192.407 67.1743 192.366 67.2769 192.346C67.3794 192.322 67.5039 192.31 67.6504 192.31C67.792 192.31 67.9067 192.322 67.9946 192.346C68.0874 192.366 68.1558 192.407 68.1997 192.471C68.2437 192.529 68.2681 192.605 68.2729 192.698C68.2778 192.786 68.2656 192.898 68.2363 193.035ZM74.3521 195.833C74.3521 195.921 74.3423 196.011 74.3228 196.104C74.3081 196.196 74.2837 196.284 74.2495 196.367C74.2153 196.445 74.1738 196.511 74.125 196.565C74.0811 196.619 74.0298 196.646 73.9712 196.646C73.9028 196.646 73.832 196.611 73.7588 196.543C73.6855 196.47 73.5879 196.389 73.4658 196.301C73.3486 196.214 73.1973 196.133 73.0117 196.06C72.8311 195.986 72.5991 195.95 72.3159 195.95C72.0034 195.95 71.7251 196.016 71.481 196.148C71.2417 196.275 71.0317 196.443 70.8511 196.653C70.6753 196.858 70.5288 197.092 70.4116 197.356C70.2944 197.62 70.1992 197.886 70.126 198.154C70.0527 198.423 69.999 198.684 69.9648 198.938C69.9355 199.187 69.9209 199.404 69.9209 199.59C69.9209 200.093 70.0308 200.474 70.2505 200.733C70.4702 200.991 70.7974 201.121 71.2319 201.121C71.5493 201.121 71.8203 201.082 72.0449 201.004C72.2744 200.925 72.4673 200.838 72.6235 200.74C72.7847 200.637 72.9165 200.547 73.019 200.469C73.1216 200.391 73.2119 200.352 73.29 200.352C73.3291 200.352 73.3584 200.371 73.3779 200.41C73.4023 200.444 73.4146 200.496 73.4146 200.564C73.4146 200.623 73.4097 200.693 73.3999 200.776C73.3901 200.855 73.373 200.938 73.3486 201.026C73.3291 201.109 73.3022 201.187 73.2681 201.26C73.2388 201.333 73.1948 201.401 73.1362 201.465C73.0776 201.524 72.9751 201.597 72.8286 201.685C72.6821 201.773 72.5112 201.853 72.3159 201.926C72.1255 201.995 71.918 202.051 71.6934 202.095C71.4688 202.144 71.2368 202.168 70.9976 202.168C70.2114 202.168 69.623 201.968 69.2324 201.568C68.8467 201.167 68.6538 200.571 68.6538 199.78C68.6538 199.483 68.6782 199.158 68.7271 198.806C68.7808 198.45 68.8687 198.093 68.9907 197.737C69.1128 197.376 69.269 197.026 69.4595 196.69C69.6499 196.353 69.8843 196.055 70.1626 195.796C70.4409 195.532 70.7632 195.322 71.1294 195.166C71.4956 195.01 71.9155 194.932 72.3892 194.932C72.5845 194.932 72.7725 194.949 72.9531 194.983C73.1338 195.012 73.3022 195.054 73.4585 195.108C73.6196 195.161 73.7637 195.23 73.8906 195.313C74.0225 195.391 74.1226 195.462 74.1909 195.525C74.2642 195.589 74.3081 195.642 74.3228 195.686C74.3423 195.73 74.3521 195.779 74.3521 195.833ZM77.9189 193.035C77.8945 193.172 77.8604 193.286 77.8164 193.379C77.7773 193.472 77.7236 193.547 77.6553 193.606C77.5869 193.66 77.5015 193.699 77.3989 193.723C77.2964 193.748 77.1719 193.76 77.0254 193.76C76.8838 193.76 76.7666 193.748 76.6738 193.723C76.5811 193.699 76.5127 193.66 76.4688 193.606C76.4248 193.547 76.4004 193.472 76.3955 193.379C76.3906 193.286 76.4004 193.172 76.4248 193.035C76.4541 192.898 76.4907 192.786 76.5347 192.698C76.5786 192.605 76.6323 192.529 76.6958 192.471C76.7642 192.407 76.8496 192.366 76.9521 192.346C77.0547 192.322 77.1792 192.31 77.3257 192.31C77.4673 192.31 77.582 192.322 77.6699 192.346C77.7627 192.366 77.8311 192.407 77.875 192.471C77.9238 192.529 77.9507 192.605 77.9556 192.698C77.9604 192.786 77.9482 192.898 77.9189 193.035ZM76.022 201.846C76.0122 201.885 75.9951 201.919 75.9707 201.948C75.9463 201.973 75.9097 201.995 75.8608 202.014C75.812 202.034 75.7461 202.048 75.6631 202.058C75.585 202.068 75.4873 202.073 75.3701 202.073C75.248 202.073 75.1479 202.068 75.0698 202.058C74.9966 202.048 74.938 202.034 74.894 202.014C74.855 201.995 74.8281 201.973 74.8135 201.948C74.8037 201.919 74.8037 201.885 74.8135 201.846L76.1245 195.254C76.1294 195.22 76.144 195.188 76.1685 195.159C76.1929 195.13 76.2295 195.105 76.2783 195.086C76.3271 195.066 76.3906 195.051 76.4688 195.042C76.5518 195.032 76.6543 195.027 76.7764 195.027C76.8936 195.027 76.9888 195.032 77.062 195.042C77.1401 195.051 77.1987 195.066 77.2378 195.086C77.2817 195.105 77.3086 195.13 77.3184 195.159C77.333 195.188 77.3379 195.22 77.333 195.254L76.022 201.846ZM84.5547 196.602C84.5547 196.939 84.4766 197.241 84.3203 197.51C84.1641 197.778 83.9199 198.008 83.5879 198.198C83.2559 198.389 82.8311 198.535 82.3135 198.638C81.7959 198.74 81.1758 198.792 80.4531 198.792H79.6768C79.6426 198.953 79.6182 199.109 79.6035 199.26C79.5938 199.412 79.5889 199.553 79.5889 199.685C79.5889 200.173 79.7085 200.547 79.9478 200.806C80.1919 201.065 80.585 201.194 81.127 201.194C81.4395 201.194 81.7202 201.172 81.9692 201.128C82.2183 201.079 82.4331 201.028 82.6138 200.974C82.7993 200.921 82.9507 200.872 83.0679 200.828C83.1851 200.779 83.2656 200.755 83.3096 200.755C83.3535 200.755 83.3853 200.772 83.4048 200.806C83.4292 200.835 83.4414 200.879 83.4414 200.938C83.4414 200.986 83.4365 201.045 83.4268 201.113C83.417 201.182 83.4023 201.253 83.3828 201.326C83.3633 201.394 83.3364 201.46 83.3022 201.524C83.2729 201.587 83.2388 201.641 83.1997 201.685C83.1411 201.743 83.0361 201.802 82.8848 201.86C82.7383 201.914 82.5625 201.965 82.3574 202.014C82.1523 202.058 81.9277 202.095 81.6836 202.124C81.4395 202.153 81.1953 202.168 80.9512 202.168C80.5166 202.168 80.1357 202.119 79.8086 202.022C79.4814 201.924 79.208 201.775 78.9883 201.575C78.7734 201.37 78.6123 201.116 78.5049 200.813C78.3975 200.51 78.3438 200.154 78.3438 199.744C78.3438 199.426 78.373 199.087 78.4316 198.726C78.4951 198.359 78.5928 197.998 78.7246 197.642C78.8564 197.285 79.0273 196.943 79.2373 196.616C79.4473 196.289 79.6963 196.001 79.9844 195.752C80.2773 195.503 80.6143 195.303 80.9951 195.151C81.376 195 81.8057 194.924 82.2842 194.924C82.6943 194.924 83.041 194.976 83.3242 195.078C83.6123 195.181 83.8467 195.313 84.0273 195.474C84.2129 195.635 84.3472 195.816 84.4302 196.016C84.5132 196.211 84.5547 196.406 84.5547 196.602ZM83.3169 196.712C83.3169 196.463 83.2192 196.262 83.0239 196.111C82.8286 195.955 82.5503 195.877 82.189 195.877C81.8716 195.877 81.5908 195.933 81.3467 196.045C81.1025 196.152 80.8853 196.299 80.6948 196.484C80.5093 196.67 80.3481 196.887 80.2114 197.136C80.0796 197.38 79.9722 197.639 79.8892 197.913H80.6362C81.1489 197.913 81.5762 197.881 81.918 197.818C82.2646 197.754 82.5405 197.669 82.7456 197.561C82.9556 197.449 83.1021 197.319 83.1851 197.173C83.2729 197.026 83.3169 196.873 83.3169 196.712ZM91.8569 196.712C91.8569 196.882 91.8472 197.051 91.8276 197.217C91.8081 197.383 91.7812 197.554 91.7471 197.73L90.9194 201.846C90.9097 201.885 90.8926 201.919 90.8682 201.948C90.8486 201.973 90.812 201.995 90.7583 202.014C90.7095 202.034 90.646 202.048 90.5679 202.058C90.4897 202.068 90.3896 202.073 90.2676 202.073C90.1504 202.073 90.0527 202.068 89.9746 202.058C89.9014 202.048 89.8428 202.034 89.7988 202.014C89.7598 201.995 89.7329 201.973 89.7183 201.948C89.7085 201.919 89.7061 201.885 89.7109 201.846L90.5239 197.774C90.5581 197.622 90.5801 197.476 90.5898 197.334C90.6045 197.193 90.6118 197.068 90.6118 196.961C90.6118 196.663 90.5483 196.423 90.4214 196.243C90.2944 196.057 90.082 195.964 89.7842 195.964C89.5254 195.964 89.2593 196.04 88.9858 196.192C88.7173 196.338 88.4658 196.543 88.2314 196.807C88.002 197.066 87.7944 197.376 87.6089 197.737C87.4282 198.093 87.2964 198.482 87.2134 198.901L86.6274 201.846C86.6177 201.885 86.6006 201.919 86.5762 201.948C86.5518 201.973 86.5151 201.995 86.4663 202.014C86.4175 202.034 86.3516 202.048 86.2686 202.058C86.1904 202.068 86.0928 202.073 85.9756 202.073C85.8535 202.073 85.7534 202.068 85.6753 202.058C85.6021 202.048 85.5435 202.034 85.4995 202.014C85.4604 201.995 85.4336 201.973 85.4189 201.948C85.4092 201.919 85.4092 201.885 85.4189 201.846L86.7446 195.247C86.7495 195.213 86.7617 195.181 86.7812 195.151C86.8057 195.122 86.8398 195.098 86.8838 195.078C86.9326 195.059 86.9912 195.047 87.0596 195.042C87.1328 195.032 87.2183 195.027 87.3159 195.027C87.4185 195.027 87.5015 195.032 87.5649 195.042C87.6333 195.047 87.6846 195.059 87.7188 195.078C87.7578 195.098 87.7822 195.122 87.792 195.151C87.8018 195.181 87.8042 195.213 87.7993 195.247L87.5503 196.506C87.6235 196.34 87.7432 196.165 87.9092 195.979C88.0752 195.794 88.2729 195.623 88.5024 195.466C88.7319 195.31 88.9834 195.181 89.2568 195.078C89.5352 194.976 89.8232 194.924 90.1211 194.924C90.4482 194.924 90.7217 194.976 90.9414 195.078C91.1611 195.176 91.3394 195.308 91.4761 195.474C91.6128 195.635 91.7104 195.823 91.769 196.038C91.8276 196.253 91.8569 196.477 91.8569 196.712ZM98.9175 195.833C98.9175 195.921 98.9077 196.011 98.8882 196.104C98.8735 196.196 98.8491 196.284 98.8149 196.367C98.7808 196.445 98.7393 196.511 98.6904 196.565C98.6465 196.619 98.5952 196.646 98.5366 196.646C98.4683 196.646 98.3975 196.611 98.3242 196.543C98.251 196.47 98.1533 196.389 98.0312 196.301C97.9141 196.214 97.7627 196.133 97.5771 196.06C97.3965 195.986 97.1646 195.95 96.8813 195.95C96.5688 195.95 96.2905 196.016 96.0464 196.148C95.8071 196.275 95.5972 196.443 95.4165 196.653C95.2407 196.858 95.0942 197.092 94.9771 197.356C94.8599 197.62 94.7646 197.886 94.6914 198.154C94.6182 198.423 94.5645 198.684 94.5303 198.938C94.501 199.187 94.4863 199.404 94.4863 199.59C94.4863 200.093 94.5962 200.474 94.8159 200.733C95.0356 200.991 95.3628 201.121 95.7974 201.121C96.1147 201.121 96.3857 201.082 96.6104 201.004C96.8398 200.925 97.0327 200.838 97.189 200.74C97.3501 200.637 97.4819 200.547 97.5845 200.469C97.687 200.391 97.7773 200.352 97.8555 200.352C97.8945 200.352 97.9238 200.371 97.9434 200.41C97.9678 200.444 97.98 200.496 97.98 200.564C97.98 200.623 97.9751 200.693 97.9653 200.776C97.9556 200.855 97.9385 200.938 97.9141 201.026C97.8945 201.109 97.8677 201.187 97.8335 201.26C97.8042 201.333 97.7603 201.401 97.7017 201.465C97.6431 201.524 97.5405 201.597 97.394 201.685C97.2476 201.773 97.0767 201.853 96.8813 201.926C96.6909 201.995 96.4834 202.051 96.2588 202.095C96.0342 202.144 95.8022 202.168 95.563 202.168C94.7769 202.168 94.1885 201.968 93.7979 201.568C93.4121 201.167 93.2192 200.571 93.2192 199.78C93.2192 199.483 93.2437 199.158 93.2925 198.806C93.3462 198.45 93.4341 198.093 93.5562 197.737C93.6782 197.376 93.8345 197.026 94.0249 196.69C94.2153 196.353 94.4497 196.055 94.728 195.796C95.0063 195.532 95.3286 195.322 95.6948 195.166C96.061 195.01 96.481 194.932 96.9546 194.932C97.1499 194.932 97.3379 194.949 97.5186 194.983C97.6992 195.012 97.8677 195.054 98.0239 195.108C98.1851 195.161 98.3291 195.23 98.4561 195.313C98.5879 195.391 98.688 195.462 98.7563 195.525C98.8296 195.589 98.8735 195.642 98.8882 195.686C98.9077 195.73 98.9175 195.779 98.9175 195.833ZM105.722 195.203C105.722 195.256 105.717 195.313 105.707 195.371C105.697 195.425 105.68 195.476 105.656 195.525C105.495 195.969 105.319 196.433 105.128 196.917C104.938 197.395 104.716 197.898 104.462 198.425C104.208 198.948 103.91 199.495 103.568 200.066C103.231 200.637 102.829 201.238 102.36 201.868L100.463 204.453C100.434 204.492 100.397 204.526 100.353 204.556C100.309 204.585 100.255 204.609 100.192 204.629C100.128 204.653 100.05 204.671 99.9575 204.68C99.8696 204.69 99.7646 204.695 99.6426 204.695C99.5107 204.695 99.4009 204.688 99.313 204.673C99.23 204.663 99.1665 204.644 99.1226 204.614C99.0786 204.585 99.0591 204.546 99.064 204.497C99.0688 204.448 99.0981 204.39 99.1519 204.321L100.939 202.029L99.8477 195.591C99.8379 195.532 99.8306 195.479 99.8257 195.43C99.8208 195.381 99.8184 195.339 99.8184 195.305C99.8184 195.252 99.8257 195.208 99.8403 195.173C99.8599 195.134 99.894 195.105 99.9429 195.086C99.9917 195.061 100.055 195.047 100.133 195.042C100.216 195.032 100.316 195.027 100.434 195.027C100.565 195.027 100.668 195.032 100.741 195.042C100.819 195.047 100.878 195.059 100.917 195.078C100.961 195.093 100.99 195.117 101.005 195.151C101.024 195.186 101.037 195.227 101.042 195.276L101.898 200.652H101.913C102.216 200.227 102.489 199.795 102.733 199.356C102.978 198.916 103.202 198.472 103.407 198.023C103.612 197.568 103.8 197.112 103.971 196.653C104.147 196.189 104.311 195.72 104.462 195.247C104.472 195.208 104.489 195.176 104.513 195.151C104.542 195.122 104.582 195.098 104.63 195.078C104.684 195.059 104.755 195.047 104.843 195.042C104.931 195.032 105.041 195.027 105.172 195.027C105.392 195.027 105.539 195.042 105.612 195.071C105.685 195.1 105.722 195.144 105.722 195.203ZM111.193 200.908C111.193 200.977 111.186 201.057 111.171 201.15C111.161 201.243 111.144 201.338 111.12 201.436C111.095 201.533 111.063 201.624 111.024 201.707C110.99 201.79 110.944 201.86 110.885 201.919C110.827 201.978 110.744 202.022 110.636 202.051C110.529 202.08 110.392 202.095 110.226 202.095C110.089 202.095 109.977 202.085 109.889 202.066C109.801 202.046 109.733 202.014 109.684 201.97C109.635 201.922 109.601 201.865 109.582 201.802C109.562 201.734 109.552 201.658 109.552 201.575C109.552 201.497 109.557 201.411 109.567 201.318C109.582 201.221 109.601 201.126 109.625 201.033C109.655 200.94 109.687 200.855 109.721 200.776C109.76 200.693 109.806 200.625 109.86 200.571C109.918 200.513 109.997 200.469 110.094 200.44C110.197 200.405 110.341 200.388 110.526 200.388C110.668 200.388 110.78 200.401 110.863 200.425C110.951 200.449 111.02 200.486 111.068 200.535C111.117 200.579 111.149 200.632 111.164 200.696C111.183 200.759 111.193 200.83 111.193 200.908ZM123.805 192.793C123.805 192.818 123.803 192.857 123.798 192.91C123.798 192.959 123.791 193.013 123.776 193.071C123.766 193.13 123.751 193.191 123.732 193.255C123.717 193.318 123.695 193.377 123.666 193.43C123.637 193.479 123.6 193.521 123.556 193.555C123.517 193.584 123.473 193.599 123.424 193.599H119.726L119.125 196.572H122.311C122.37 196.572 122.414 196.592 122.443 196.631C122.472 196.67 122.487 196.729 122.487 196.807C122.487 196.831 122.482 196.87 122.472 196.924C122.467 196.973 122.46 197.029 122.45 197.092C122.44 197.151 122.426 197.21 122.406 197.268C122.387 197.327 122.362 197.38 122.333 197.429C122.309 197.473 122.277 197.512 122.238 197.547C122.199 197.576 122.155 197.59 122.106 197.59H118.927L118.239 200.982H122.011C122.06 200.982 122.099 201.001 122.128 201.04C122.162 201.079 122.179 201.14 122.179 201.223C122.179 201.253 122.177 201.294 122.172 201.348C122.167 201.401 122.157 201.458 122.143 201.516C122.133 201.575 122.118 201.636 122.099 201.699C122.084 201.758 122.062 201.814 122.033 201.868C122.003 201.917 121.967 201.956 121.923 201.985C121.884 202.014 121.84 202.029 121.791 202.029H117.235C117.182 202.029 117.128 202.022 117.074 202.007C117.025 201.987 116.981 201.958 116.942 201.919C116.908 201.875 116.884 201.821 116.869 201.758C116.854 201.69 116.859 201.609 116.884 201.516L118.576 193.064C118.61 192.874 118.686 192.742 118.803 192.669C118.92 192.59 119.035 192.551 119.147 192.551H123.637C123.749 192.551 123.805 192.632 123.805 192.793ZM130.309 196.712C130.309 196.882 130.299 197.051 130.28 197.217C130.26 197.383 130.233 197.554 130.199 197.73L129.372 201.846C129.362 201.885 129.345 201.919 129.32 201.948C129.301 201.973 129.264 201.995 129.21 202.014C129.162 202.034 129.098 202.048 129.02 202.058C128.942 202.068 128.842 202.073 128.72 202.073C128.603 202.073 128.505 202.068 128.427 202.058C128.354 202.048 128.295 202.034 128.251 202.014C128.212 201.995 128.185 201.973 128.17 201.948C128.161 201.919 128.158 201.885 128.163 201.846L128.976 197.774C129.01 197.622 129.032 197.476 129.042 197.334C129.057 197.193 129.064 197.068 129.064 196.961C129.064 196.663 129 196.423 128.874 196.243C128.747 196.057 128.534 195.964 128.236 195.964C127.978 195.964 127.711 196.04 127.438 196.192C127.169 196.338 126.918 196.543 126.684 196.807C126.454 197.066 126.247 197.376 126.061 197.737C125.88 198.093 125.749 198.482 125.666 198.901L125.08 201.846C125.07 201.885 125.053 201.919 125.028 201.948C125.004 201.973 124.967 201.995 124.918 202.014C124.87 202.034 124.804 202.048 124.721 202.058C124.643 202.068 124.545 202.073 124.428 202.073C124.306 202.073 124.206 202.068 124.127 202.058C124.054 202.048 123.996 202.034 123.952 202.014C123.913 201.995 123.886 201.973 123.871 201.948C123.861 201.919 123.861 201.885 123.871 201.846L125.197 195.247C125.202 195.213 125.214 195.181 125.233 195.151C125.258 195.122 125.292 195.098 125.336 195.078C125.385 195.059 125.443 195.047 125.512 195.042C125.585 195.032 125.67 195.027 125.768 195.027C125.871 195.027 125.954 195.032 126.017 195.042C126.085 195.047 126.137 195.059 126.171 195.078C126.21 195.098 126.234 195.122 126.244 195.151C126.254 195.181 126.256 195.213 126.251 195.247L126.002 196.506C126.076 196.34 126.195 196.165 126.361 195.979C126.527 195.794 126.725 195.623 126.955 195.466C127.184 195.31 127.436 195.181 127.709 195.078C127.987 194.976 128.275 194.924 128.573 194.924C128.9 194.924 129.174 194.976 129.394 195.078C129.613 195.176 129.792 195.308 129.928 195.474C130.065 195.635 130.163 195.823 130.221 196.038C130.28 196.253 130.309 196.477 130.309 196.712ZM136.952 202.366C136.874 202.756 136.747 203.098 136.571 203.391C136.4 203.684 136.181 203.926 135.912 204.116C135.644 204.312 135.324 204.458 134.953 204.556C134.586 204.653 134.169 204.702 133.7 204.702C133.295 204.702 132.924 204.661 132.587 204.578C132.255 204.5 131.989 204.404 131.789 204.292C131.715 204.243 131.664 204.194 131.635 204.146C131.61 204.102 131.598 204.043 131.598 203.97C131.598 203.941 131.598 203.899 131.598 203.845C131.603 203.792 131.61 203.738 131.62 203.684C131.635 203.63 131.649 203.574 131.664 203.516C131.684 203.457 131.706 203.403 131.73 203.355C131.759 203.311 131.793 203.274 131.833 203.245C131.872 203.22 131.913 203.208 131.957 203.208C132.016 203.208 132.089 203.233 132.177 203.281C132.265 203.335 132.382 203.394 132.528 203.457C132.675 203.521 132.855 203.579 133.07 203.633C133.29 203.687 133.559 203.714 133.876 203.714C134.14 203.714 134.376 203.687 134.586 203.633C134.801 203.579 134.987 203.499 135.143 203.391C135.304 203.284 135.434 203.147 135.531 202.981C135.634 202.815 135.709 202.617 135.758 202.388C135.841 201.943 135.924 201.575 136.007 201.282C136.09 200.989 136.159 200.762 136.212 200.601C136.134 200.781 136.01 200.964 135.839 201.15C135.668 201.331 135.47 201.499 135.246 201.655C135.021 201.807 134.774 201.931 134.506 202.029C134.237 202.122 133.964 202.168 133.686 202.168C133.319 202.168 133.009 202.107 132.755 201.985C132.501 201.863 132.296 201.697 132.14 201.487C131.989 201.272 131.879 201.021 131.811 200.733C131.742 200.44 131.708 200.125 131.708 199.788C131.708 199.505 131.735 199.187 131.789 198.836C131.842 198.479 131.928 198.123 132.045 197.766C132.162 197.405 132.311 197.056 132.492 196.719C132.677 196.377 132.899 196.074 133.158 195.811C133.417 195.542 133.715 195.327 134.052 195.166C134.394 195.005 134.779 194.924 135.209 194.924C135.644 194.924 136.015 195.012 136.322 195.188C136.635 195.364 136.913 195.606 137.157 195.913L137.296 195.247C137.316 195.169 137.372 195.112 137.465 195.078C137.558 195.044 137.702 195.027 137.897 195.027C137.995 195.027 138.075 195.032 138.139 195.042C138.207 195.047 138.261 195.059 138.3 195.078C138.339 195.098 138.363 195.122 138.373 195.151C138.383 195.181 138.385 195.213 138.38 195.247L136.952 202.366ZM136.835 196.975C136.605 196.638 136.356 196.387 136.088 196.221C135.824 196.05 135.526 195.964 135.194 195.964C134.931 195.964 134.694 196.026 134.484 196.148C134.274 196.27 134.086 196.433 133.92 196.638C133.759 196.839 133.617 197.07 133.495 197.334C133.373 197.598 133.273 197.869 133.195 198.147C133.122 198.421 133.065 198.694 133.026 198.967C132.992 199.236 132.975 199.48 132.975 199.7C132.975 199.91 132.992 200.103 133.026 200.278C133.065 200.454 133.124 200.606 133.202 200.733C133.285 200.855 133.39 200.952 133.517 201.026C133.649 201.099 133.808 201.135 133.993 201.135C134.262 201.135 134.53 201.062 134.799 200.916C135.072 200.764 135.326 200.557 135.561 200.293C135.795 200.029 136.002 199.719 136.183 199.363C136.364 199.002 136.498 198.609 136.586 198.184L136.835 196.975ZM142.416 193.035C142.392 193.172 142.357 193.286 142.313 193.379C142.274 193.472 142.221 193.547 142.152 193.606C142.084 193.66 141.999 193.699 141.896 193.723C141.793 193.748 141.669 193.76 141.522 193.76C141.381 193.76 141.264 193.748 141.171 193.723C141.078 193.699 141.01 193.66 140.966 193.606C140.922 193.547 140.897 193.472 140.893 193.379C140.888 193.286 140.897 193.172 140.922 193.035C140.951 192.898 140.988 192.786 141.032 192.698C141.076 192.605 141.129 192.529 141.193 192.471C141.261 192.407 141.347 192.366 141.449 192.346C141.552 192.322 141.676 192.31 141.823 192.31C141.964 192.31 142.079 192.322 142.167 192.346C142.26 192.366 142.328 192.407 142.372 192.471C142.421 192.529 142.448 192.605 142.453 192.698C142.458 192.786 142.445 192.898 142.416 193.035ZM140.519 201.846C140.509 201.885 140.492 201.919 140.468 201.948C140.443 201.973 140.407 201.995 140.358 202.014C140.309 202.034 140.243 202.048 140.16 202.058C140.082 202.068 139.984 202.073 139.867 202.073C139.745 202.073 139.645 202.068 139.567 202.058C139.494 202.048 139.435 202.034 139.391 202.014C139.352 201.995 139.325 201.973 139.311 201.948C139.301 201.919 139.301 201.885 139.311 201.846L140.622 195.254C140.626 195.22 140.641 195.188 140.666 195.159C140.69 195.13 140.727 195.105 140.775 195.086C140.824 195.066 140.888 195.051 140.966 195.042C141.049 195.032 141.151 195.027 141.273 195.027C141.391 195.027 141.486 195.032 141.559 195.042C141.637 195.051 141.696 195.066 141.735 195.086C141.779 195.105 141.806 195.13 141.815 195.159C141.83 195.188 141.835 195.22 141.83 195.254L140.519 201.846ZM149.191 196.712C149.191 196.882 149.181 197.051 149.162 197.217C149.142 197.383 149.115 197.554 149.081 197.73L148.253 201.846C148.244 201.885 148.227 201.919 148.202 201.948C148.183 201.973 148.146 201.995 148.092 202.014C148.043 202.034 147.98 202.048 147.902 202.058C147.824 202.068 147.724 202.073 147.602 202.073C147.484 202.073 147.387 202.068 147.309 202.058C147.235 202.048 147.177 202.034 147.133 202.014C147.094 201.995 147.067 201.973 147.052 201.948C147.042 201.919 147.04 201.885 147.045 201.846L147.858 197.774C147.892 197.622 147.914 197.476 147.924 197.334C147.938 197.193 147.946 197.068 147.946 196.961C147.946 196.663 147.882 196.423 147.755 196.243C147.628 196.057 147.416 195.964 147.118 195.964C146.859 195.964 146.593 196.04 146.32 196.192C146.051 196.338 145.8 196.543 145.565 196.807C145.336 197.066 145.128 197.376 144.943 197.737C144.762 198.093 144.63 198.482 144.547 198.901L143.961 201.846C143.952 201.885 143.935 201.919 143.91 201.948C143.886 201.973 143.849 201.995 143.8 202.014C143.751 202.034 143.686 202.048 143.603 202.058C143.524 202.068 143.427 202.073 143.31 202.073C143.188 202.073 143.087 202.068 143.009 202.058C142.936 202.048 142.877 202.034 142.833 202.014C142.794 201.995 142.768 201.973 142.753 201.948C142.743 201.919 142.743 201.885 142.753 201.846L144.079 195.247C144.083 195.213 144.096 195.181 144.115 195.151C144.14 195.122 144.174 195.098 144.218 195.078C144.267 195.059 144.325 195.047 144.394 195.042C144.467 195.032 144.552 195.027 144.65 195.027C144.752 195.027 144.835 195.032 144.899 195.042C144.967 195.047 145.019 195.059 145.053 195.078C145.092 195.098 145.116 195.122 145.126 195.151C145.136 195.181 145.138 195.213 145.133 195.247L144.884 196.506C144.958 196.34 145.077 196.165 145.243 195.979C145.409 195.794 145.607 195.623 145.836 195.466C146.066 195.31 146.317 195.181 146.591 195.078C146.869 194.976 147.157 194.924 147.455 194.924C147.782 194.924 148.056 194.976 148.275 195.078C148.495 195.176 148.673 195.308 148.81 195.474C148.947 195.635 149.044 195.823 149.103 196.038C149.162 196.253 149.191 196.477 149.191 196.712ZM156.771 196.602C156.771 196.939 156.693 197.241 156.537 197.51C156.381 197.778 156.137 198.008 155.805 198.198C155.473 198.389 155.048 198.535 154.53 198.638C154.013 198.74 153.393 198.792 152.67 198.792H151.894C151.859 198.953 151.835 199.109 151.82 199.26C151.811 199.412 151.806 199.553 151.806 199.685C151.806 200.173 151.925 200.547 152.165 200.806C152.409 201.065 152.802 201.194 153.344 201.194C153.656 201.194 153.937 201.172 154.186 201.128C154.435 201.079 154.65 201.028 154.831 200.974C155.016 200.921 155.167 200.872 155.285 200.828C155.402 200.779 155.482 200.755 155.526 200.755C155.57 200.755 155.602 200.772 155.622 200.806C155.646 200.835 155.658 200.879 155.658 200.938C155.658 200.986 155.653 201.045 155.644 201.113C155.634 201.182 155.619 201.253 155.6 201.326C155.58 201.394 155.553 201.46 155.519 201.524C155.49 201.587 155.456 201.641 155.417 201.685C155.358 201.743 155.253 201.802 155.102 201.86C154.955 201.914 154.779 201.965 154.574 202.014C154.369 202.058 154.145 202.095 153.9 202.124C153.656 202.153 153.412 202.168 153.168 202.168C152.733 202.168 152.353 202.119 152.025 202.022C151.698 201.924 151.425 201.775 151.205 201.575C150.99 201.37 150.829 201.116 150.722 200.813C150.614 200.51 150.561 200.154 150.561 199.744C150.561 199.426 150.59 199.087 150.648 198.726C150.712 198.359 150.81 197.998 150.941 197.642C151.073 197.285 151.244 196.943 151.454 196.616C151.664 196.289 151.913 196.001 152.201 195.752C152.494 195.503 152.831 195.303 153.212 195.151C153.593 195 154.022 194.924 154.501 194.924C154.911 194.924 155.258 194.976 155.541 195.078C155.829 195.181 156.063 195.313 156.244 195.474C156.43 195.635 156.564 195.816 156.647 196.016C156.73 196.211 156.771 196.406 156.771 196.602ZM155.534 196.712C155.534 196.463 155.436 196.262 155.241 196.111C155.045 195.955 154.767 195.877 154.406 195.877C154.088 195.877 153.808 195.933 153.563 196.045C153.319 196.152 153.102 196.299 152.912 196.484C152.726 196.67 152.565 196.887 152.428 197.136C152.296 197.38 152.189 197.639 152.106 197.913H152.853C153.366 197.913 153.793 197.881 154.135 197.818C154.481 197.754 154.757 197.669 154.962 197.561C155.172 197.449 155.319 197.319 155.402 197.173C155.49 197.026 155.534 196.873 155.534 196.712ZM163.935 196.602C163.935 196.939 163.856 197.241 163.7 197.51C163.544 197.778 163.3 198.008 162.968 198.198C162.636 198.389 162.211 198.535 161.693 198.638C161.176 198.74 160.556 198.792 159.833 198.792H159.057C159.022 198.953 158.998 199.109 158.983 199.26C158.974 199.412 158.969 199.553 158.969 199.685C158.969 200.173 159.088 200.547 159.328 200.806C159.572 201.065 159.965 201.194 160.507 201.194C160.819 201.194 161.1 201.172 161.349 201.128C161.598 201.079 161.813 201.028 161.994 200.974C162.179 200.921 162.331 200.872 162.448 200.828C162.565 200.779 162.646 200.755 162.689 200.755C162.733 200.755 162.765 200.772 162.785 200.806C162.809 200.835 162.821 200.879 162.821 200.938C162.821 200.986 162.816 201.045 162.807 201.113C162.797 201.182 162.782 201.253 162.763 201.326C162.743 201.394 162.716 201.46 162.682 201.524C162.653 201.587 162.619 201.641 162.58 201.685C162.521 201.743 162.416 201.802 162.265 201.86C162.118 201.914 161.942 201.965 161.737 202.014C161.532 202.058 161.308 202.095 161.063 202.124C160.819 202.153 160.575 202.168 160.331 202.168C159.896 202.168 159.516 202.119 159.188 202.022C158.861 201.924 158.588 201.775 158.368 201.575C158.153 201.37 157.992 201.116 157.885 200.813C157.777 200.51 157.724 200.154 157.724 199.744C157.724 199.426 157.753 199.087 157.812 198.726C157.875 198.359 157.973 197.998 158.104 197.642C158.236 197.285 158.407 196.943 158.617 196.616C158.827 196.289 159.076 196.001 159.364 195.752C159.657 195.503 159.994 195.303 160.375 195.151C160.756 195 161.186 194.924 161.664 194.924C162.074 194.924 162.421 194.976 162.704 195.078C162.992 195.181 163.227 195.313 163.407 195.474C163.593 195.635 163.727 195.816 163.81 196.016C163.893 196.211 163.935 196.406 163.935 196.602ZM162.697 196.712C162.697 196.463 162.599 196.262 162.404 196.111C162.208 195.955 161.93 195.877 161.569 195.877C161.251 195.877 160.971 195.933 160.727 196.045C160.482 196.152 160.265 196.299 160.075 196.484C159.889 196.67 159.728 196.887 159.591 197.136C159.459 197.38 159.352 197.639 159.269 197.913H160.016C160.529 197.913 160.956 197.881 161.298 197.818C161.645 197.754 161.92 197.669 162.125 197.561C162.335 197.449 162.482 197.319 162.565 197.173C162.653 197.026 162.697 196.873 162.697 196.712ZM169.845 195.261C169.845 195.281 169.84 195.32 169.831 195.379C169.826 195.432 169.818 195.496 169.809 195.569C169.799 195.642 169.784 195.718 169.765 195.796C169.745 195.874 169.721 195.947 169.691 196.016C169.662 196.079 169.63 196.133 169.596 196.177C169.567 196.221 169.533 196.243 169.494 196.243C169.455 196.243 169.411 196.235 169.362 196.221C169.318 196.201 169.267 196.179 169.208 196.155C169.154 196.13 169.091 196.111 169.018 196.096C168.944 196.077 168.859 196.067 168.761 196.067C168.595 196.067 168.402 196.14 168.183 196.287C167.968 196.428 167.755 196.626 167.545 196.88C167.335 197.134 167.143 197.434 166.967 197.781C166.796 198.128 166.669 198.504 166.586 198.909L166.007 201.846C165.998 201.885 165.98 201.919 165.956 201.948C165.932 201.973 165.895 201.995 165.846 202.014C165.797 202.034 165.731 202.048 165.648 202.058C165.57 202.068 165.473 202.073 165.355 202.073C165.233 202.073 165.133 202.068 165.055 202.058C164.982 202.048 164.923 202.034 164.879 202.014C164.84 201.995 164.813 201.973 164.799 201.948C164.789 201.919 164.789 201.885 164.799 201.846L166.11 195.247C166.115 195.213 166.129 195.181 166.154 195.151C166.178 195.122 166.215 195.098 166.264 195.078C166.312 195.059 166.371 195.047 166.439 195.042C166.513 195.032 166.598 195.027 166.696 195.027C166.798 195.027 166.881 195.032 166.945 195.042C167.013 195.047 167.064 195.059 167.099 195.078C167.138 195.098 167.162 195.122 167.172 195.151C167.182 195.181 167.184 195.213 167.179 195.247L166.938 196.448C167.05 196.248 167.182 196.055 167.333 195.869C167.489 195.684 167.658 195.523 167.838 195.386C168.019 195.244 168.207 195.132 168.402 195.049C168.603 194.966 168.798 194.924 168.988 194.924C169.071 194.924 169.154 194.932 169.237 194.946C169.325 194.956 169.406 194.971 169.479 194.99C169.552 195.005 169.616 195.025 169.669 195.049C169.728 195.068 169.772 195.093 169.801 195.122C169.831 195.151 169.845 195.198 169.845 195.261ZM173.046 193.035C173.021 193.172 172.987 193.286 172.943 193.379C172.904 193.472 172.851 193.547 172.782 193.606C172.714 193.66 172.628 193.699 172.526 193.723C172.423 193.748 172.299 193.76 172.152 193.76C172.011 193.76 171.894 193.748 171.801 193.723C171.708 193.699 171.64 193.66 171.596 193.606C171.552 193.547 171.527 193.472 171.522 193.379C171.518 193.286 171.527 193.172 171.552 193.035C171.581 192.898 171.618 192.786 171.662 192.698C171.706 192.605 171.759 192.529 171.823 192.471C171.891 192.407 171.977 192.366 172.079 192.346C172.182 192.322 172.306 192.31 172.453 192.31C172.594 192.31 172.709 192.322 172.797 192.346C172.89 192.366 172.958 192.407 173.002 192.471C173.051 192.529 173.078 192.605 173.083 192.698C173.087 192.786 173.075 192.898 173.046 193.035ZM171.149 201.846C171.139 201.885 171.122 201.919 171.098 201.948C171.073 201.973 171.037 201.995 170.988 202.014C170.939 202.034 170.873 202.048 170.79 202.058C170.712 202.068 170.614 202.073 170.497 202.073C170.375 202.073 170.275 202.068 170.197 202.058C170.124 202.048 170.065 202.034 170.021 202.014C169.982 201.995 169.955 201.973 169.94 201.948C169.931 201.919 169.931 201.885 169.94 201.846L171.251 195.254C171.256 195.22 171.271 195.188 171.295 195.159C171.32 195.13 171.356 195.105 171.405 195.086C171.454 195.066 171.518 195.051 171.596 195.042C171.679 195.032 171.781 195.027 171.903 195.027C172.021 195.027 172.116 195.032 172.189 195.042C172.267 195.051 172.326 195.066 172.365 195.086C172.409 195.105 172.436 195.13 172.445 195.159C172.46 195.188 172.465 195.22 172.46 195.254L171.149 201.846ZM179.821 196.712C179.821 196.882 179.811 197.051 179.792 197.217C179.772 197.383 179.745 197.554 179.711 197.73L178.883 201.846C178.874 201.885 178.856 201.919 178.832 201.948C178.812 201.973 178.776 201.995 178.722 202.014C178.673 202.034 178.61 202.048 178.532 202.058C178.454 202.068 178.354 202.073 178.231 202.073C178.114 202.073 178.017 202.068 177.938 202.058C177.865 202.048 177.807 202.034 177.763 202.014C177.724 201.995 177.697 201.973 177.682 201.948C177.672 201.919 177.67 201.885 177.675 201.846L178.488 197.774C178.522 197.622 178.544 197.476 178.554 197.334C178.568 197.193 178.576 197.068 178.576 196.961C178.576 196.663 178.512 196.423 178.385 196.243C178.258 196.057 178.046 195.964 177.748 195.964C177.489 195.964 177.223 196.04 176.95 196.192C176.681 196.338 176.43 196.543 176.195 196.807C175.966 197.066 175.758 197.376 175.573 197.737C175.392 198.093 175.26 198.482 175.177 198.901L174.591 201.846C174.582 201.885 174.564 201.919 174.54 201.948C174.516 201.973 174.479 201.995 174.43 202.014C174.381 202.034 174.315 202.048 174.232 202.058C174.154 202.068 174.057 202.073 173.939 202.073C173.817 202.073 173.717 202.068 173.639 202.058C173.566 202.048 173.507 202.034 173.463 202.014C173.424 201.995 173.397 201.973 173.383 201.948C173.373 201.919 173.373 201.885 173.383 201.846L174.708 195.247C174.713 195.213 174.726 195.181 174.745 195.151C174.77 195.122 174.804 195.098 174.848 195.078C174.896 195.059 174.955 195.047 175.023 195.042C175.097 195.032 175.182 195.027 175.28 195.027C175.382 195.027 175.465 195.032 175.529 195.042C175.597 195.047 175.648 195.059 175.683 195.078C175.722 195.098 175.746 195.122 175.756 195.151C175.766 195.181 175.768 195.213 175.763 195.247L175.514 196.506C175.587 196.34 175.707 196.165 175.873 195.979C176.039 195.794 176.237 195.623 176.466 195.466C176.696 195.31 176.947 195.181 177.221 195.078C177.499 194.976 177.787 194.924 178.085 194.924C178.412 194.924 178.686 194.976 178.905 195.078C179.125 195.176 179.303 195.308 179.44 195.474C179.577 195.635 179.674 195.823 179.733 196.038C179.792 196.253 179.821 196.477 179.821 196.712ZM186.464 202.366C186.386 202.756 186.259 203.098 186.083 203.391C185.912 203.684 185.692 203.926 185.424 204.116C185.155 204.312 184.835 204.458 184.464 204.556C184.098 204.653 183.681 204.702 183.212 204.702C182.807 204.702 182.436 204.661 182.099 204.578C181.767 204.5 181.5 204.404 181.3 204.292C181.227 204.243 181.176 204.194 181.146 204.146C181.122 204.102 181.11 204.043 181.11 203.97C181.11 203.941 181.11 203.899 181.11 203.845C181.115 203.792 181.122 203.738 181.132 203.684C181.146 203.63 181.161 203.574 181.176 203.516C181.195 203.457 181.217 203.403 181.242 203.355C181.271 203.311 181.305 203.274 181.344 203.245C181.383 203.22 181.425 203.208 181.469 203.208C181.527 203.208 181.601 203.233 181.688 203.281C181.776 203.335 181.894 203.394 182.04 203.457C182.187 203.521 182.367 203.579 182.582 203.633C182.802 203.687 183.07 203.714 183.388 203.714C183.651 203.714 183.888 203.687 184.098 203.633C184.313 203.579 184.499 203.499 184.655 203.391C184.816 203.284 184.945 203.147 185.043 202.981C185.146 202.815 185.221 202.617 185.27 202.388C185.353 201.943 185.436 201.575 185.519 201.282C185.602 200.989 185.67 200.762 185.724 200.601C185.646 200.781 185.521 200.964 185.351 201.15C185.18 201.331 184.982 201.499 184.757 201.655C184.533 201.807 184.286 201.931 184.018 202.029C183.749 202.122 183.476 202.168 183.197 202.168C182.831 202.168 182.521 202.107 182.267 201.985C182.013 201.863 181.808 201.697 181.652 201.487C181.5 201.272 181.391 201.021 181.322 200.733C181.254 200.44 181.22 200.125 181.22 199.788C181.22 199.505 181.247 199.187 181.3 198.836C181.354 198.479 181.439 198.123 181.557 197.766C181.674 197.405 181.823 197.056 182.003 196.719C182.189 196.377 182.411 196.074 182.67 195.811C182.929 195.542 183.227 195.327 183.563 195.166C183.905 195.005 184.291 194.924 184.721 194.924C185.155 194.924 185.526 195.012 185.834 195.188C186.146 195.364 186.425 195.606 186.669 195.913L186.808 195.247C186.828 195.169 186.884 195.112 186.977 195.078C187.069 195.044 187.213 195.027 187.409 195.027C187.506 195.027 187.587 195.032 187.65 195.042C187.719 195.047 187.772 195.059 187.812 195.078C187.851 195.098 187.875 195.122 187.885 195.151C187.895 195.181 187.897 195.213 187.892 195.247L186.464 202.366ZM186.347 196.975C186.117 196.638 185.868 196.387 185.6 196.221C185.336 196.05 185.038 195.964 184.706 195.964C184.442 195.964 184.206 196.026 183.996 196.148C183.786 196.27 183.598 196.433 183.432 196.638C183.271 196.839 183.129 197.07 183.007 197.334C182.885 197.598 182.785 197.869 182.707 198.147C182.633 198.421 182.577 198.694 182.538 198.967C182.504 199.236 182.487 199.48 182.487 199.7C182.487 199.91 182.504 200.103 182.538 200.278C182.577 200.454 182.636 200.606 182.714 200.733C182.797 200.855 182.902 200.952 183.029 201.026C183.161 201.099 183.319 201.135 183.505 201.135C183.773 201.135 184.042 201.062 184.311 200.916C184.584 200.764 184.838 200.557 185.072 200.293C185.307 200.029 185.514 199.719 185.695 199.363C185.875 199.002 186.01 198.609 186.098 198.184L186.347 196.975ZM193.927 200.908C193.927 200.977 193.92 201.057 193.905 201.15C193.896 201.243 193.878 201.338 193.854 201.436C193.83 201.533 193.798 201.624 193.759 201.707C193.725 201.79 193.678 201.86 193.62 201.919C193.561 201.978 193.478 202.022 193.371 202.051C193.263 202.08 193.126 202.095 192.96 202.095C192.824 202.095 192.711 202.085 192.624 202.066C192.536 202.046 192.467 202.014 192.418 201.97C192.37 201.922 192.335 201.865 192.316 201.802C192.296 201.734 192.287 201.658 192.287 201.575C192.287 201.497 192.292 201.411 192.301 201.318C192.316 201.221 192.335 201.126 192.36 201.033C192.389 200.94 192.421 200.855 192.455 200.776C192.494 200.693 192.541 200.625 192.594 200.571C192.653 200.513 192.731 200.469 192.829 200.44C192.931 200.405 193.075 200.388 193.261 200.388C193.402 200.388 193.515 200.401 193.598 200.425C193.686 200.449 193.754 200.486 193.803 200.535C193.852 200.579 193.883 200.632 193.898 200.696C193.917 200.759 193.927 200.83 193.927 200.908ZM206.54 192.793C206.54 192.818 206.537 192.857 206.532 192.91C206.532 192.959 206.525 193.013 206.51 193.071C206.5 193.13 206.486 193.191 206.466 193.255C206.452 193.318 206.43 193.377 206.4 193.43C206.371 193.479 206.334 193.521 206.291 193.555C206.251 193.584 206.208 193.599 206.159 193.599H202.46L201.859 196.572H205.045C205.104 196.572 205.148 196.592 205.177 196.631C205.207 196.67 205.221 196.729 205.221 196.807C205.221 196.831 205.216 196.87 205.207 196.924C205.202 196.973 205.194 197.029 205.185 197.092C205.175 197.151 205.16 197.21 205.141 197.268C205.121 197.327 205.097 197.38 205.067 197.429C205.043 197.473 205.011 197.512 204.972 197.547C204.933 197.576 204.889 197.59 204.84 197.59H201.662L200.973 200.982H204.745C204.794 200.982 204.833 201.001 204.862 201.04C204.896 201.079 204.914 201.14 204.914 201.223C204.914 201.253 204.911 201.294 204.906 201.348C204.901 201.401 204.892 201.458 204.877 201.516C204.867 201.575 204.853 201.636 204.833 201.699C204.818 201.758 204.796 201.814 204.767 201.868C204.738 201.917 204.701 201.956 204.657 201.985C204.618 202.014 204.574 202.029 204.525 202.029H199.97C199.916 202.029 199.862 202.022 199.809 202.007C199.76 201.987 199.716 201.958 199.677 201.919C199.643 201.875 199.618 201.821 199.604 201.758C199.589 201.69 199.594 201.609 199.618 201.516L201.31 193.064C201.344 192.874 201.42 192.742 201.537 192.669C201.654 192.59 201.769 192.551 201.881 192.551H206.371C206.483 192.551 206.54 192.632 206.54 192.793ZM213.043 196.712C213.043 196.882 213.034 197.051 213.014 197.217C212.995 197.383 212.968 197.554 212.934 197.73L212.106 201.846C212.096 201.885 212.079 201.919 212.055 201.948C212.035 201.973 211.999 201.995 211.945 202.014C211.896 202.034 211.833 202.048 211.754 202.058C211.676 202.068 211.576 202.073 211.454 202.073C211.337 202.073 211.239 202.068 211.161 202.058C211.088 202.048 211.029 202.034 210.985 202.014C210.946 201.995 210.919 201.973 210.905 201.948C210.895 201.919 210.893 201.885 210.897 201.846L211.71 197.774C211.745 197.622 211.767 197.476 211.776 197.334C211.791 197.193 211.798 197.068 211.798 196.961C211.798 196.663 211.735 196.423 211.608 196.243C211.481 196.057 211.269 195.964 210.971 195.964C210.712 195.964 210.446 196.04 210.172 196.192C209.904 196.338 209.652 196.543 209.418 196.807C209.188 197.066 208.981 197.376 208.795 197.737C208.615 198.093 208.483 198.482 208.4 198.901L207.814 201.846C207.804 201.885 207.787 201.919 207.763 201.948C207.738 201.973 207.702 201.995 207.653 202.014C207.604 202.034 207.538 202.048 207.455 202.058C207.377 202.068 207.279 202.073 207.162 202.073C207.04 202.073 206.94 202.068 206.862 202.058C206.789 202.048 206.73 202.034 206.686 202.014C206.647 201.995 206.62 201.973 206.605 201.948C206.596 201.919 206.596 201.885 206.605 201.846L207.931 195.247C207.936 195.213 207.948 195.181 207.968 195.151C207.992 195.122 208.026 195.098 208.07 195.078C208.119 195.059 208.178 195.047 208.246 195.042C208.319 195.032 208.405 195.027 208.502 195.027C208.605 195.027 208.688 195.032 208.751 195.042C208.82 195.047 208.871 195.059 208.905 195.078C208.944 195.098 208.969 195.122 208.979 195.151C208.988 195.181 208.991 195.213 208.986 195.247L208.737 196.506C208.81 196.34 208.93 196.165 209.096 195.979C209.262 195.794 209.459 195.623 209.689 195.466C209.918 195.31 210.17 195.181 210.443 195.078C210.722 194.976 211.01 194.924 211.308 194.924C211.635 194.924 211.908 194.976 212.128 195.078C212.348 195.176 212.526 195.308 212.663 195.474C212.799 195.635 212.897 195.823 212.956 196.038C213.014 196.253 213.043 196.477 213.043 196.712ZM220.404 195.195C220.404 195.244 220.397 195.296 220.382 195.349C220.368 195.398 220.351 195.449 220.331 195.503C220.15 196.035 219.945 196.575 219.716 197.122C219.491 197.664 219.24 198.206 218.961 198.748C218.688 199.285 218.385 199.815 218.053 200.337C217.726 200.855 217.367 201.355 216.977 201.839C216.942 201.892 216.903 201.934 216.859 201.963C216.815 201.992 216.762 202.014 216.698 202.029C216.64 202.048 216.571 202.061 216.493 202.066C216.415 202.07 216.322 202.073 216.215 202.073C216.063 202.073 215.941 202.068 215.849 202.058C215.756 202.048 215.683 202.034 215.629 202.014C215.58 201.995 215.543 201.968 215.519 201.934C215.5 201.9 215.487 201.858 215.482 201.809L214.508 195.562C214.503 195.508 214.499 195.462 214.494 195.422C214.494 195.379 214.494 195.339 214.494 195.305C214.494 195.242 214.503 195.193 214.523 195.159C214.542 195.125 214.574 195.098 214.618 195.078C214.662 195.059 214.721 195.047 214.794 195.042C214.872 195.032 214.975 195.027 215.102 195.027C215.229 195.027 215.331 195.032 215.409 195.042C215.487 195.047 215.546 195.059 215.585 195.078C215.629 195.093 215.658 195.117 215.673 195.151C215.688 195.181 215.697 195.217 215.702 195.261L216.493 200.696V200.784L216.53 200.74C216.818 200.305 217.082 199.885 217.321 199.48C217.56 199.07 217.782 198.648 217.987 198.213C218.192 197.778 218.385 197.322 218.566 196.843C218.751 196.365 218.939 195.838 219.13 195.261C219.145 195.217 219.164 195.181 219.188 195.151C219.218 195.117 219.257 195.093 219.306 195.078C219.359 195.059 219.428 195.047 219.511 195.042C219.599 195.032 219.706 195.027 219.833 195.027C219.95 195.027 220.045 195.032 220.119 195.042C220.192 195.047 220.248 195.056 220.287 195.071C220.331 195.081 220.36 195.098 220.375 195.122C220.395 195.142 220.404 195.166 220.404 195.195ZM223.861 193.035C223.837 193.172 223.803 193.286 223.759 193.379C223.72 193.472 223.666 193.547 223.598 193.606C223.529 193.66 223.444 193.699 223.341 193.723C223.239 193.748 223.114 193.76 222.968 193.76C222.826 193.76 222.709 193.748 222.616 193.723C222.523 193.699 222.455 193.66 222.411 193.606C222.367 193.547 222.343 193.472 222.338 193.379C222.333 193.286 222.343 193.172 222.367 193.035C222.396 192.898 222.433 192.786 222.477 192.698C222.521 192.605 222.575 192.529 222.638 192.471C222.707 192.407 222.792 192.366 222.895 192.346C222.997 192.322 223.122 192.31 223.268 192.31C223.41 192.31 223.524 192.322 223.612 192.346C223.705 192.366 223.773 192.407 223.817 192.471C223.866 192.529 223.893 192.605 223.898 192.698C223.903 192.786 223.891 192.898 223.861 193.035ZM221.964 201.846C221.955 201.885 221.938 201.919 221.913 201.948C221.889 201.973 221.852 201.995 221.803 202.014C221.754 202.034 221.688 202.048 221.605 202.058C221.527 202.068 221.43 202.073 221.312 202.073C221.19 202.073 221.09 202.068 221.012 202.058C220.939 202.048 220.88 202.034 220.836 202.014C220.797 201.995 220.771 201.973 220.756 201.948C220.746 201.919 220.746 201.885 220.756 201.846L222.067 195.254C222.072 195.22 222.086 195.188 222.111 195.159C222.135 195.13 222.172 195.105 222.221 195.086C222.27 195.066 222.333 195.051 222.411 195.042C222.494 195.032 222.597 195.027 222.719 195.027C222.836 195.027 222.931 195.032 223.004 195.042C223.083 195.051 223.141 195.066 223.18 195.086C223.224 195.105 223.251 195.13 223.261 195.159C223.275 195.188 223.28 195.22 223.275 195.254L221.964 201.846ZM229.245 195.261C229.245 195.281 229.24 195.32 229.23 195.379C229.225 195.432 229.218 195.496 229.208 195.569C229.198 195.642 229.184 195.718 229.164 195.796C229.145 195.874 229.12 195.947 229.091 196.016C229.062 196.079 229.03 196.133 228.996 196.177C228.966 196.221 228.932 196.243 228.893 196.243C228.854 196.243 228.81 196.235 228.761 196.221C228.717 196.201 228.666 196.179 228.607 196.155C228.554 196.13 228.49 196.111 228.417 196.096C228.344 196.077 228.258 196.067 228.161 196.067C227.995 196.067 227.802 196.14 227.582 196.287C227.367 196.428 227.155 196.626 226.945 196.88C226.735 197.134 226.542 197.434 226.366 197.781C226.195 198.128 226.068 198.504 225.985 198.909L225.407 201.846C225.397 201.885 225.38 201.919 225.355 201.948C225.331 201.973 225.294 201.995 225.246 202.014C225.197 202.034 225.131 202.048 225.048 202.058C224.97 202.068 224.872 202.073 224.755 202.073C224.633 202.073 224.533 202.068 224.455 202.058C224.381 202.048 224.323 202.034 224.279 202.014C224.24 201.995 224.213 201.973 224.198 201.948C224.188 201.919 224.188 201.885 224.198 201.846L225.509 195.247C225.514 195.213 225.529 195.181 225.553 195.151C225.578 195.122 225.614 195.098 225.663 195.078C225.712 195.059 225.771 195.047 225.839 195.042C225.912 195.032 225.998 195.027 226.095 195.027C226.198 195.027 226.281 195.032 226.344 195.042C226.413 195.047 226.464 195.059 226.498 195.078C226.537 195.098 226.562 195.122 226.571 195.151C226.581 195.181 226.583 195.213 226.579 195.247L226.337 196.448C226.449 196.248 226.581 196.055 226.732 195.869C226.889 195.684 227.057 195.523 227.238 195.386C227.418 195.244 227.606 195.132 227.802 195.049C228.002 194.966 228.197 194.924 228.388 194.924C228.471 194.924 228.554 194.932 228.637 194.946C228.725 194.956 228.805 194.971 228.878 194.99C228.952 195.005 229.015 195.025 229.069 195.049C229.127 195.068 229.171 195.093 229.201 195.122C229.23 195.151 229.245 195.198 229.245 195.261ZM236.02 197.437C236.02 197.798 235.985 198.167 235.917 198.543C235.849 198.919 235.744 199.282 235.602 199.634C235.465 199.981 235.29 200.308 235.075 200.615C234.86 200.923 234.606 201.192 234.313 201.421C234.025 201.651 233.695 201.834 233.324 201.97C232.958 202.102 232.548 202.168 232.094 202.168C231.625 202.168 231.222 202.112 230.885 202C230.553 201.887 230.28 201.724 230.065 201.509C229.85 201.294 229.691 201.03 229.589 200.718C229.486 200.405 229.435 200.051 229.435 199.656C229.435 199.295 229.467 198.926 229.53 198.55C229.599 198.174 229.704 197.813 229.845 197.466C229.987 197.119 230.163 196.792 230.373 196.484C230.587 196.172 230.839 195.901 231.127 195.672C231.42 195.442 231.75 195.261 232.116 195.13C232.487 194.993 232.899 194.924 233.354 194.924C233.822 194.924 234.223 194.983 234.555 195.1C234.892 195.213 235.167 195.376 235.382 195.591C235.602 195.806 235.763 196.069 235.866 196.382C235.968 196.694 236.02 197.046 236.02 197.437ZM234.745 197.51C234.745 197.266 234.718 197.046 234.665 196.851C234.616 196.655 234.53 196.492 234.408 196.36C234.291 196.223 234.135 196.118 233.939 196.045C233.749 195.972 233.517 195.935 233.244 195.935C232.951 195.935 232.685 195.989 232.445 196.096C232.206 196.199 231.991 196.34 231.801 196.521C231.615 196.697 231.452 196.904 231.31 197.144C231.173 197.383 231.059 197.639 230.966 197.913C230.878 198.181 230.812 198.46 230.768 198.748C230.724 199.031 230.702 199.309 230.702 199.583C230.702 199.827 230.729 200.047 230.783 200.242C230.836 200.437 230.922 200.603 231.039 200.74C231.161 200.877 231.317 200.982 231.508 201.055C231.698 201.128 231.93 201.165 232.204 201.165C232.501 201.165 232.768 201.113 233.002 201.011C233.241 200.903 233.454 200.759 233.639 200.579C233.83 200.398 233.993 200.188 234.13 199.949C234.271 199.71 234.386 199.453 234.474 199.18C234.567 198.906 234.635 198.628 234.679 198.345C234.723 198.062 234.745 197.783 234.745 197.51ZM243.483 196.712C243.483 196.882 243.473 197.051 243.454 197.217C243.434 197.383 243.407 197.554 243.373 197.73L242.545 201.846C242.536 201.885 242.519 201.919 242.494 201.948C242.475 201.973 242.438 201.995 242.384 202.014C242.335 202.034 242.272 202.048 242.194 202.058C242.116 202.068 242.016 202.073 241.894 202.073C241.776 202.073 241.679 202.068 241.601 202.058C241.527 202.048 241.469 202.034 241.425 202.014C241.386 201.995 241.359 201.973 241.344 201.948C241.334 201.919 241.332 201.885 241.337 201.846L242.15 197.774C242.184 197.622 242.206 197.476 242.216 197.334C242.23 197.193 242.238 197.068 242.238 196.961C242.238 196.663 242.174 196.423 242.047 196.243C241.92 196.057 241.708 195.964 241.41 195.964C241.151 195.964 240.885 196.04 240.612 196.192C240.343 196.338 240.092 196.543 239.857 196.807C239.628 197.066 239.42 197.376 239.235 197.737C239.054 198.093 238.922 198.482 238.839 198.901L238.253 201.846C238.244 201.885 238.227 201.919 238.202 201.948C238.178 201.973 238.141 201.995 238.092 202.014C238.043 202.034 237.978 202.048 237.895 202.058C237.816 202.068 237.719 202.073 237.602 202.073C237.479 202.073 237.379 202.068 237.301 202.058C237.228 202.048 237.169 202.034 237.125 202.014C237.086 201.995 237.06 201.973 237.045 201.948C237.035 201.919 237.035 201.885 237.045 201.846L238.371 195.247C238.375 195.213 238.388 195.181 238.407 195.151C238.432 195.122 238.466 195.098 238.51 195.078C238.559 195.059 238.617 195.047 238.686 195.042C238.759 195.032 238.844 195.027 238.942 195.027C239.044 195.027 239.127 195.032 239.191 195.042C239.259 195.047 239.311 195.059 239.345 195.078C239.384 195.098 239.408 195.122 239.418 195.151C239.428 195.181 239.43 195.213 239.425 195.247L239.176 196.506C239.25 196.34 239.369 196.165 239.535 195.979C239.701 195.794 239.899 195.623 240.128 195.466C240.358 195.31 240.609 195.181 240.883 195.078C241.161 194.976 241.449 194.924 241.747 194.924C242.074 194.924 242.348 194.976 242.567 195.078C242.787 195.176 242.965 195.308 243.102 195.474C243.239 195.635 243.336 195.823 243.395 196.038C243.454 196.253 243.483 196.477 243.483 196.712ZM254.418 201.846C254.413 201.885 254.398 201.919 254.374 201.948C254.35 201.973 254.311 201.995 254.257 202.014C254.208 202.034 254.142 202.048 254.059 202.058C253.981 202.068 253.883 202.073 253.766 202.073C253.649 202.073 253.551 202.068 253.473 202.058C253.4 202.048 253.341 202.034 253.297 202.014C253.258 201.995 253.231 201.973 253.217 201.948C253.202 201.919 253.2 201.885 253.209 201.846L254.022 197.774C254.047 197.632 254.066 197.498 254.081 197.371C254.101 197.244 254.11 197.117 254.11 196.99C254.11 196.677 254.049 196.428 253.927 196.243C253.81 196.057 253.603 195.964 253.305 195.964C253.061 195.964 252.807 196.04 252.543 196.192C252.284 196.338 252.038 196.543 251.803 196.807C251.569 197.066 251.361 197.376 251.181 197.737C251 198.093 250.868 198.482 250.785 198.901L250.199 201.846C250.189 201.885 250.172 201.919 250.148 201.948C250.124 201.973 250.084 201.995 250.031 202.014C249.982 202.034 249.916 202.048 249.833 202.058C249.755 202.068 249.657 202.073 249.54 202.073C249.423 202.073 249.325 202.068 249.247 202.058C249.174 202.048 249.118 202.034 249.079 202.014C249.04 201.995 249.013 201.973 248.998 201.948C248.983 201.919 248.979 201.885 248.983 201.846L249.796 197.774C249.831 197.627 249.853 197.483 249.862 197.341C249.877 197.2 249.884 197.068 249.884 196.946C249.884 196.648 249.823 196.411 249.701 196.235C249.579 196.055 249.372 195.964 249.079 195.964C248.83 195.964 248.576 196.04 248.317 196.192C248.058 196.338 247.812 196.543 247.577 196.807C247.343 197.066 247.135 197.376 246.955 197.737C246.774 198.093 246.642 198.482 246.559 198.901L245.973 201.846C245.963 201.885 245.946 201.919 245.922 201.948C245.897 201.973 245.861 201.995 245.812 202.014C245.763 202.034 245.697 202.048 245.614 202.058C245.536 202.068 245.438 202.073 245.321 202.073C245.199 202.073 245.099 202.068 245.021 202.058C244.948 202.048 244.889 202.034 244.845 202.014C244.806 201.995 244.779 201.973 244.765 201.948C244.755 201.919 244.755 201.885 244.765 201.846L246.09 195.247C246.095 195.213 246.107 195.181 246.127 195.151C246.151 195.122 246.186 195.098 246.229 195.078C246.278 195.059 246.337 195.047 246.405 195.042C246.479 195.032 246.564 195.027 246.662 195.027C246.764 195.027 246.847 195.032 246.911 195.042C246.979 195.047 247.03 195.059 247.064 195.078C247.104 195.098 247.128 195.122 247.138 195.151C247.147 195.181 247.15 195.213 247.145 195.247L246.896 196.506C246.969 196.34 247.089 196.165 247.255 195.979C247.426 195.794 247.624 195.623 247.848 195.466C248.073 195.31 248.317 195.181 248.581 195.078C248.849 194.976 249.123 194.924 249.401 194.924C249.694 194.924 249.945 194.966 250.155 195.049C250.365 195.127 250.536 195.237 250.668 195.379C250.805 195.515 250.905 195.681 250.968 195.877C251.032 196.067 251.071 196.277 251.085 196.506C251.183 196.336 251.317 196.157 251.488 195.972C251.659 195.786 251.857 195.618 252.082 195.466C252.306 195.31 252.55 195.181 252.814 195.078C253.078 194.976 253.346 194.924 253.62 194.924C253.947 194.924 254.22 194.971 254.44 195.064C254.66 195.156 254.838 195.283 254.975 195.444C255.111 195.606 255.209 195.794 255.268 196.008C255.326 196.223 255.355 196.458 255.355 196.712C255.355 196.882 255.346 197.051 255.326 197.217C255.307 197.383 255.28 197.554 255.246 197.73L254.418 201.846ZM262.929 196.602C262.929 196.939 262.851 197.241 262.694 197.51C262.538 197.778 262.294 198.008 261.962 198.198C261.63 198.389 261.205 198.535 260.688 198.638C260.17 198.74 259.55 198.792 258.827 198.792H258.051C258.017 198.953 257.992 199.109 257.978 199.26C257.968 199.412 257.963 199.553 257.963 199.685C257.963 200.173 258.083 200.547 258.322 200.806C258.566 201.065 258.959 201.194 259.501 201.194C259.813 201.194 260.094 201.172 260.343 201.128C260.592 201.079 260.807 201.028 260.988 200.974C261.173 200.921 261.325 200.872 261.442 200.828C261.559 200.779 261.64 200.755 261.684 200.755C261.728 200.755 261.759 200.772 261.779 200.806C261.803 200.835 261.815 200.879 261.815 200.938C261.815 200.986 261.811 201.045 261.801 201.113C261.791 201.182 261.776 201.253 261.757 201.326C261.737 201.394 261.71 201.46 261.676 201.524C261.647 201.587 261.613 201.641 261.574 201.685C261.515 201.743 261.41 201.802 261.259 201.86C261.112 201.914 260.937 201.965 260.731 202.014C260.526 202.058 260.302 202.095 260.058 202.124C259.813 202.153 259.569 202.168 259.325 202.168C258.891 202.168 258.51 202.119 258.183 202.022C257.855 201.924 257.582 201.775 257.362 201.575C257.147 201.37 256.986 201.116 256.879 200.813C256.771 200.51 256.718 200.154 256.718 199.744C256.718 199.426 256.747 199.087 256.806 198.726C256.869 198.359 256.967 197.998 257.099 197.642C257.23 197.285 257.401 196.943 257.611 196.616C257.821 196.289 258.07 196.001 258.358 195.752C258.651 195.503 258.988 195.303 259.369 195.151C259.75 195 260.18 194.924 260.658 194.924C261.068 194.924 261.415 194.976 261.698 195.078C261.986 195.181 262.221 195.313 262.401 195.474C262.587 195.635 262.721 195.816 262.804 196.016C262.887 196.211 262.929 196.406 262.929 196.602ZM261.691 196.712C261.691 196.463 261.593 196.262 261.398 196.111C261.203 195.955 260.924 195.877 260.563 195.877C260.246 195.877 259.965 195.933 259.721 196.045C259.477 196.152 259.259 196.299 259.069 196.484C258.883 196.67 258.722 196.887 258.585 197.136C258.454 197.38 258.346 197.639 258.263 197.913H259.01C259.523 197.913 259.95 197.881 260.292 197.818C260.639 197.754 260.915 197.669 261.12 197.561C261.33 197.449 261.476 197.319 261.559 197.173C261.647 197.026 261.691 196.873 261.691 196.712ZM270.231 196.712C270.231 196.882 270.221 197.051 270.202 197.217C270.182 197.383 270.155 197.554 270.121 197.73L269.293 201.846C269.284 201.885 269.267 201.919 269.242 201.948C269.223 201.973 269.186 201.995 269.132 202.014C269.083 202.034 269.02 202.048 268.942 202.058C268.864 202.068 268.764 202.073 268.642 202.073C268.524 202.073 268.427 202.068 268.349 202.058C268.275 202.048 268.217 202.034 268.173 202.014C268.134 201.995 268.107 201.973 268.092 201.948C268.083 201.919 268.08 201.885 268.085 201.846L268.898 197.774C268.932 197.622 268.954 197.476 268.964 197.334C268.979 197.193 268.986 197.068 268.986 196.961C268.986 196.663 268.922 196.423 268.795 196.243C268.668 196.057 268.456 195.964 268.158 195.964C267.899 195.964 267.633 196.04 267.36 196.192C267.091 196.338 266.84 196.543 266.605 196.807C266.376 197.066 266.168 197.376 265.983 197.737C265.802 198.093 265.67 198.482 265.587 198.901L265.001 201.846C264.992 201.885 264.975 201.919 264.95 201.948C264.926 201.973 264.889 201.995 264.84 202.014C264.792 202.034 264.726 202.048 264.643 202.058C264.564 202.068 264.467 202.073 264.35 202.073C264.228 202.073 264.127 202.068 264.049 202.058C263.976 202.048 263.917 202.034 263.874 202.014C263.834 201.995 263.808 201.973 263.793 201.948C263.783 201.919 263.783 201.885 263.793 201.846L265.119 195.247C265.124 195.213 265.136 195.181 265.155 195.151C265.18 195.122 265.214 195.098 265.258 195.078C265.307 195.059 265.365 195.047 265.434 195.042C265.507 195.032 265.592 195.027 265.69 195.027C265.792 195.027 265.875 195.032 265.939 195.042C266.007 195.047 266.059 195.059 266.093 195.078C266.132 195.098 266.156 195.122 266.166 195.151C266.176 195.181 266.178 195.213 266.173 195.247L265.924 196.506C265.998 196.34 266.117 196.165 266.283 195.979C266.449 195.794 266.647 195.623 266.876 195.466C267.106 195.31 267.357 195.181 267.631 195.078C267.909 194.976 268.197 194.924 268.495 194.924C268.822 194.924 269.096 194.976 269.315 195.078C269.535 195.176 269.713 195.308 269.85 195.474C269.987 195.635 270.084 195.823 270.143 196.038C270.202 196.253 270.231 196.477 270.231 196.712ZM276.083 195.327C276.083 195.371 276.081 195.42 276.076 195.474C276.071 195.523 276.061 195.574 276.046 195.628C276.032 195.681 276.012 195.735 275.988 195.789C275.963 195.842 275.937 195.891 275.907 195.935C275.883 195.974 275.854 196.006 275.819 196.03C275.785 196.055 275.746 196.067 275.702 196.067H274.018L273.278 199.744C273.258 199.846 273.241 199.961 273.227 200.088C273.212 200.215 273.205 200.32 273.205 200.403C273.205 200.652 273.256 200.835 273.358 200.952C273.466 201.065 273.637 201.121 273.871 201.121C274.003 201.121 274.118 201.111 274.215 201.091C274.313 201.067 274.396 201.043 274.464 201.018C274.538 200.994 274.601 200.972 274.655 200.952C274.708 200.928 274.755 200.916 274.794 200.916C274.833 200.916 274.862 200.93 274.882 200.96C274.906 200.984 274.918 201.033 274.918 201.106C274.918 201.17 274.911 201.24 274.896 201.318C274.887 201.392 274.872 201.465 274.853 201.538C274.833 201.611 274.809 201.677 274.779 201.736C274.75 201.795 274.718 201.841 274.684 201.875C274.645 201.909 274.586 201.943 274.508 201.978C274.43 202.012 274.34 202.041 274.237 202.066C274.135 202.095 274.025 202.117 273.908 202.131C273.795 202.146 273.683 202.153 273.571 202.153C273.297 202.153 273.061 202.124 272.86 202.066C272.66 202.007 272.492 201.917 272.355 201.795C272.218 201.668 272.116 201.511 272.047 201.326C271.984 201.135 271.952 200.908 271.952 200.645C271.952 200.586 271.955 200.523 271.959 200.454C271.964 200.381 271.972 200.305 271.981 200.227C271.996 200.149 272.008 200.071 272.018 199.993C272.033 199.915 272.047 199.841 272.062 199.773L272.802 196.067H271.886C271.833 196.067 271.791 196.052 271.762 196.023C271.732 195.989 271.718 195.925 271.718 195.833C271.718 195.764 271.725 195.686 271.74 195.598C271.754 195.505 271.776 195.42 271.806 195.342C271.835 195.264 271.872 195.198 271.916 195.144C271.964 195.09 272.021 195.064 272.084 195.064H273.007L273.322 193.496C273.327 193.462 273.341 193.43 273.366 193.401C273.395 193.372 273.434 193.347 273.483 193.328C273.532 193.303 273.595 193.286 273.673 193.276C273.756 193.267 273.856 193.262 273.974 193.262C274.091 193.262 274.186 193.267 274.259 193.276C274.337 193.286 274.396 193.303 274.435 193.328C274.479 193.347 274.506 193.372 274.516 193.401C274.53 193.43 274.535 193.462 274.53 193.496L274.215 195.064H275.9C275.973 195.064 276.022 195.09 276.046 195.144C276.071 195.198 276.083 195.259 276.083 195.327Z" fill="white"/>
<path d="M1.06 180.87L6.3 181.65C6.52 183.27 7.13 184.44 8.13 185.18C9.47 186.18 11.29 186.68 13.61 186.68C16.11 186.68 18.03 186.18 19.39 185.18C20.75 184.18 21.67 182.78 22.15 180.99C22.43 179.89 22.56 177.59 22.54 174.07C20.18 176.85 17.25 178.23 13.74 178.23C9.37 178.23 5.98 176.65 3.59 173.5C1.19 170.35 0 166.56 0 162.15C0 159.11 0.55 156.31 1.65 153.75C2.75 151.18 4.34 149.2 6.43 147.8C8.52 146.4 10.97 145.7 13.78 145.7C17.53 145.7 20.63 147.22 23.06 150.25V146.42H28.03V173.91C28.03 178.86 27.53 182.37 26.52 184.44C25.51 186.51 23.91 188.14 21.73 189.34C19.54 190.54 16.85 191.14 13.66 191.14C9.87 191.14 6.8 190.29 4.47 188.58C2.11 186.87 0.979999 184.3 1.06 180.87ZM5.1 161.42C5.1 165.8 5.97 169 7.71 171.01C9.45 173.02 11.63 174.03 14.25 174.03C16.85 174.03 19.03 173.03 20.79 171.03C22.55 169.03 23.43 165.89 23.43 161.61C23.43 157.52 22.52 154.44 20.71 152.36C18.9 150.28 16.71 149.25 14.15 149.25C11.63 149.25 9.5 150.27 7.73 152.32C5.98 154.36 5.1 157.4 5.1 161.42Z" fill="white"/>
<path d="M73.18 167.14L78.54 167.8C77.69 170.93 76.13 173.36 73.84 175.09C71.55 176.82 68.63 177.68 65.08 177.68C60.6 177.68 57.06 176.3 54.43 173.55C51.81 170.79 50.5 166.93 50.5 161.95C50.5 156.8 51.83 152.81 54.48 149.97C57.13 147.13 60.57 145.71 64.79 145.71C68.88 145.71 72.22 147.1 74.82 149.89C77.41 152.68 78.71 156.59 78.71 161.64C78.71 161.95 78.7 162.41 78.68 163.02H55.87C55.9 163.54 57.17 169.12 58.72 170.74C60.43 172.53 62.56 173.42 65.12 173.42C67.02 173.42 68.64 172.92 69.99 171.92C71.33 170.92 72.39 169.33 73.18 167.14ZM56.16 158.76H73.24C73.01 156.19 72.36 154.26 71.28 152.97C69.63 150.97 67.49 149.97 64.86 149.97C62.48 149.97 60.48 150.77 58.85 152.36C57.23 153.95 56.33 156.09 56.16 158.76Z" fill="white"/>
<path d="M103.27 177.34V146.75H107.94V151.1C110.19 147.74 113.43 146.06 117.68 146.06C119.52 146.06 121.22 146.39 122.76 147.05C124.31 147.71 125.46 148.58 126.23 149.66C127 150.74 127.54 152.01 127.84 153.49C128.03 154.45 128.13 156.13 128.13 158.53V177.34H122.94V158.73C122.94 156.62 122.74 155.04 122.34 153.99C121.94 152.94 121.22 152.11 120.19 151.48C119.16 150.86 117.96 150.54 116.57 150.54C114.36 150.54 112.45 151.24 110.85 152.64C109.25 154.04 108.44 156.7 108.44 160.62V177.33H103.27V177.34Z" fill="white"/>
<path d="M176.77 167.14L182.13 167.8C181.28 170.93 179.72 173.36 177.43 175.09C175.14 176.82 172.22 177.68 168.67 177.68C164.2 177.68 160.65 176.3 158.03 173.55C155.41 170.79 154.1 166.93 154.1 161.95C154.1 156.8 155.43 152.81 158.08 149.97C160.73 147.13 164.17 145.71 168.39 145.71C172.48 145.71 175.82 147.1 178.42 149.89C181.01 152.68 182.31 156.59 182.31 161.64C182.31 161.95 182.3 162.41 182.28 163.02H159.46C159.65 166.38 160.6 168.96 162.31 170.74C164.02 172.53 166.15 173.42 168.71 173.42C170.61 173.42 172.23 172.92 173.58 171.92C174.91 170.92 175.98 169.33 176.77 167.14ZM159.74 158.76H176.82C176.59 156.19 175.94 154.26 174.86 152.97C173.21 150.97 171.07 149.97 168.44 149.97C166.06 149.97 164.06 150.77 162.43 152.36C160.81 153.95 159.91 156.09 159.74 158.76Z" fill="white"/>
<path d="M205.29 167.86L210.42 167.05C210.71 169.11 211.51 170.68 212.83 171.77C214.14 172.87 215.98 173.41 218.35 173.41C220.73 173.41 222.5 172.93 223.65 171.95C224.8 170.98 225.38 169.84 225.38 168.54C225.38 167.37 224.87 166.45 223.85 165.77C223.14 165.31 221.37 164.72 218.55 164.01C214.75 163.05 212.11 162.22 210.64 161.52C209.17 160.82 208.06 159.85 207.3 158.61C206.54 157.37 206.16 156 206.16 154.5C206.16 153.14 206.47 151.87 207.1 150.71C207.73 149.55 208.57 148.58 209.65 147.81C210.46 147.22 211.56 146.71 212.95 146.3C214.34 145.89 215.83 145.68 217.43 145.68C219.83 145.68 221.94 146.03 223.75 146.72C225.57 147.41 226.9 148.35 227.77 149.53C228.63 150.71 229.23 152.29 229.56 154.27L224.49 154.96C224.26 153.39 223.59 152.16 222.49 151.27C221.39 150.39 219.82 149.94 217.81 149.94C215.43 149.94 213.73 150.33 212.71 151.12C211.69 151.91 211.18 152.83 211.18 153.89C211.18 154.56 211.39 155.17 211.81 155.71C212.23 156.27 212.89 156.73 213.8 157.09C214.32 157.28 215.84 157.72 218.38 158.42C222.05 159.4 224.61 160.2 226.06 160.83C227.51 161.45 228.65 162.36 229.47 163.55C230.3 164.74 230.71 166.22 230.71 167.99C230.71 169.72 230.21 171.35 229.2 172.87C228.19 174.4 226.74 175.58 224.83 176.41C222.93 177.24 220.78 177.66 218.38 177.66C214.4 177.66 211.38 176.83 209.29 175.18C207.19 173.55 205.86 171.11 205.29 167.86Z" fill="white"/>
<path d="M286.61 167.86L291.74 167.05C292.03 169.11 292.83 170.68 294.15 171.77C295.46 172.87 297.3 173.41 299.67 173.41C302.05 173.41 303.82 172.93 304.97 171.95C306.12 170.98 306.7 169.84 306.7 168.54C306.7 167.37 306.19 166.45 305.17 165.77C304.46 165.31 302.69 164.72 299.87 164.01C296.07 163.05 293.43 162.22 291.96 161.52C290.49 160.82 289.38 159.85 288.62 158.61C287.86 157.37 287.48 156 287.48 154.5C287.48 153.14 287.79 151.87 288.42 150.71C289.05 149.55 289.89 148.58 290.97 147.81C291.78 147.22 292.88 146.71 294.27 146.3C295.66 145.89 297.15 145.68 298.75 145.68C301.15 145.68 303.26 146.03 305.07 146.72C306.89 147.41 308.22 148.35 309.09 149.53C309.95 150.71 310.55 152.29 310.88 154.27L305.81 154.96C305.58 153.39 304.91 152.16 303.81 151.27C302.71 150.39 301.14 149.94 299.13 149.94C296.75 149.94 295.05 150.33 294.03 151.12C293.01 151.91 292.5 152.83 292.5 153.89C292.5 154.56 292.71 155.17 293.13 155.71C293.55 156.27 294.21 156.73 295.12 157.09C295.64 157.28 297.16 157.72 299.7 158.42C303.37 159.4 305.93 160.2 307.38 160.83C308.83 161.45 309.97 162.36 310.79 163.55C311.62 164.74 312.03 166.22 312.03 167.99C312.03 169.72 311.53 171.35 310.52 172.87C309.51 174.4 308.06 175.58 306.15 176.41C304.25 177.24 302.1 177.66 299.7 177.66C295.72 177.66 292.7 176.83 290.61 175.18C288.51 173.55 287.18 171.11 286.61 167.86Z" fill="white"/>
<path d="M254.44 141.41V135.45H259.63V141.41H254.44ZM254.44 177.68V147.09H259.63V177.68H254.44Z" fill="white"/>
<path d="M157 125.42C190.529 125.42 217.71 98.2392 217.71 64.71C217.71 31.1808 190.529 4 157 4C123.471 4 96.29 31.1808 96.29 64.71C96.29 98.2392 123.471 125.42 157 125.42Z" stroke="white" stroke-width="8" stroke-miterlimit="10"/>
<path d="M166.19 63.21C169.81 59.6 172.04 54.61 172.04 49.11C172.04 44.91 170.74 41.01 168.51 37.8H173.19L181.79 29.2H152.12C141.12 29.2 132.21 38.11 132.21 49.11C132.21 56.39 136.11 62.75 141.93 66.23C144.88 67.99 148.32 69.01 152.01 69.03C152.01 69.03 152.01 69.03 152.02 69.03H152.12C153.73 69.03 155.29 68.84 156.78 68.48H156.79C162.5 69.03 166.97 73.85 166.97 79.71C166.97 85.95 161.91 91 155.68 91C150.14 91 145.54 87.02 144.58 81.76L136.19 82.42V82.46C137.26 92.45 145.72 100.23 156 100.23C167 100.23 175.92 91.32 175.92 80.32C175.92 73.04 172.02 66.68 166.19 63.21ZM152.12 60.4C145.89 60.4 140.83 55.35 140.83 49.11C140.83 42.88 145.89 37.82 152.12 37.82C158.36 37.82 163.41 42.88 163.41 49.11C163.41 55.35 158.36 60.4 152.12 60.4Z" fill="white" stroke="white" stroke-width="3" stroke-miterlimit="10"/>
</svg>
