<svg width="313" height="208" viewBox="0 0 313 208" fill="none" xmlns="http://www.w3.org/2000/svg">
<path d="M57.7295 193.263C57.7295 193.287 57.7271 193.327 57.7222 193.38C57.7222 193.429 57.7148 193.483 57.7002 193.541C57.6904 193.6 57.6758 193.661 57.6562 193.724C57.6416 193.788 57.6196 193.847 57.5903 193.9C57.561 193.949 57.5244 193.991 57.4805 194.025C57.4414 194.054 57.3975 194.069 57.3486 194.069H53.6499L53.0493 197.042H56.2354C56.2939 197.042 56.3379 197.062 56.3672 197.101C56.3965 197.14 56.4111 197.199 56.4111 197.277C56.4111 197.301 56.4062 197.34 56.3965 197.394C56.3916 197.443 56.3843 197.499 56.3745 197.562C56.3647 197.621 56.3501 197.68 56.3306 197.738C56.311 197.797 56.2866 197.85 56.2573 197.899C56.2329 197.943 56.2012 197.982 56.1621 198.016C56.123 198.046 56.0791 198.06 56.0303 198.06H52.8516L52.1631 201.452H55.9351C55.9839 201.452 56.0229 201.471 56.0522 201.51C56.0864 201.549 56.1035 201.61 56.1035 201.693C56.1035 201.723 56.1011 201.764 56.0962 201.818C56.0913 201.871 56.0815 201.928 56.0669 201.986C56.0571 202.045 56.0425 202.106 56.0229 202.169C56.0083 202.228 55.9863 202.284 55.957 202.338C55.9277 202.387 55.8911 202.426 55.8472 202.455C55.8081 202.484 55.7642 202.499 55.7153 202.499H51.1597C51.106 202.499 51.0522 202.492 50.9985 202.477C50.9497 202.457 50.9058 202.428 50.8667 202.389C50.8325 202.345 50.8081 202.291 50.7935 202.228C50.7788 202.16 50.7837 202.079 50.8081 201.986L52.5 193.534C52.5342 193.344 52.6099 193.212 52.7271 193.139C52.8442 193.06 52.959 193.021 53.0713 193.021H57.561C57.6733 193.021 57.7295 193.102 57.7295 193.263ZM60.1538 196.537L58.9014 202.777C58.8184 203.187 58.7061 203.541 58.5645 203.839C58.4229 204.142 58.2495 204.391 58.0444 204.586C57.8394 204.786 57.6025 204.933 57.334 205.026C57.0654 205.123 56.7627 205.172 56.4258 205.172C56.2061 205.172 56.0278 205.155 55.8911 205.121C55.7495 205.087 55.6616 205.055 55.6274 205.026C55.6079 205.001 55.5933 204.974 55.5835 204.945C55.5737 204.916 55.5688 204.877 55.5688 204.828C55.5688 204.808 55.5737 204.774 55.5835 204.725C55.5884 204.681 55.5957 204.633 55.6055 204.579C55.6152 204.53 55.6274 204.476 55.6421 204.418C55.6567 204.364 55.6738 204.313 55.6934 204.264C55.7129 204.215 55.7349 204.176 55.7593 204.147C55.7837 204.118 55.813 204.103 55.8472 204.103C55.8813 204.103 55.9155 204.105 55.9497 204.11C55.979 204.12 56.0132 204.127 56.0522 204.132C56.0864 204.142 56.1304 204.149 56.1841 204.154C56.2329 204.164 56.2964 204.169 56.3745 204.169C56.5796 204.169 56.7578 204.137 56.9092 204.074C57.0557 204.01 57.1802 203.91 57.2827 203.773C57.3901 203.641 57.478 203.473 57.5464 203.268C57.6196 203.063 57.6855 202.816 57.7441 202.528L58.9453 196.537H58.0078C57.959 196.537 57.9199 196.522 57.8906 196.493C57.8662 196.459 57.854 196.398 57.854 196.31C57.854 196.271 57.8564 196.224 57.8613 196.171C57.8662 196.112 57.8735 196.054 57.8833 195.995C57.8979 195.936 57.915 195.88 57.9346 195.827C57.9541 195.773 57.9785 195.724 58.0078 195.68C58.0371 195.636 58.0664 195.602 58.0957 195.577C58.1299 195.548 58.1714 195.534 58.2202 195.534H59.1431L59.3115 194.713C59.3945 194.308 59.5068 193.956 59.6484 193.659C59.7949 193.361 59.9707 193.114 60.1758 192.919C60.3857 192.719 60.625 192.57 60.8936 192.472C61.167 192.374 61.4697 192.326 61.8018 192.326C61.9092 192.326 62.019 192.333 62.1313 192.348C62.2485 192.357 62.356 192.374 62.4536 192.399C62.5562 192.418 62.6465 192.443 62.7246 192.472C62.8027 192.501 62.8564 192.531 62.8857 192.56C62.9102 192.584 62.9297 192.618 62.9443 192.662C62.959 192.706 62.9663 192.753 62.9663 192.802C62.9663 192.821 62.9639 192.853 62.959 192.897C62.9541 192.936 62.9468 192.982 62.937 193.036C62.9321 193.085 62.9224 193.139 62.9077 193.197C62.8931 193.256 62.876 193.309 62.8564 193.358C62.8369 193.402 62.8149 193.439 62.7905 193.468C62.7661 193.497 62.7393 193.512 62.71 193.512C62.6758 193.512 62.6318 193.502 62.5781 193.483C62.5293 193.463 62.4707 193.444 62.4023 193.424C62.334 193.4 62.2534 193.378 62.1606 193.358C62.0679 193.339 61.9678 193.329 61.8604 193.329C61.6455 193.329 61.4624 193.361 61.311 193.424C61.1646 193.488 61.0376 193.588 60.9302 193.724C60.8276 193.856 60.7373 194.025 60.6592 194.23C60.5859 194.435 60.5225 194.677 60.4688 194.955L60.3589 195.534H63.3252L63.501 194.633C63.584 194.227 63.6963 193.876 63.8379 193.578C63.9844 193.275 64.1602 193.026 64.3652 192.831C64.5703 192.631 64.8071 192.482 65.0757 192.384C65.3442 192.286 65.647 192.238 65.9839 192.238C66.0962 192.238 66.2061 192.245 66.3135 192.26C66.4209 192.269 66.5186 192.286 66.6064 192.311C66.6943 192.33 66.77 192.352 66.8335 192.377C66.897 192.401 66.9434 192.428 66.9727 192.457C66.9971 192.482 67.0117 192.514 67.0166 192.553C67.0215 192.592 67.0239 192.636 67.0239 192.684C67.0239 192.699 67.0215 192.728 67.0166 192.772C67.0166 192.811 67.0117 192.858 67.002 192.911C66.9922 192.96 66.98 193.014 66.9653 193.073C66.9556 193.126 66.9409 193.178 66.9214 193.226C66.9019 193.27 66.8799 193.309 66.8555 193.344C66.8311 193.373 66.8042 193.388 66.7749 193.388C66.7358 193.388 66.6919 193.38 66.6431 193.366C66.5991 193.351 66.5454 193.336 66.4819 193.322C66.4233 193.302 66.355 193.285 66.2769 193.27C66.1987 193.251 66.106 193.241 65.9985 193.241C65.7935 193.241 65.6201 193.273 65.4785 193.336C65.3369 193.4 65.2148 193.5 65.1123 193.637C65.0098 193.768 64.9219 193.937 64.8486 194.142C64.7803 194.347 64.7168 194.589 64.6582 194.867L64.5337 195.534H68.335C68.4668 195.534 68.5522 195.568 68.5913 195.636C68.6353 195.7 68.6499 195.79 68.6353 195.907L67.3608 202.316C67.3462 202.355 67.3267 202.389 67.3022 202.418C67.2827 202.443 67.2461 202.465 67.1924 202.484C67.1436 202.504 67.0776 202.518 66.9946 202.528C66.9165 202.538 66.8188 202.543 66.7017 202.543C66.5796 202.543 66.4795 202.538 66.4014 202.528C66.3281 202.518 66.2695 202.504 66.2256 202.484C66.1865 202.465 66.1597 202.443 66.145 202.418C66.1353 202.389 66.1353 202.355 66.145 202.316L67.2949 196.537H64.3286L63.1274 202.521C63.0396 202.965 62.9224 203.348 62.7759 203.671C62.6343 203.998 62.4585 204.266 62.2485 204.476C62.0435 204.686 61.8018 204.84 61.5234 204.938C61.25 205.035 60.9399 205.084 60.5933 205.084C60.3442 205.084 60.1294 205.065 59.9487 205.026C59.7729 204.992 59.6558 204.943 59.5972 204.879C59.5532 204.84 59.5312 204.774 59.5312 204.681C59.5312 204.657 59.5337 204.62 59.5386 204.572C59.5435 204.528 59.5508 204.479 59.5605 204.425C59.5703 204.371 59.5825 204.315 59.5972 204.257C59.6118 204.203 59.6289 204.152 59.6484 204.103C59.6729 204.059 59.6973 204.022 59.7217 203.993C59.751 203.964 59.7827 203.949 59.8169 203.949C59.8511 203.949 59.8901 203.954 59.9341 203.964C59.9829 203.978 60.0366 203.993 60.0952 204.008C60.1587 204.027 60.2295 204.044 60.3076 204.059C60.3857 204.074 60.4736 204.081 60.5713 204.081C60.7715 204.081 60.9448 204.049 61.0913 203.986C61.2378 203.922 61.3623 203.827 61.4648 203.7C61.5723 203.573 61.6626 203.41 61.7358 203.209C61.8091 203.009 61.8726 202.772 61.9263 202.499L63.1201 196.537H60.1538ZM69.2505 193.505C69.2261 193.641 69.1919 193.756 69.1479 193.849C69.1089 193.942 69.0552 194.017 68.9868 194.076C68.9185 194.13 68.833 194.169 68.7305 194.193C68.6328 194.218 68.5107 194.23 68.3643 194.23C68.2178 194.23 68.0981 194.218 68.0054 194.193C67.9175 194.169 67.8516 194.13 67.8076 194.076C67.7637 194.017 67.7393 193.942 67.7344 193.849C67.7344 193.756 67.7466 193.641 67.771 193.505C67.8003 193.368 67.8345 193.256 67.8735 193.168C67.9175 193.075 67.9712 192.999 68.0347 192.941C68.103 192.877 68.1885 192.836 68.291 192.816C68.3936 192.792 68.5181 192.78 68.6646 192.78C68.8062 192.78 68.9209 192.792 69.0088 192.816C69.1016 192.836 69.1699 192.877 69.2139 192.941C69.2578 192.999 69.2822 193.075 69.2871 193.168C69.292 193.256 69.2798 193.368 69.2505 193.505ZM75.3662 196.303C75.3662 196.39 75.3564 196.481 75.3369 196.574C75.3223 196.666 75.2979 196.754 75.2637 196.837C75.2295 196.915 75.188 196.981 75.1392 197.035C75.0952 197.089 75.0439 197.116 74.9854 197.116C74.917 197.116 74.8462 197.081 74.7729 197.013C74.6997 196.94 74.6021 196.859 74.48 196.771C74.3628 196.683 74.2114 196.603 74.0259 196.53C73.8452 196.456 73.6133 196.42 73.3301 196.42C73.0176 196.42 72.7393 196.486 72.4951 196.618C72.2559 196.744 72.0459 196.913 71.8652 197.123C71.6895 197.328 71.543 197.562 71.4258 197.826C71.3086 198.09 71.2134 198.356 71.1401 198.624C71.0669 198.893 71.0132 199.154 70.979 199.408C70.9497 199.657 70.9351 199.874 70.9351 200.06C70.9351 200.563 71.0449 200.944 71.2646 201.202C71.4844 201.461 71.8115 201.591 72.2461 201.591C72.5635 201.591 72.8345 201.552 73.0591 201.473C73.2886 201.395 73.4814 201.307 73.6377 201.21C73.7988 201.107 73.9307 201.017 74.0332 200.939C74.1357 200.861 74.2261 200.822 74.3042 200.822C74.3433 200.822 74.3726 200.841 74.3921 200.88C74.4165 200.914 74.4287 200.966 74.4287 201.034C74.4287 201.093 74.4238 201.163 74.4141 201.246C74.4043 201.325 74.3872 201.408 74.3628 201.495C74.3433 201.578 74.3164 201.657 74.2822 201.73C74.2529 201.803 74.209 201.871 74.1504 201.935C74.0918 201.993 73.9893 202.067 73.8428 202.155C73.6963 202.243 73.5254 202.323 73.3301 202.396C73.1396 202.465 72.9321 202.521 72.7075 202.565C72.4829 202.614 72.251 202.638 72.0117 202.638C71.2256 202.638 70.6372 202.438 70.2466 202.037C69.8608 201.637 69.668 201.041 69.668 200.25C69.668 199.952 69.6924 199.628 69.7412 199.276C69.7949 198.92 69.8828 198.563 70.0049 198.207C70.127 197.846 70.2832 197.496 70.4736 197.16C70.6641 196.823 70.8984 196.525 71.1768 196.266C71.4551 196.002 71.7773 195.792 72.1436 195.636C72.5098 195.48 72.9297 195.402 73.4033 195.402C73.5986 195.402 73.7866 195.419 73.9673 195.453C74.1479 195.482 74.3164 195.524 74.4727 195.577C74.6338 195.631 74.7778 195.7 74.9048 195.783C75.0366 195.861 75.1367 195.931 75.2051 195.995C75.2783 196.058 75.3223 196.112 75.3369 196.156C75.3564 196.2 75.3662 196.249 75.3662 196.303ZM78.9331 193.505C78.9087 193.641 78.8745 193.756 78.8306 193.849C78.7915 193.942 78.7378 194.017 78.6694 194.076C78.6011 194.13 78.5156 194.169 78.4131 194.193C78.3105 194.218 78.186 194.23 78.0396 194.23C77.8979 194.23 77.7808 194.218 77.688 194.193C77.5952 194.169 77.5269 194.13 77.4829 194.076C77.439 194.017 77.4146 193.942 77.4097 193.849C77.4048 193.756 77.4146 193.641 77.439 193.505C77.4683 193.368 77.5049 193.256 77.5488 193.168C77.5928 193.075 77.6465 192.999 77.71 192.941C77.7783 192.877 77.8638 192.836 77.9663 192.816C78.0688 192.792 78.1934 192.78 78.3398 192.78C78.4814 192.78 78.5962 192.792 78.6841 192.816C78.7769 192.836 78.8452 192.877 78.8892 192.941C78.938 192.999 78.9648 193.075 78.9697 193.168C78.9746 193.256 78.9624 193.368 78.9331 193.505ZM77.0361 202.316C77.0264 202.355 77.0093 202.389 76.9849 202.418C76.9604 202.443 76.9238 202.465 76.875 202.484C76.8262 202.504 76.7603 202.518 76.6772 202.528C76.5991 202.538 76.5015 202.543 76.3843 202.543C76.2622 202.543 76.1621 202.538 76.084 202.528C76.0107 202.518 75.9521 202.504 75.9082 202.484C75.8691 202.465 75.8423 202.443 75.8276 202.418C75.8179 202.389 75.8179 202.355 75.8276 202.316L77.1387 195.724C77.1436 195.69 77.1582 195.658 77.1826 195.629C77.207 195.599 77.2437 195.575 77.2925 195.556C77.3413 195.536 77.4048 195.521 77.4829 195.512C77.5659 195.502 77.6685 195.497 77.7905 195.497C77.9077 195.497 78.0029 195.502 78.0762 195.512C78.1543 195.521 78.2129 195.536 78.252 195.556C78.2959 195.575 78.3228 195.599 78.3325 195.629C78.3472 195.658 78.3521 195.69 78.3472 195.724L77.0361 202.316ZM85.5688 197.072C85.5688 197.409 85.4907 197.711 85.3345 197.98C85.1782 198.248 84.9341 198.478 84.6021 198.668C84.27 198.859 83.8452 199.005 83.3276 199.108C82.8101 199.21 82.1899 199.262 81.4673 199.262H80.6909C80.6567 199.423 80.6323 199.579 80.6177 199.73C80.6079 199.882 80.603 200.023 80.603 200.155C80.603 200.643 80.7227 201.017 80.9619 201.276C81.2061 201.535 81.5991 201.664 82.1411 201.664C82.4536 201.664 82.7344 201.642 82.9834 201.598C83.2324 201.549 83.4473 201.498 83.6279 201.444C83.8135 201.39 83.9648 201.342 84.082 201.298C84.1992 201.249 84.2798 201.224 84.3237 201.224C84.3677 201.224 84.3994 201.242 84.4189 201.276C84.4434 201.305 84.4556 201.349 84.4556 201.408C84.4556 201.456 84.4507 201.515 84.4409 201.583C84.4312 201.652 84.4165 201.723 84.397 201.796C84.3774 201.864 84.3506 201.93 84.3164 201.993C84.2871 202.057 84.2529 202.111 84.2139 202.155C84.1553 202.213 84.0503 202.272 83.8989 202.33C83.7524 202.384 83.5767 202.435 83.3716 202.484C83.1665 202.528 82.9419 202.565 82.6978 202.594C82.4536 202.623 82.2095 202.638 81.9653 202.638C81.5308 202.638 81.1499 202.589 80.8228 202.492C80.4956 202.394 80.2222 202.245 80.0024 202.045C79.7876 201.84 79.6265 201.586 79.519 201.283C79.4116 200.98 79.3579 200.624 79.3579 200.214C79.3579 199.896 79.3872 199.557 79.4458 199.196C79.5093 198.829 79.6069 198.468 79.7388 198.112C79.8706 197.755 80.0415 197.413 80.2515 197.086C80.4614 196.759 80.7104 196.471 80.9985 196.222C81.2915 195.973 81.6284 195.773 82.0093 195.621C82.3901 195.47 82.8198 195.394 83.2983 195.394C83.7085 195.394 84.0552 195.446 84.3384 195.548C84.6265 195.651 84.8608 195.783 85.0415 195.944C85.2271 196.105 85.3613 196.285 85.4443 196.486C85.5273 196.681 85.5688 196.876 85.5688 197.072ZM84.3311 197.181C84.3311 196.932 84.2334 196.732 84.0381 196.581C83.8428 196.425 83.5645 196.347 83.2031 196.347C82.8857 196.347 82.605 196.403 82.3608 196.515C82.1167 196.622 81.8994 196.769 81.709 196.954C81.5234 197.14 81.3623 197.357 81.2256 197.606C81.0938 197.85 80.9863 198.109 80.9033 198.383H81.6504C82.1631 198.383 82.5903 198.351 82.9321 198.287C83.2788 198.224 83.5547 198.139 83.7598 198.031C83.9697 197.919 84.1162 197.789 84.1992 197.643C84.2871 197.496 84.3311 197.343 84.3311 197.181ZM92.8711 197.181C92.8711 197.352 92.8613 197.521 92.8418 197.687C92.8223 197.853 92.7954 198.024 92.7612 198.2L91.9336 202.316C91.9238 202.355 91.9067 202.389 91.8823 202.418C91.8628 202.443 91.8262 202.465 91.7725 202.484C91.7236 202.504 91.6602 202.518 91.582 202.528C91.5039 202.538 91.4038 202.543 91.2817 202.543C91.1646 202.543 91.0669 202.538 90.9888 202.528C90.9155 202.518 90.8569 202.504 90.813 202.484C90.7739 202.465 90.7471 202.443 90.7324 202.418C90.7227 202.389 90.7202 202.355 90.7251 202.316L91.5381 198.243C91.5723 198.092 91.5942 197.946 91.604 197.804C91.6187 197.662 91.626 197.538 91.626 197.431C91.626 197.133 91.5625 196.893 91.4355 196.713C91.3086 196.527 91.0962 196.434 90.7983 196.434C90.5396 196.434 90.2734 196.51 90 196.661C89.7314 196.808 89.48 197.013 89.2456 197.277C89.0161 197.535 88.8086 197.846 88.623 198.207C88.4424 198.563 88.3105 198.952 88.2275 199.371L87.6416 202.316C87.6318 202.355 87.6147 202.389 87.5903 202.418C87.5659 202.443 87.5293 202.465 87.4805 202.484C87.4316 202.504 87.3657 202.518 87.2827 202.528C87.2046 202.538 87.1069 202.543 86.9897 202.543C86.8677 202.543 86.7676 202.538 86.6895 202.528C86.6162 202.518 86.5576 202.504 86.5137 202.484C86.4746 202.465 86.4478 202.443 86.4331 202.418C86.4233 202.389 86.4233 202.355 86.4331 202.316L87.7588 195.717C87.7637 195.682 87.7759 195.651 87.7954 195.621C87.8198 195.592 87.854 195.568 87.8979 195.548C87.9468 195.529 88.0054 195.516 88.0737 195.512C88.147 195.502 88.2324 195.497 88.3301 195.497C88.4326 195.497 88.5156 195.502 88.5791 195.512C88.6475 195.516 88.6987 195.529 88.7329 195.548C88.772 195.568 88.7964 195.592 88.8062 195.621C88.8159 195.651 88.8184 195.682 88.8135 195.717L88.5645 196.976C88.6377 196.81 88.7573 196.635 88.9233 196.449C89.0894 196.264 89.2871 196.093 89.5166 195.936C89.7461 195.78 89.9976 195.651 90.271 195.548C90.5493 195.446 90.8374 195.394 91.1353 195.394C91.4624 195.394 91.7358 195.446 91.9556 195.548C92.1753 195.646 92.3535 195.778 92.4902 195.944C92.627 196.105 92.7246 196.293 92.7832 196.508C92.8418 196.723 92.8711 196.947 92.8711 197.181ZM99.9316 196.303C99.9316 196.39 99.9219 196.481 99.9023 196.574C99.8877 196.666 99.8633 196.754 99.8291 196.837C99.7949 196.915 99.7534 196.981 99.7046 197.035C99.6606 197.089 99.6094 197.116 99.5508 197.116C99.4824 197.116 99.4116 197.081 99.3384 197.013C99.2651 196.94 99.1675 196.859 99.0454 196.771C98.9282 196.683 98.7769 196.603 98.5913 196.53C98.4106 196.456 98.1787 196.42 97.8955 196.42C97.583 196.42 97.3047 196.486 97.0605 196.618C96.8213 196.744 96.6113 196.913 96.4307 197.123C96.2549 197.328 96.1084 197.562 95.9912 197.826C95.874 198.09 95.7788 198.356 95.7056 198.624C95.6323 198.893 95.5786 199.154 95.5444 199.408C95.5151 199.657 95.5005 199.874 95.5005 200.06C95.5005 200.563 95.6104 200.944 95.8301 201.202C96.0498 201.461 96.377 201.591 96.8115 201.591C97.1289 201.591 97.3999 201.552 97.6245 201.473C97.854 201.395 98.0469 201.307 98.2031 201.21C98.3643 201.107 98.4961 201.017 98.5986 200.939C98.7012 200.861 98.7915 200.822 98.8696 200.822C98.9087 200.822 98.938 200.841 98.9575 200.88C98.9819 200.914 98.9941 200.966 98.9941 201.034C98.9941 201.093 98.9893 201.163 98.9795 201.246C98.9697 201.325 98.9526 201.408 98.9282 201.495C98.9087 201.578 98.8818 201.657 98.8477 201.73C98.8184 201.803 98.7744 201.871 98.7158 201.935C98.6572 201.993 98.5547 202.067 98.4082 202.155C98.2617 202.243 98.0908 202.323 97.8955 202.396C97.7051 202.465 97.4976 202.521 97.2729 202.565C97.0483 202.614 96.8164 202.638 96.5771 202.638C95.791 202.638 95.2026 202.438 94.812 202.037C94.4263 201.637 94.2334 201.041 94.2334 200.25C94.2334 199.952 94.2578 199.628 94.3066 199.276C94.3604 198.92 94.4482 198.563 94.5703 198.207C94.6924 197.846 94.8486 197.496 95.0391 197.16C95.2295 196.823 95.4639 196.525 95.7422 196.266C96.0205 196.002 96.3428 195.792 96.709 195.636C97.0752 195.48 97.4951 195.402 97.9688 195.402C98.1641 195.402 98.3521 195.419 98.5327 195.453C98.7134 195.482 98.8818 195.524 99.0381 195.577C99.1992 195.631 99.3433 195.7 99.4702 195.783C99.6021 195.861 99.7021 195.931 99.7705 195.995C99.8438 196.058 99.8877 196.112 99.9023 196.156C99.9219 196.2 99.9316 196.249 99.9316 196.303ZM106.736 195.673C106.736 195.726 106.731 195.783 106.721 195.841C106.711 195.895 106.694 195.946 106.67 195.995C106.509 196.439 106.333 196.903 106.143 197.387C105.952 197.865 105.73 198.368 105.476 198.895C105.222 199.418 104.924 199.965 104.583 200.536C104.246 201.107 103.843 201.708 103.374 202.338L101.477 204.923C101.448 204.962 101.411 204.996 101.367 205.026C101.323 205.055 101.27 205.079 101.206 205.099C101.143 205.123 101.064 205.14 100.972 205.15C100.884 205.16 100.779 205.165 100.657 205.165C100.525 205.165 100.415 205.158 100.327 205.143C100.244 205.133 100.181 205.114 100.137 205.084C100.093 205.055 100.073 205.016 100.078 204.967C100.083 204.918 100.112 204.86 100.166 204.791L101.953 202.499L100.862 196.061C100.852 196.002 100.845 195.949 100.84 195.9C100.835 195.851 100.833 195.809 100.833 195.775C100.833 195.722 100.84 195.678 100.854 195.643C100.874 195.604 100.908 195.575 100.957 195.556C101.006 195.531 101.069 195.516 101.147 195.512C101.23 195.502 101.331 195.497 101.448 195.497C101.58 195.497 101.682 195.502 101.755 195.512C101.833 195.516 101.892 195.529 101.931 195.548C101.975 195.563 102.004 195.587 102.019 195.621C102.039 195.656 102.051 195.697 102.056 195.746L102.913 201.122H102.927C103.23 200.697 103.503 200.265 103.748 199.826C103.992 199.386 104.216 198.942 104.421 198.493C104.626 198.038 104.814 197.582 104.985 197.123C105.161 196.659 105.325 196.19 105.476 195.717C105.486 195.678 105.503 195.646 105.527 195.621C105.557 195.592 105.596 195.568 105.645 195.548C105.698 195.529 105.769 195.516 105.857 195.512C105.945 195.502 106.055 195.497 106.187 195.497C106.406 195.497 106.553 195.512 106.626 195.541C106.699 195.57 106.736 195.614 106.736 195.673ZM112.207 201.378C112.207 201.447 112.2 201.527 112.185 201.62C112.175 201.713 112.158 201.808 112.134 201.906C112.109 202.003 112.078 202.094 112.039 202.177C112.004 202.26 111.958 202.33 111.899 202.389C111.841 202.448 111.758 202.492 111.65 202.521C111.543 202.55 111.406 202.565 111.24 202.565C111.104 202.565 110.991 202.555 110.903 202.535C110.815 202.516 110.747 202.484 110.698 202.44C110.649 202.391 110.615 202.335 110.596 202.272C110.576 202.203 110.566 202.128 110.566 202.045C110.566 201.967 110.571 201.881 110.581 201.788C110.596 201.691 110.615 201.596 110.64 201.503C110.669 201.41 110.701 201.325 110.735 201.246C110.774 201.163 110.82 201.095 110.874 201.041C110.933 200.983 111.011 200.939 111.108 200.91C111.211 200.875 111.355 200.858 111.541 200.858C111.682 200.858 111.794 200.87 111.877 200.895C111.965 200.919 112.034 200.956 112.083 201.005C112.131 201.049 112.163 201.102 112.178 201.166C112.197 201.229 112.207 201.3 112.207 201.378ZM124.819 193.263C124.819 193.287 124.817 193.327 124.812 193.38C124.812 193.429 124.805 193.483 124.79 193.541C124.78 193.6 124.766 193.661 124.746 193.724C124.731 193.788 124.709 193.847 124.68 193.9C124.651 193.949 124.614 193.991 124.57 194.025C124.531 194.054 124.487 194.069 124.438 194.069H120.74L120.139 197.042H123.325C123.384 197.042 123.428 197.062 123.457 197.101C123.486 197.14 123.501 197.199 123.501 197.277C123.501 197.301 123.496 197.34 123.486 197.394C123.481 197.443 123.474 197.499 123.464 197.562C123.455 197.621 123.44 197.68 123.42 197.738C123.401 197.797 123.376 197.85 123.347 197.899C123.323 197.943 123.291 197.982 123.252 198.016C123.213 198.046 123.169 198.06 123.12 198.06H119.941L119.253 201.452H123.025C123.074 201.452 123.113 201.471 123.142 201.51C123.176 201.549 123.193 201.61 123.193 201.693C123.193 201.723 123.191 201.764 123.186 201.818C123.181 201.871 123.171 201.928 123.157 201.986C123.147 202.045 123.132 202.106 123.113 202.169C123.098 202.228 123.076 202.284 123.047 202.338C123.018 202.387 122.981 202.426 122.937 202.455C122.898 202.484 122.854 202.499 122.805 202.499H118.25C118.196 202.499 118.142 202.492 118.088 202.477C118.04 202.457 117.996 202.428 117.957 202.389C117.922 202.345 117.898 202.291 117.883 202.228C117.869 202.16 117.874 202.079 117.898 201.986L119.59 193.534C119.624 193.344 119.7 193.212 119.817 193.139C119.934 193.06 120.049 193.021 120.161 193.021H124.651C124.763 193.021 124.819 193.102 124.819 193.263ZM131.323 197.181C131.323 197.352 131.313 197.521 131.294 197.687C131.274 197.853 131.248 198.024 131.213 198.2L130.386 202.316C130.376 202.355 130.359 202.389 130.334 202.418C130.315 202.443 130.278 202.465 130.225 202.484C130.176 202.504 130.112 202.518 130.034 202.528C129.956 202.538 129.856 202.543 129.734 202.543C129.617 202.543 129.519 202.538 129.441 202.528C129.368 202.518 129.309 202.504 129.265 202.484C129.226 202.465 129.199 202.443 129.185 202.418C129.175 202.389 129.172 202.355 129.177 202.316L129.99 198.243C130.024 198.092 130.046 197.946 130.056 197.804C130.071 197.662 130.078 197.538 130.078 197.431C130.078 197.133 130.015 196.893 129.888 196.713C129.761 196.527 129.548 196.434 129.25 196.434C128.992 196.434 128.726 196.51 128.452 196.661C128.184 196.808 127.932 197.013 127.698 197.277C127.468 197.535 127.261 197.846 127.075 198.207C126.895 198.563 126.763 198.952 126.68 199.371L126.094 202.316C126.084 202.355 126.067 202.389 126.042 202.418C126.018 202.443 125.981 202.465 125.933 202.484C125.884 202.504 125.818 202.518 125.735 202.528C125.657 202.538 125.559 202.543 125.442 202.543C125.32 202.543 125.22 202.538 125.142 202.528C125.068 202.518 125.01 202.504 124.966 202.484C124.927 202.465 124.9 202.443 124.885 202.418C124.875 202.389 124.875 202.355 124.885 202.316L126.211 195.717C126.216 195.682 126.228 195.651 126.248 195.621C126.272 195.592 126.306 195.568 126.35 195.548C126.399 195.529 126.458 195.516 126.526 195.512C126.599 195.502 126.685 195.497 126.782 195.497C126.885 195.497 126.968 195.502 127.031 195.512C127.1 195.516 127.151 195.529 127.185 195.548C127.224 195.568 127.249 195.592 127.258 195.621C127.268 195.651 127.271 195.682 127.266 195.717L127.017 196.976C127.09 196.81 127.209 196.635 127.375 196.449C127.542 196.264 127.739 196.093 127.969 195.936C128.198 195.78 128.45 195.651 128.723 195.548C129.001 195.446 129.29 195.394 129.587 195.394C129.915 195.394 130.188 195.446 130.408 195.548C130.627 195.646 130.806 195.778 130.942 195.944C131.079 196.105 131.177 196.293 131.235 196.508C131.294 196.723 131.323 196.947 131.323 197.181ZM137.966 202.836C137.888 203.226 137.761 203.568 137.585 203.861C137.415 204.154 137.195 204.396 136.926 204.586C136.658 204.782 136.338 204.928 135.967 205.026C135.601 205.123 135.183 205.172 134.714 205.172C134.309 205.172 133.938 205.131 133.601 205.048C133.269 204.97 133.003 204.874 132.803 204.762C132.729 204.713 132.678 204.664 132.649 204.616C132.625 204.572 132.612 204.513 132.612 204.44C132.612 204.41 132.612 204.369 132.612 204.315C132.617 204.262 132.625 204.208 132.634 204.154C132.649 204.1 132.664 204.044 132.678 203.986C132.698 203.927 132.72 203.873 132.744 203.825C132.773 203.781 132.808 203.744 132.847 203.715C132.886 203.69 132.927 203.678 132.971 203.678C133.03 203.678 133.103 203.702 133.191 203.751C133.279 203.805 133.396 203.864 133.542 203.927C133.689 203.991 133.87 204.049 134.084 204.103C134.304 204.157 134.573 204.183 134.89 204.183C135.154 204.183 135.391 204.157 135.601 204.103C135.815 204.049 136.001 203.969 136.157 203.861C136.318 203.754 136.448 203.617 136.545 203.451C136.648 203.285 136.724 203.087 136.772 202.858C136.855 202.413 136.938 202.045 137.021 201.752C137.104 201.459 137.173 201.232 137.227 201.071C137.148 201.251 137.024 201.434 136.853 201.62C136.682 201.801 136.484 201.969 136.26 202.125C136.035 202.277 135.789 202.401 135.52 202.499C135.251 202.592 134.978 202.638 134.7 202.638C134.333 202.638 134.023 202.577 133.77 202.455C133.516 202.333 133.311 202.167 133.154 201.957C133.003 201.742 132.893 201.491 132.825 201.202C132.756 200.91 132.722 200.595 132.722 200.258C132.722 199.974 132.749 199.657 132.803 199.306C132.856 198.949 132.942 198.593 133.059 198.236C133.176 197.875 133.325 197.526 133.506 197.189C133.691 196.847 133.914 196.544 134.172 196.281C134.431 196.012 134.729 195.797 135.066 195.636C135.408 195.475 135.793 195.394 136.223 195.394C136.658 195.394 137.029 195.482 137.336 195.658C137.649 195.834 137.927 196.076 138.171 196.383L138.311 195.717C138.33 195.639 138.386 195.582 138.479 195.548C138.572 195.514 138.716 195.497 138.911 195.497C139.009 195.497 139.089 195.502 139.153 195.512C139.221 195.516 139.275 195.529 139.314 195.548C139.353 195.568 139.377 195.592 139.387 195.621C139.397 195.651 139.399 195.682 139.395 195.717L137.966 202.836ZM137.849 197.445C137.62 197.108 137.371 196.857 137.102 196.691C136.838 196.52 136.541 196.434 136.208 196.434C135.945 196.434 135.708 196.495 135.498 196.618C135.288 196.74 135.1 196.903 134.934 197.108C134.773 197.308 134.631 197.54 134.509 197.804C134.387 198.068 134.287 198.339 134.209 198.617C134.136 198.89 134.08 199.164 134.041 199.437C134.006 199.706 133.989 199.95 133.989 200.17C133.989 200.38 134.006 200.573 134.041 200.748C134.08 200.924 134.138 201.076 134.216 201.202C134.299 201.325 134.404 201.422 134.531 201.495C134.663 201.569 134.822 201.605 135.007 201.605C135.276 201.605 135.544 201.532 135.813 201.386C136.086 201.234 136.34 201.027 136.575 200.763C136.809 200.499 137.017 200.189 137.197 199.833C137.378 199.472 137.512 199.078 137.6 198.654L137.849 197.445ZM143.43 193.505C143.406 193.641 143.372 193.756 143.328 193.849C143.289 193.942 143.235 194.017 143.167 194.076C143.098 194.13 143.013 194.169 142.91 194.193C142.808 194.218 142.683 194.23 142.537 194.23C142.395 194.23 142.278 194.218 142.185 194.193C142.092 194.169 142.024 194.13 141.98 194.076C141.936 194.017 141.912 193.942 141.907 193.849C141.902 193.756 141.912 193.641 141.936 193.505C141.965 193.368 142.002 193.256 142.046 193.168C142.09 193.075 142.144 192.999 142.207 192.941C142.275 192.877 142.361 192.836 142.463 192.816C142.566 192.792 142.69 192.78 142.837 192.78C142.979 192.78 143.093 192.792 143.181 192.816C143.274 192.836 143.342 192.877 143.386 192.941C143.435 192.999 143.462 193.075 143.467 193.168C143.472 193.256 143.459 193.368 143.43 193.505ZM141.533 202.316C141.523 202.355 141.506 202.389 141.482 202.418C141.458 202.443 141.421 202.465 141.372 202.484C141.323 202.504 141.257 202.518 141.174 202.528C141.096 202.538 140.999 202.543 140.881 202.543C140.759 202.543 140.659 202.538 140.581 202.528C140.508 202.518 140.449 202.504 140.405 202.484C140.366 202.465 140.339 202.443 140.325 202.418C140.315 202.389 140.315 202.355 140.325 202.316L141.636 195.724C141.641 195.69 141.655 195.658 141.68 195.629C141.704 195.599 141.741 195.575 141.79 195.556C141.838 195.536 141.902 195.521 141.98 195.512C142.063 195.502 142.166 195.497 142.288 195.497C142.405 195.497 142.5 195.502 142.573 195.512C142.651 195.521 142.71 195.536 142.749 195.556C142.793 195.575 142.82 195.599 142.83 195.629C142.844 195.658 142.849 195.69 142.844 195.724L141.533 202.316ZM150.205 197.181C150.205 197.352 150.195 197.521 150.176 197.687C150.156 197.853 150.129 198.024 150.095 198.2L149.268 202.316C149.258 202.355 149.241 202.389 149.216 202.418C149.197 202.443 149.16 202.465 149.106 202.484C149.058 202.504 148.994 202.518 148.916 202.528C148.838 202.538 148.738 202.543 148.616 202.543C148.499 202.543 148.401 202.538 148.323 202.528C148.25 202.518 148.191 202.504 148.147 202.484C148.108 202.465 148.081 202.443 148.066 202.418C148.057 202.389 148.054 202.355 148.059 202.316L148.872 198.243C148.906 198.092 148.928 197.946 148.938 197.804C148.953 197.662 148.96 197.538 148.96 197.431C148.96 197.133 148.896 196.893 148.77 196.713C148.643 196.527 148.43 196.434 148.132 196.434C147.874 196.434 147.607 196.51 147.334 196.661C147.065 196.808 146.814 197.013 146.58 197.277C146.35 197.535 146.143 197.846 145.957 198.207C145.776 198.563 145.645 198.952 145.562 199.371L144.976 202.316C144.966 202.355 144.949 202.389 144.924 202.418C144.9 202.443 144.863 202.465 144.814 202.484C144.766 202.504 144.7 202.518 144.617 202.528C144.539 202.538 144.441 202.543 144.324 202.543C144.202 202.543 144.102 202.538 144.023 202.528C143.95 202.518 143.892 202.504 143.848 202.484C143.809 202.465 143.782 202.443 143.767 202.418C143.757 202.389 143.757 202.355 143.767 202.316L145.093 195.717C145.098 195.682 145.11 195.651 145.129 195.621C145.154 195.592 145.188 195.568 145.232 195.548C145.281 195.529 145.339 195.516 145.408 195.512C145.481 195.502 145.566 195.497 145.664 195.497C145.767 195.497 145.85 195.502 145.913 195.512C145.981 195.516 146.033 195.529 146.067 195.548C146.106 195.568 146.13 195.592 146.14 195.621C146.15 195.651 146.152 195.682 146.147 195.717L145.898 196.976C145.972 196.81 146.091 196.635 146.257 196.449C146.423 196.264 146.621 196.093 146.851 195.936C147.08 195.78 147.332 195.651 147.605 195.548C147.883 195.446 148.171 195.394 148.469 195.394C148.796 195.394 149.07 195.446 149.29 195.548C149.509 195.646 149.688 195.778 149.824 195.944C149.961 196.105 150.059 196.293 150.117 196.508C150.176 196.723 150.205 196.947 150.205 197.181ZM157.786 197.072C157.786 197.409 157.708 197.711 157.551 197.98C157.395 198.248 157.151 198.478 156.819 198.668C156.487 198.859 156.062 199.005 155.544 199.108C155.027 199.21 154.407 199.262 153.684 199.262H152.908C152.874 199.423 152.849 199.579 152.834 199.73C152.825 199.882 152.82 200.023 152.82 200.155C152.82 200.643 152.939 201.017 153.179 201.276C153.423 201.535 153.816 201.664 154.358 201.664C154.67 201.664 154.951 201.642 155.2 201.598C155.449 201.549 155.664 201.498 155.845 201.444C156.03 201.39 156.182 201.342 156.299 201.298C156.416 201.249 156.497 201.224 156.541 201.224C156.584 201.224 156.616 201.242 156.636 201.276C156.66 201.305 156.672 201.349 156.672 201.408C156.672 201.456 156.667 201.515 156.658 201.583C156.648 201.652 156.633 201.723 156.614 201.796C156.594 201.864 156.567 201.93 156.533 201.993C156.504 202.057 156.47 202.111 156.431 202.155C156.372 202.213 156.267 202.272 156.116 202.33C155.969 202.384 155.793 202.435 155.588 202.484C155.383 202.528 155.159 202.565 154.915 202.594C154.67 202.623 154.426 202.638 154.182 202.638C153.748 202.638 153.367 202.589 153.04 202.492C152.712 202.394 152.439 202.245 152.219 202.045C152.004 201.84 151.843 201.586 151.736 201.283C151.628 200.98 151.575 200.624 151.575 200.214C151.575 199.896 151.604 199.557 151.663 199.196C151.726 198.829 151.824 198.468 151.956 198.112C152.087 197.755 152.258 197.413 152.468 197.086C152.678 196.759 152.927 196.471 153.215 196.222C153.508 195.973 153.845 195.773 154.226 195.621C154.607 195.47 155.037 195.394 155.515 195.394C155.925 195.394 156.272 195.446 156.555 195.548C156.843 195.651 157.078 195.783 157.258 195.944C157.444 196.105 157.578 196.285 157.661 196.486C157.744 196.681 157.786 196.876 157.786 197.072ZM156.548 197.181C156.548 196.932 156.45 196.732 156.255 196.581C156.06 196.425 155.781 196.347 155.42 196.347C155.103 196.347 154.822 196.403 154.578 196.515C154.333 196.622 154.116 196.769 153.926 196.954C153.74 197.14 153.579 197.357 153.442 197.606C153.311 197.85 153.203 198.109 153.12 198.383H153.867C154.38 198.383 154.807 198.351 155.149 198.287C155.496 198.224 155.771 198.139 155.977 198.031C156.187 197.919 156.333 197.789 156.416 197.643C156.504 197.496 156.548 197.343 156.548 197.181ZM164.949 197.072C164.949 197.409 164.871 197.711 164.714 197.98C164.558 198.248 164.314 198.478 163.982 198.668C163.65 198.859 163.225 199.005 162.708 199.108C162.19 199.21 161.57 199.262 160.847 199.262H160.071C160.037 199.423 160.012 199.579 159.998 199.73C159.988 199.882 159.983 200.023 159.983 200.155C159.983 200.643 160.103 201.017 160.342 201.276C160.586 201.535 160.979 201.664 161.521 201.664C161.833 201.664 162.114 201.642 162.363 201.598C162.612 201.549 162.827 201.498 163.008 201.444C163.193 201.39 163.345 201.342 163.462 201.298C163.579 201.249 163.66 201.224 163.704 201.224C163.748 201.224 163.779 201.242 163.799 201.276C163.823 201.305 163.835 201.349 163.835 201.408C163.835 201.456 163.831 201.515 163.821 201.583C163.811 201.652 163.796 201.723 163.777 201.796C163.757 201.864 163.73 201.93 163.696 201.993C163.667 202.057 163.633 202.111 163.594 202.155C163.535 202.213 163.43 202.272 163.279 202.33C163.132 202.384 162.957 202.435 162.751 202.484C162.546 202.528 162.322 202.565 162.078 202.594C161.833 202.623 161.589 202.638 161.345 202.638C160.911 202.638 160.53 202.589 160.203 202.492C159.875 202.394 159.602 202.245 159.382 202.045C159.167 201.84 159.006 201.586 158.899 201.283C158.792 200.98 158.738 200.624 158.738 200.214C158.738 199.896 158.767 199.557 158.826 199.196C158.889 198.829 158.987 198.468 159.119 198.112C159.25 197.755 159.421 197.413 159.631 197.086C159.841 196.759 160.09 196.471 160.378 196.222C160.671 195.973 161.008 195.773 161.389 195.621C161.77 195.47 162.2 195.394 162.678 195.394C163.088 195.394 163.435 195.446 163.718 195.548C164.006 195.651 164.241 195.783 164.421 195.944C164.607 196.105 164.741 196.285 164.824 196.486C164.907 196.681 164.949 196.876 164.949 197.072ZM163.711 197.181C163.711 196.932 163.613 196.732 163.418 196.581C163.223 196.425 162.944 196.347 162.583 196.347C162.266 196.347 161.985 196.403 161.741 196.515C161.497 196.622 161.279 196.769 161.089 196.954C160.903 197.14 160.742 197.357 160.605 197.606C160.474 197.85 160.366 198.109 160.283 198.383H161.03C161.543 198.383 161.97 198.351 162.312 198.287C162.659 198.224 162.935 198.139 163.14 198.031C163.35 197.919 163.496 197.789 163.579 197.643C163.667 197.496 163.711 197.343 163.711 197.181ZM170.859 195.731C170.859 195.751 170.854 195.79 170.845 195.848C170.84 195.902 170.833 195.966 170.823 196.039C170.813 196.112 170.798 196.188 170.779 196.266C170.759 196.344 170.735 196.417 170.706 196.486C170.676 196.549 170.645 196.603 170.61 196.647C170.581 196.691 170.547 196.713 170.508 196.713C170.469 196.713 170.425 196.705 170.376 196.691C170.332 196.671 170.281 196.649 170.222 196.625C170.168 196.6 170.105 196.581 170.032 196.566C169.958 196.547 169.873 196.537 169.775 196.537C169.609 196.537 169.417 196.61 169.197 196.757C168.982 196.898 168.77 197.096 168.56 197.35C168.35 197.604 168.157 197.904 167.981 198.251C167.81 198.598 167.683 198.973 167.6 199.379L167.021 202.316C167.012 202.355 166.995 202.389 166.97 202.418C166.946 202.443 166.909 202.465 166.86 202.484C166.812 202.504 166.746 202.518 166.663 202.528C166.584 202.538 166.487 202.543 166.37 202.543C166.248 202.543 166.147 202.538 166.069 202.528C165.996 202.518 165.938 202.504 165.894 202.484C165.854 202.465 165.828 202.443 165.813 202.418C165.803 202.389 165.803 202.355 165.813 202.316L167.124 195.717C167.129 195.682 167.144 195.651 167.168 195.621C167.192 195.592 167.229 195.568 167.278 195.548C167.327 195.529 167.385 195.516 167.454 195.512C167.527 195.502 167.612 195.497 167.71 195.497C167.812 195.497 167.896 195.502 167.959 195.512C168.027 195.516 168.079 195.529 168.113 195.548C168.152 195.568 168.176 195.592 168.186 195.621C168.196 195.651 168.198 195.682 168.193 195.717L167.952 196.918C168.064 196.718 168.196 196.525 168.347 196.339C168.503 196.154 168.672 195.993 168.853 195.856C169.033 195.714 169.221 195.602 169.417 195.519C169.617 195.436 169.812 195.394 170.002 195.394C170.085 195.394 170.168 195.402 170.251 195.416C170.339 195.426 170.42 195.441 170.493 195.46C170.566 195.475 170.63 195.494 170.684 195.519C170.742 195.538 170.786 195.563 170.815 195.592C170.845 195.621 170.859 195.668 170.859 195.731ZM174.06 193.505C174.036 193.641 174.001 193.756 173.958 193.849C173.918 193.942 173.865 194.017 173.796 194.076C173.728 194.13 173.643 194.169 173.54 194.193C173.438 194.218 173.313 194.23 173.167 194.23C173.025 194.23 172.908 194.218 172.815 194.193C172.722 194.169 172.654 194.13 172.61 194.076C172.566 194.017 172.542 193.942 172.537 193.849C172.532 193.756 172.542 193.641 172.566 193.505C172.595 193.368 172.632 193.256 172.676 193.168C172.72 193.075 172.773 192.999 172.837 192.941C172.905 192.877 172.991 192.836 173.093 192.816C173.196 192.792 173.32 192.78 173.467 192.78C173.608 192.78 173.723 192.792 173.811 192.816C173.904 192.836 173.972 192.877 174.016 192.941C174.065 192.999 174.092 193.075 174.097 193.168C174.102 193.256 174.089 193.368 174.06 193.505ZM172.163 202.316C172.153 202.355 172.136 202.389 172.112 202.418C172.087 202.443 172.051 202.465 172.002 202.484C171.953 202.504 171.887 202.518 171.804 202.528C171.726 202.538 171.628 202.543 171.511 202.543C171.389 202.543 171.289 202.538 171.211 202.528C171.138 202.518 171.079 202.504 171.035 202.484C170.996 202.465 170.969 202.443 170.955 202.418C170.945 202.389 170.945 202.355 170.955 202.316L172.266 195.724C172.271 195.69 172.285 195.658 172.31 195.629C172.334 195.599 172.371 195.575 172.419 195.556C172.468 195.536 172.532 195.521 172.61 195.512C172.693 195.502 172.795 195.497 172.917 195.497C173.035 195.497 173.13 195.502 173.203 195.512C173.281 195.521 173.34 195.536 173.379 195.556C173.423 195.575 173.45 195.599 173.459 195.629C173.474 195.658 173.479 195.69 173.474 195.724L172.163 202.316ZM180.835 197.181C180.835 197.352 180.825 197.521 180.806 197.687C180.786 197.853 180.759 198.024 180.725 198.2L179.897 202.316C179.888 202.355 179.871 202.389 179.846 202.418C179.827 202.443 179.79 202.465 179.736 202.484C179.688 202.504 179.624 202.518 179.546 202.528C179.468 202.538 179.368 202.543 179.246 202.543C179.128 202.543 179.031 202.538 178.953 202.528C178.879 202.518 178.821 202.504 178.777 202.484C178.738 202.465 178.711 202.443 178.696 202.418C178.687 202.389 178.684 202.355 178.689 202.316L179.502 198.243C179.536 198.092 179.558 197.946 179.568 197.804C179.583 197.662 179.59 197.538 179.59 197.431C179.59 197.133 179.526 196.893 179.399 196.713C179.272 196.527 179.06 196.434 178.762 196.434C178.503 196.434 178.237 196.51 177.964 196.661C177.695 196.808 177.444 197.013 177.209 197.277C176.98 197.535 176.772 197.846 176.587 198.207C176.406 198.563 176.274 198.952 176.191 199.371L175.605 202.316C175.596 202.355 175.579 202.389 175.554 202.418C175.53 202.443 175.493 202.465 175.444 202.484C175.396 202.504 175.33 202.518 175.247 202.528C175.168 202.538 175.071 202.543 174.954 202.543C174.832 202.543 174.731 202.538 174.653 202.528C174.58 202.518 174.521 202.504 174.478 202.484C174.438 202.465 174.412 202.443 174.397 202.418C174.387 202.389 174.387 202.355 174.397 202.316L175.723 195.717C175.728 195.682 175.74 195.651 175.759 195.621C175.784 195.592 175.818 195.568 175.862 195.548C175.911 195.529 175.969 195.516 176.038 195.512C176.111 195.502 176.196 195.497 176.294 195.497C176.396 195.497 176.479 195.502 176.543 195.512C176.611 195.516 176.663 195.529 176.697 195.548C176.736 195.568 176.76 195.592 176.77 195.621C176.78 195.651 176.782 195.682 176.777 195.717L176.528 196.976C176.602 196.81 176.721 196.635 176.887 196.449C177.053 196.264 177.251 196.093 177.48 195.936C177.71 195.78 177.961 195.651 178.235 195.548C178.513 195.446 178.801 195.394 179.099 195.394C179.426 195.394 179.7 195.446 179.919 195.548C180.139 195.646 180.317 195.778 180.454 195.944C180.591 196.105 180.688 196.293 180.747 196.508C180.806 196.723 180.835 196.947 180.835 197.181ZM187.478 202.836C187.4 203.226 187.273 203.568 187.097 203.861C186.926 204.154 186.707 204.396 186.438 204.586C186.169 204.782 185.85 204.928 185.479 205.026C185.112 205.123 184.695 205.172 184.226 205.172C183.821 205.172 183.45 205.131 183.113 205.048C182.781 204.97 182.515 204.874 182.314 204.762C182.241 204.713 182.19 204.664 182.161 204.616C182.136 204.572 182.124 204.513 182.124 204.44C182.124 204.41 182.124 204.369 182.124 204.315C182.129 204.262 182.136 204.208 182.146 204.154C182.161 204.1 182.175 204.044 182.19 203.986C182.209 203.927 182.231 203.873 182.256 203.825C182.285 203.781 182.319 203.744 182.358 203.715C182.397 203.69 182.439 203.678 182.483 203.678C182.542 203.678 182.615 203.702 182.703 203.751C182.791 203.805 182.908 203.864 183.054 203.927C183.201 203.991 183.381 204.049 183.596 204.103C183.816 204.157 184.084 204.183 184.402 204.183C184.666 204.183 184.902 204.157 185.112 204.103C185.327 204.049 185.513 203.969 185.669 203.861C185.83 203.754 185.959 203.617 186.057 203.451C186.16 203.285 186.235 203.087 186.284 202.858C186.367 202.413 186.45 202.045 186.533 201.752C186.616 201.459 186.685 201.232 186.738 201.071C186.66 201.251 186.536 201.434 186.365 201.62C186.194 201.801 185.996 201.969 185.771 202.125C185.547 202.277 185.3 202.401 185.032 202.499C184.763 202.592 184.49 202.638 184.211 202.638C183.845 202.638 183.535 202.577 183.281 202.455C183.027 202.333 182.822 202.167 182.666 201.957C182.515 201.742 182.405 201.491 182.336 201.202C182.268 200.91 182.234 200.595 182.234 200.258C182.234 199.974 182.261 199.657 182.314 199.306C182.368 198.949 182.454 198.593 182.571 198.236C182.688 197.875 182.837 197.526 183.018 197.189C183.203 196.847 183.425 196.544 183.684 196.281C183.943 196.012 184.241 195.797 184.578 195.636C184.919 195.475 185.305 195.394 185.735 195.394C186.169 195.394 186.541 195.482 186.848 195.658C187.161 195.834 187.439 196.076 187.683 196.383L187.822 195.717C187.842 195.639 187.898 195.582 187.991 195.548C188.083 195.514 188.228 195.497 188.423 195.497C188.521 195.497 188.601 195.502 188.665 195.512C188.733 195.516 188.787 195.529 188.826 195.548C188.865 195.568 188.889 195.592 188.899 195.621C188.909 195.651 188.911 195.682 188.906 195.717L187.478 202.836ZM187.361 197.445C187.131 197.108 186.882 196.857 186.614 196.691C186.35 196.52 186.052 196.434 185.72 196.434C185.457 196.434 185.22 196.495 185.01 196.618C184.8 196.74 184.612 196.903 184.446 197.108C184.285 197.308 184.143 197.54 184.021 197.804C183.899 198.068 183.799 198.339 183.721 198.617C183.647 198.89 183.591 199.164 183.552 199.437C183.518 199.706 183.501 199.95 183.501 200.17C183.501 200.38 183.518 200.573 183.552 200.748C183.591 200.924 183.65 201.076 183.728 201.202C183.811 201.325 183.916 201.422 184.043 201.495C184.175 201.569 184.333 201.605 184.519 201.605C184.788 201.605 185.056 201.532 185.325 201.386C185.598 201.234 185.852 201.027 186.086 200.763C186.321 200.499 186.528 200.189 186.709 199.833C186.89 199.472 187.024 199.078 187.112 198.654L187.361 197.445ZM194.941 201.378C194.941 201.447 194.934 201.527 194.919 201.62C194.91 201.713 194.893 201.808 194.868 201.906C194.844 202.003 194.812 202.094 194.773 202.177C194.739 202.26 194.692 202.33 194.634 202.389C194.575 202.448 194.492 202.492 194.385 202.521C194.277 202.55 194.141 202.565 193.975 202.565C193.838 202.565 193.726 202.555 193.638 202.535C193.55 202.516 193.481 202.484 193.433 202.44C193.384 202.391 193.35 202.335 193.33 202.272C193.311 202.203 193.301 202.128 193.301 202.045C193.301 201.967 193.306 201.881 193.315 201.788C193.33 201.691 193.35 201.596 193.374 201.503C193.403 201.41 193.435 201.325 193.469 201.246C193.508 201.163 193.555 201.095 193.608 201.041C193.667 200.983 193.745 200.939 193.843 200.91C193.945 200.875 194.089 200.858 194.275 200.858C194.417 200.858 194.529 200.87 194.612 200.895C194.7 200.919 194.768 200.956 194.817 201.005C194.866 201.049 194.897 201.102 194.912 201.166C194.932 201.229 194.941 201.3 194.941 201.378ZM207.554 193.263C207.554 193.287 207.551 193.327 207.546 193.38C207.546 193.429 207.539 193.483 207.524 193.541C207.515 193.6 207.5 193.661 207.48 193.724C207.466 193.788 207.444 193.847 207.415 193.9C207.385 193.949 207.349 193.991 207.305 194.025C207.266 194.054 207.222 194.069 207.173 194.069H203.474L202.874 197.042H206.06C206.118 197.042 206.162 197.062 206.191 197.101C206.221 197.14 206.235 197.199 206.235 197.277C206.235 197.301 206.23 197.34 206.221 197.394C206.216 197.443 206.208 197.499 206.199 197.562C206.189 197.621 206.174 197.68 206.155 197.738C206.135 197.797 206.111 197.85 206.082 197.899C206.057 197.943 206.025 197.982 205.986 198.016C205.947 198.046 205.903 198.06 205.854 198.06H202.676L201.987 201.452H205.759C205.808 201.452 205.847 201.471 205.876 201.51C205.911 201.549 205.928 201.61 205.928 201.693C205.928 201.723 205.925 201.764 205.92 201.818C205.916 201.871 205.906 201.928 205.891 201.986C205.881 202.045 205.867 202.106 205.847 202.169C205.833 202.228 205.811 202.284 205.781 202.338C205.752 202.387 205.715 202.426 205.671 202.455C205.632 202.484 205.588 202.499 205.54 202.499H200.984C200.93 202.499 200.876 202.492 200.823 202.477C200.774 202.457 200.73 202.428 200.691 202.389C200.657 202.345 200.632 202.291 200.618 202.228C200.603 202.16 200.608 202.079 200.632 201.986L202.324 193.534C202.358 193.344 202.434 193.212 202.551 193.139C202.668 193.06 202.783 193.021 202.896 193.021H207.385C207.498 193.021 207.554 193.102 207.554 193.263ZM214.058 197.181C214.058 197.352 214.048 197.521 214.028 197.687C214.009 197.853 213.982 198.024 213.948 198.2L213.12 202.316C213.11 202.355 213.093 202.389 213.069 202.418C213.049 202.443 213.013 202.465 212.959 202.484C212.91 202.504 212.847 202.518 212.769 202.528C212.69 202.538 212.59 202.543 212.468 202.543C212.351 202.543 212.253 202.538 212.175 202.528C212.102 202.518 212.043 202.504 212 202.484C211.96 202.465 211.934 202.443 211.919 202.418C211.909 202.389 211.907 202.355 211.912 202.316L212.725 198.243C212.759 198.092 212.781 197.946 212.791 197.804C212.805 197.662 212.812 197.538 212.812 197.431C212.812 197.133 212.749 196.893 212.622 196.713C212.495 196.527 212.283 196.434 211.985 196.434C211.726 196.434 211.46 196.51 211.187 196.661C210.918 196.808 210.667 197.013 210.432 197.277C210.203 197.535 209.995 197.846 209.81 198.207C209.629 198.563 209.497 198.952 209.414 199.371L208.828 202.316C208.818 202.355 208.801 202.389 208.777 202.418C208.752 202.443 208.716 202.465 208.667 202.484C208.618 202.504 208.552 202.518 208.469 202.528C208.391 202.538 208.293 202.543 208.176 202.543C208.054 202.543 207.954 202.538 207.876 202.528C207.803 202.518 207.744 202.504 207.7 202.484C207.661 202.465 207.634 202.443 207.62 202.418C207.61 202.389 207.61 202.355 207.62 202.316L208.945 195.717C208.95 195.682 208.962 195.651 208.982 195.621C209.006 195.592 209.041 195.568 209.084 195.548C209.133 195.529 209.192 195.516 209.26 195.512C209.333 195.502 209.419 195.497 209.517 195.497C209.619 195.497 209.702 195.502 209.766 195.512C209.834 195.516 209.885 195.529 209.919 195.548C209.958 195.568 209.983 195.592 209.993 195.621C210.002 195.651 210.005 195.682 210 195.717L209.751 196.976C209.824 196.81 209.944 196.635 210.11 196.449C210.276 196.264 210.474 196.093 210.703 195.936C210.933 195.78 211.184 195.651 211.458 195.548C211.736 195.446 212.024 195.394 212.322 195.394C212.649 195.394 212.922 195.446 213.142 195.548C213.362 195.646 213.54 195.778 213.677 195.944C213.813 196.105 213.911 196.293 213.97 196.508C214.028 196.723 214.058 196.947 214.058 197.181ZM221.418 195.665C221.418 195.714 221.411 195.765 221.396 195.819C221.382 195.868 221.365 195.919 221.345 195.973C221.165 196.505 220.959 197.045 220.73 197.592C220.505 198.134 220.254 198.676 219.976 199.218C219.702 199.755 219.399 200.285 219.067 200.807C218.74 201.325 218.381 201.825 217.991 202.308C217.957 202.362 217.917 202.404 217.874 202.433C217.83 202.462 217.776 202.484 217.712 202.499C217.654 202.518 217.585 202.531 217.507 202.535C217.429 202.54 217.336 202.543 217.229 202.543C217.078 202.543 216.956 202.538 216.863 202.528C216.77 202.518 216.697 202.504 216.643 202.484C216.594 202.465 216.558 202.438 216.533 202.404C216.514 202.369 216.501 202.328 216.497 202.279L215.522 196.032C215.518 195.978 215.513 195.931 215.508 195.892C215.508 195.848 215.508 195.809 215.508 195.775C215.508 195.712 215.518 195.663 215.537 195.629C215.557 195.595 215.588 195.568 215.632 195.548C215.676 195.529 215.735 195.516 215.808 195.512C215.886 195.502 215.989 195.497 216.116 195.497C216.243 195.497 216.345 195.502 216.423 195.512C216.501 195.516 216.56 195.529 216.599 195.548C216.643 195.563 216.672 195.587 216.687 195.621C216.702 195.651 216.711 195.687 216.716 195.731L217.507 201.166V201.254L217.544 201.21C217.832 200.775 218.096 200.355 218.335 199.95C218.574 199.54 218.796 199.118 219.001 198.683C219.207 198.248 219.399 197.792 219.58 197.313C219.766 196.835 219.954 196.307 220.144 195.731C220.159 195.687 220.178 195.651 220.203 195.621C220.232 195.587 220.271 195.563 220.32 195.548C220.374 195.529 220.442 195.516 220.525 195.512C220.613 195.502 220.72 195.497 220.847 195.497C220.964 195.497 221.06 195.502 221.133 195.512C221.206 195.516 221.262 195.526 221.301 195.541C221.345 195.551 221.375 195.568 221.389 195.592C221.409 195.612 221.418 195.636 221.418 195.665ZM224.875 193.505C224.851 193.641 224.817 193.756 224.773 193.849C224.734 193.942 224.68 194.017 224.612 194.076C224.543 194.13 224.458 194.169 224.355 194.193C224.253 194.218 224.128 194.23 223.982 194.23C223.84 194.23 223.723 194.218 223.63 194.193C223.538 194.169 223.469 194.13 223.425 194.076C223.381 194.017 223.357 193.942 223.352 193.849C223.347 193.756 223.357 193.641 223.381 193.505C223.411 193.368 223.447 193.256 223.491 193.168C223.535 193.075 223.589 192.999 223.652 192.941C223.721 192.877 223.806 192.836 223.909 192.816C224.011 192.792 224.136 192.78 224.282 192.78C224.424 192.78 224.539 192.792 224.626 192.816C224.719 192.836 224.788 192.877 224.832 192.941C224.88 192.999 224.907 193.075 224.912 193.168C224.917 193.256 224.905 193.368 224.875 193.505ZM222.979 202.316C222.969 202.355 222.952 202.389 222.927 202.418C222.903 202.443 222.866 202.465 222.817 202.484C222.769 202.504 222.703 202.518 222.62 202.528C222.542 202.538 222.444 202.543 222.327 202.543C222.205 202.543 222.104 202.538 222.026 202.528C221.953 202.518 221.895 202.504 221.851 202.484C221.812 202.465 221.785 202.443 221.77 202.418C221.76 202.389 221.76 202.355 221.77 202.316L223.081 195.724C223.086 195.69 223.101 195.658 223.125 195.629C223.149 195.599 223.186 195.575 223.235 195.556C223.284 195.536 223.347 195.521 223.425 195.512C223.508 195.502 223.611 195.497 223.733 195.497C223.85 195.497 223.945 195.502 224.019 195.512C224.097 195.521 224.155 195.536 224.194 195.556C224.238 195.575 224.265 195.599 224.275 195.629C224.29 195.658 224.294 195.69 224.29 195.724L222.979 202.316ZM230.259 195.731C230.259 195.751 230.254 195.79 230.244 195.848C230.239 195.902 230.232 195.966 230.222 196.039C230.212 196.112 230.198 196.188 230.178 196.266C230.159 196.344 230.134 196.417 230.105 196.486C230.076 196.549 230.044 196.603 230.01 196.647C229.98 196.691 229.946 196.713 229.907 196.713C229.868 196.713 229.824 196.705 229.775 196.691C229.731 196.671 229.68 196.649 229.622 196.625C229.568 196.6 229.504 196.581 229.431 196.566C229.358 196.547 229.272 196.537 229.175 196.537C229.009 196.537 228.816 196.61 228.596 196.757C228.381 196.898 228.169 197.096 227.959 197.35C227.749 197.604 227.556 197.904 227.38 198.251C227.209 198.598 227.083 198.973 227 199.379L226.421 202.316C226.411 202.355 226.394 202.389 226.37 202.418C226.345 202.443 226.309 202.465 226.26 202.484C226.211 202.504 226.145 202.518 226.062 202.528C225.984 202.538 225.886 202.543 225.769 202.543C225.647 202.543 225.547 202.538 225.469 202.528C225.396 202.518 225.337 202.504 225.293 202.484C225.254 202.465 225.227 202.443 225.212 202.418C225.203 202.389 225.203 202.355 225.212 202.316L226.523 195.717C226.528 195.682 226.543 195.651 226.567 195.621C226.592 195.592 226.628 195.568 226.677 195.548C226.726 195.529 226.785 195.516 226.853 195.512C226.926 195.502 227.012 195.497 227.109 195.497C227.212 195.497 227.295 195.502 227.358 195.512C227.427 195.516 227.478 195.529 227.512 195.548C227.551 195.568 227.576 195.592 227.585 195.621C227.595 195.651 227.598 195.682 227.593 195.717L227.351 196.918C227.463 196.718 227.595 196.525 227.747 196.339C227.903 196.154 228.071 195.993 228.252 195.856C228.433 195.714 228.621 195.602 228.816 195.519C229.016 195.436 229.211 195.394 229.402 195.394C229.485 195.394 229.568 195.402 229.651 195.416C229.739 195.426 229.819 195.441 229.893 195.46C229.966 195.475 230.029 195.494 230.083 195.519C230.142 195.538 230.186 195.563 230.215 195.592C230.244 195.621 230.259 195.668 230.259 195.731ZM237.034 197.907C237.034 198.268 237 198.637 236.931 199.013C236.863 199.389 236.758 199.752 236.616 200.104C236.479 200.451 236.304 200.778 236.089 201.085C235.874 201.393 235.62 201.661 235.327 201.891C235.039 202.12 234.709 202.304 234.338 202.44C233.972 202.572 233.562 202.638 233.108 202.638C232.639 202.638 232.236 202.582 231.899 202.47C231.567 202.357 231.294 202.194 231.079 201.979C230.864 201.764 230.706 201.5 230.603 201.188C230.5 200.875 230.449 200.521 230.449 200.126C230.449 199.764 230.481 199.396 230.544 199.02C230.613 198.644 230.718 198.283 230.859 197.936C231.001 197.589 231.177 197.262 231.387 196.954C231.602 196.642 231.853 196.371 232.141 196.141C232.434 195.912 232.764 195.731 233.13 195.599C233.501 195.463 233.914 195.394 234.368 195.394C234.836 195.394 235.237 195.453 235.569 195.57C235.906 195.682 236.182 195.846 236.396 196.061C236.616 196.276 236.777 196.539 236.88 196.852C236.982 197.164 237.034 197.516 237.034 197.907ZM235.759 197.98C235.759 197.736 235.732 197.516 235.679 197.321C235.63 197.125 235.544 196.962 235.422 196.83C235.305 196.693 235.149 196.588 234.954 196.515C234.763 196.442 234.531 196.405 234.258 196.405C233.965 196.405 233.699 196.459 233.459 196.566C233.22 196.669 233.005 196.81 232.815 196.991C232.629 197.167 232.466 197.374 232.324 197.614C232.188 197.853 232.073 198.109 231.98 198.383C231.892 198.651 231.826 198.93 231.782 199.218C231.738 199.501 231.716 199.779 231.716 200.053C231.716 200.297 231.743 200.516 231.797 200.712C231.851 200.907 231.936 201.073 232.053 201.21C232.175 201.347 232.332 201.452 232.522 201.525C232.712 201.598 232.944 201.635 233.218 201.635C233.516 201.635 233.782 201.583 234.016 201.481C234.255 201.373 234.468 201.229 234.653 201.049C234.844 200.868 235.007 200.658 235.144 200.419C235.286 200.18 235.4 199.923 235.488 199.65C235.581 199.376 235.649 199.098 235.693 198.815C235.737 198.532 235.759 198.253 235.759 197.98ZM244.497 197.181C244.497 197.352 244.487 197.521 244.468 197.687C244.448 197.853 244.421 198.024 244.387 198.2L243.56 202.316C243.55 202.355 243.533 202.389 243.508 202.418C243.489 202.443 243.452 202.465 243.398 202.484C243.35 202.504 243.286 202.518 243.208 202.528C243.13 202.538 243.03 202.543 242.908 202.543C242.791 202.543 242.693 202.538 242.615 202.528C242.542 202.518 242.483 202.504 242.439 202.484C242.4 202.465 242.373 202.443 242.358 202.418C242.349 202.389 242.346 202.355 242.351 202.316L243.164 198.243C243.198 198.092 243.22 197.946 243.23 197.804C243.245 197.662 243.252 197.538 243.252 197.431C243.252 197.133 243.188 196.893 243.062 196.713C242.935 196.527 242.722 196.434 242.424 196.434C242.166 196.434 241.899 196.51 241.626 196.661C241.357 196.808 241.106 197.013 240.872 197.277C240.642 197.535 240.435 197.846 240.249 198.207C240.068 198.563 239.937 198.952 239.854 199.371L239.268 202.316C239.258 202.355 239.241 202.389 239.216 202.418C239.192 202.443 239.155 202.465 239.106 202.484C239.058 202.504 238.992 202.518 238.909 202.528C238.831 202.538 238.733 202.543 238.616 202.543C238.494 202.543 238.394 202.538 238.315 202.528C238.242 202.518 238.184 202.504 238.14 202.484C238.101 202.465 238.074 202.443 238.059 202.418C238.049 202.389 238.049 202.355 238.059 202.316L239.385 195.717C239.39 195.682 239.402 195.651 239.421 195.621C239.446 195.592 239.48 195.568 239.524 195.548C239.573 195.529 239.631 195.516 239.7 195.512C239.773 195.502 239.858 195.497 239.956 195.497C240.059 195.497 240.142 195.502 240.205 195.512C240.273 195.516 240.325 195.529 240.359 195.548C240.398 195.568 240.422 195.592 240.432 195.621C240.442 195.651 240.444 195.682 240.439 195.717L240.19 196.976C240.264 196.81 240.383 196.635 240.549 196.449C240.715 196.264 240.913 196.093 241.143 195.936C241.372 195.78 241.624 195.651 241.897 195.548C242.175 195.446 242.463 195.394 242.761 195.394C243.088 195.394 243.362 195.446 243.582 195.548C243.801 195.646 243.979 195.778 244.116 195.944C244.253 196.105 244.351 196.293 244.409 196.508C244.468 196.723 244.497 196.947 244.497 197.181ZM255.432 202.316C255.427 202.355 255.413 202.389 255.388 202.418C255.364 202.443 255.325 202.465 255.271 202.484C255.222 202.504 255.156 202.518 255.073 202.528C254.995 202.538 254.897 202.543 254.78 202.543C254.663 202.543 254.565 202.538 254.487 202.528C254.414 202.518 254.355 202.504 254.312 202.484C254.272 202.465 254.246 202.443 254.231 202.418C254.216 202.389 254.214 202.355 254.224 202.316L255.037 198.243C255.061 198.102 255.081 197.968 255.095 197.841C255.115 197.714 255.125 197.587 255.125 197.46C255.125 197.147 255.063 196.898 254.941 196.713C254.824 196.527 254.617 196.434 254.319 196.434C254.075 196.434 253.821 196.51 253.557 196.661C253.298 196.808 253.052 197.013 252.817 197.277C252.583 197.535 252.375 197.846 252.195 198.207C252.014 198.563 251.882 198.952 251.799 199.371L251.213 202.316C251.204 202.355 251.187 202.389 251.162 202.418C251.138 202.443 251.099 202.465 251.045 202.484C250.996 202.504 250.93 202.518 250.847 202.528C250.769 202.538 250.671 202.543 250.554 202.543C250.437 202.543 250.339 202.538 250.261 202.528C250.188 202.518 250.132 202.504 250.093 202.484C250.054 202.465 250.027 202.443 250.012 202.418C249.998 202.389 249.993 202.355 249.998 202.316L250.811 198.243C250.845 198.097 250.867 197.953 250.876 197.811C250.891 197.67 250.898 197.538 250.898 197.416C250.898 197.118 250.837 196.881 250.715 196.705C250.593 196.525 250.386 196.434 250.093 196.434C249.844 196.434 249.59 196.51 249.331 196.661C249.072 196.808 248.826 197.013 248.591 197.277C248.357 197.535 248.149 197.846 247.969 198.207C247.788 198.563 247.656 198.952 247.573 199.371L246.987 202.316C246.978 202.355 246.96 202.389 246.936 202.418C246.912 202.443 246.875 202.465 246.826 202.484C246.777 202.504 246.711 202.518 246.628 202.528C246.55 202.538 246.453 202.543 246.335 202.543C246.213 202.543 246.113 202.538 246.035 202.528C245.962 202.518 245.903 202.504 245.859 202.484C245.82 202.465 245.793 202.443 245.779 202.418C245.769 202.389 245.769 202.355 245.779 202.316L247.104 195.717C247.109 195.682 247.122 195.651 247.141 195.621C247.166 195.592 247.2 195.568 247.244 195.548C247.292 195.529 247.351 195.516 247.419 195.512C247.493 195.502 247.578 195.497 247.676 195.497C247.778 195.497 247.861 195.502 247.925 195.512C247.993 195.516 248.044 195.529 248.079 195.548C248.118 195.568 248.142 195.592 248.152 195.621C248.162 195.651 248.164 195.682 248.159 195.717L247.91 196.976C247.983 196.81 248.103 196.635 248.269 196.449C248.44 196.264 248.638 196.093 248.862 195.936C249.087 195.78 249.331 195.651 249.595 195.548C249.863 195.446 250.137 195.394 250.415 195.394C250.708 195.394 250.959 195.436 251.169 195.519C251.379 195.597 251.55 195.707 251.682 195.848C251.819 195.985 251.919 196.151 251.982 196.347C252.046 196.537 252.085 196.747 252.1 196.976C252.197 196.806 252.332 196.627 252.502 196.442C252.673 196.256 252.871 196.088 253.096 195.936C253.32 195.78 253.564 195.651 253.828 195.548C254.092 195.446 254.36 195.394 254.634 195.394C254.961 195.394 255.234 195.441 255.454 195.534C255.674 195.626 255.852 195.753 255.989 195.914C256.125 196.076 256.223 196.264 256.282 196.478C256.34 196.693 256.37 196.928 256.37 197.181C256.37 197.352 256.36 197.521 256.34 197.687C256.321 197.853 256.294 198.024 256.26 198.2L255.432 202.316ZM263.943 197.072C263.943 197.409 263.865 197.711 263.708 197.98C263.552 198.248 263.308 198.478 262.976 198.668C262.644 198.859 262.219 199.005 261.702 199.108C261.184 199.21 260.564 199.262 259.841 199.262H259.065C259.031 199.423 259.006 199.579 258.992 199.73C258.982 199.882 258.977 200.023 258.977 200.155C258.977 200.643 259.097 201.017 259.336 201.276C259.58 201.535 259.973 201.664 260.515 201.664C260.828 201.664 261.108 201.642 261.357 201.598C261.606 201.549 261.821 201.498 262.002 201.444C262.188 201.39 262.339 201.342 262.456 201.298C262.573 201.249 262.654 201.224 262.698 201.224C262.742 201.224 262.773 201.242 262.793 201.276C262.817 201.305 262.83 201.349 262.83 201.408C262.83 201.456 262.825 201.515 262.815 201.583C262.805 201.652 262.791 201.723 262.771 201.796C262.751 201.864 262.725 201.93 262.69 201.993C262.661 202.057 262.627 202.111 262.588 202.155C262.529 202.213 262.424 202.272 262.273 202.33C262.126 202.384 261.951 202.435 261.746 202.484C261.541 202.528 261.316 202.565 261.072 202.594C260.828 202.623 260.583 202.638 260.339 202.638C259.905 202.638 259.524 202.589 259.197 202.492C258.87 202.394 258.596 202.245 258.376 202.045C258.162 201.84 258 201.586 257.893 201.283C257.786 200.98 257.732 200.624 257.732 200.214C257.732 199.896 257.761 199.557 257.82 199.196C257.883 198.829 257.981 198.468 258.113 198.112C258.245 197.755 258.416 197.413 258.625 197.086C258.835 196.759 259.084 196.471 259.373 196.222C259.666 195.973 260.002 195.773 260.383 195.621C260.764 195.47 261.194 195.394 261.672 195.394C262.083 195.394 262.429 195.446 262.712 195.548C263 195.651 263.235 195.783 263.416 195.944C263.601 196.105 263.735 196.285 263.818 196.486C263.901 196.681 263.943 196.876 263.943 197.072ZM262.705 197.181C262.705 196.932 262.607 196.732 262.412 196.581C262.217 196.425 261.938 196.347 261.577 196.347C261.26 196.347 260.979 196.403 260.735 196.515C260.491 196.622 260.273 196.769 260.083 196.954C259.897 197.14 259.736 197.357 259.6 197.606C259.468 197.85 259.36 198.109 259.277 198.383H260.024C260.537 198.383 260.964 198.351 261.306 198.287C261.653 198.224 261.929 198.139 262.134 198.031C262.344 197.919 262.49 197.789 262.573 197.643C262.661 197.496 262.705 197.343 262.705 197.181ZM271.245 197.181C271.245 197.352 271.235 197.521 271.216 197.687C271.196 197.853 271.169 198.024 271.135 198.2L270.308 202.316C270.298 202.355 270.281 202.389 270.256 202.418C270.237 202.443 270.2 202.465 270.146 202.484C270.098 202.504 270.034 202.518 269.956 202.528C269.878 202.538 269.778 202.543 269.656 202.543C269.539 202.543 269.441 202.538 269.363 202.528C269.29 202.518 269.231 202.504 269.187 202.484C269.148 202.465 269.121 202.443 269.106 202.418C269.097 202.389 269.094 202.355 269.099 202.316L269.912 198.243C269.946 198.092 269.968 197.946 269.978 197.804C269.993 197.662 270 197.538 270 197.431C270 197.133 269.937 196.893 269.81 196.713C269.683 196.527 269.47 196.434 269.172 196.434C268.914 196.434 268.647 196.51 268.374 196.661C268.105 196.808 267.854 197.013 267.62 197.277C267.39 197.535 267.183 197.846 266.997 198.207C266.816 198.563 266.685 198.952 266.602 199.371L266.016 202.316C266.006 202.355 265.989 202.389 265.964 202.418C265.94 202.443 265.903 202.465 265.854 202.484C265.806 202.504 265.74 202.518 265.657 202.528C265.579 202.538 265.481 202.543 265.364 202.543C265.242 202.543 265.142 202.538 265.063 202.528C264.99 202.518 264.932 202.504 264.888 202.484C264.849 202.465 264.822 202.443 264.807 202.418C264.797 202.389 264.797 202.355 264.807 202.316L266.133 195.717C266.138 195.682 266.15 195.651 266.169 195.621C266.194 195.592 266.228 195.568 266.272 195.548C266.321 195.529 266.379 195.516 266.448 195.512C266.521 195.502 266.606 195.497 266.704 195.497C266.807 195.497 266.89 195.502 266.953 195.512C267.021 195.516 267.073 195.529 267.107 195.548C267.146 195.568 267.17 195.592 267.18 195.621C267.19 195.651 267.192 195.682 267.188 195.717L266.938 196.976C267.012 196.81 267.131 196.635 267.297 196.449C267.463 196.264 267.661 196.093 267.891 195.936C268.12 195.78 268.372 195.651 268.645 195.548C268.923 195.446 269.211 195.394 269.509 195.394C269.836 195.394 270.11 195.446 270.33 195.548C270.549 195.646 270.728 195.778 270.864 195.944C271.001 196.105 271.099 196.293 271.157 196.508C271.216 196.723 271.245 196.947 271.245 197.181ZM277.097 195.797C277.097 195.841 277.095 195.89 277.09 195.944C277.085 195.993 277.075 196.044 277.061 196.098C277.046 196.151 277.026 196.205 277.002 196.259C276.978 196.312 276.951 196.361 276.921 196.405C276.897 196.444 276.868 196.476 276.833 196.5C276.799 196.525 276.76 196.537 276.716 196.537H275.032L274.292 200.214C274.272 200.316 274.255 200.431 274.241 200.558C274.226 200.685 274.219 200.79 274.219 200.873C274.219 201.122 274.27 201.305 274.373 201.422C274.48 201.535 274.651 201.591 274.885 201.591C275.017 201.591 275.132 201.581 275.229 201.561C275.327 201.537 275.41 201.513 275.479 201.488C275.552 201.464 275.615 201.442 275.669 201.422C275.723 201.398 275.769 201.386 275.808 201.386C275.847 201.386 275.876 201.4 275.896 201.43C275.92 201.454 275.933 201.503 275.933 201.576C275.933 201.639 275.925 201.71 275.911 201.788C275.901 201.862 275.886 201.935 275.867 202.008C275.847 202.081 275.823 202.147 275.793 202.206C275.764 202.264 275.732 202.311 275.698 202.345C275.659 202.379 275.601 202.413 275.522 202.448C275.444 202.482 275.354 202.511 275.251 202.535C275.149 202.565 275.039 202.587 274.922 202.601C274.81 202.616 274.697 202.623 274.585 202.623C274.312 202.623 274.075 202.594 273.875 202.535C273.674 202.477 273.506 202.387 273.369 202.264C273.232 202.138 273.13 201.981 273.062 201.796C272.998 201.605 272.966 201.378 272.966 201.115C272.966 201.056 272.969 200.993 272.974 200.924C272.979 200.851 272.986 200.775 272.996 200.697C273.01 200.619 273.022 200.541 273.032 200.463C273.047 200.385 273.062 200.311 273.076 200.243L273.816 196.537H272.9C272.847 196.537 272.805 196.522 272.776 196.493C272.747 196.459 272.732 196.395 272.732 196.303C272.732 196.234 272.739 196.156 272.754 196.068C272.769 195.975 272.791 195.89 272.82 195.812C272.849 195.734 272.886 195.668 272.93 195.614C272.979 195.56 273.035 195.534 273.098 195.534H274.021L274.336 193.966C274.341 193.932 274.355 193.9 274.38 193.871C274.409 193.842 274.448 193.817 274.497 193.798C274.546 193.773 274.609 193.756 274.688 193.746C274.771 193.737 274.871 193.732 274.988 193.732C275.105 193.732 275.2 193.737 275.273 193.746C275.352 193.756 275.41 193.773 275.449 193.798C275.493 193.817 275.52 193.842 275.53 193.871C275.544 193.9 275.549 193.932 275.544 193.966L275.229 195.534H276.914C276.987 195.534 277.036 195.56 277.061 195.614C277.085 195.668 277.097 195.729 277.097 195.797Z" fill="#1E2834"/>
<path d="M1.99994 181.34L7.23994 182.12C7.45994 183.74 8.06994 184.91 9.06994 185.65C10.4099 186.65 12.2299 187.15 14.5499 187.15C17.0499 187.15 18.9699 186.65 20.3299 185.65C21.6899 184.65 22.6099 183.25 23.0899 181.46C23.3699 180.36 23.4999 178.06 23.4799 174.54C21.1199 177.32 18.1899 178.7 14.6799 178.7C10.3099 178.7 6.91994 177.12 4.52994 173.97C2.12994 170.82 0.939941 167.03 0.939941 162.62C0.939941 159.58 1.48994 156.78 2.58994 154.22C3.68994 151.65 5.27994 149.67 7.36994 148.27C9.45994 146.87 11.9099 146.17 14.7199 146.17C18.4699 146.17 21.5699 147.69 23.9999 150.72V146.89H28.9699V174.38C28.9699 179.33 28.4699 182.84 27.4599 184.91C26.4499 186.98 24.8499 188.61 22.6699 189.81C20.4799 191.01 17.7899 191.61 14.5999 191.61C10.8099 191.61 7.73994 190.76 5.40994 189.05C3.04994 187.34 1.91994 184.77 1.99994 181.34ZM6.03994 161.89C6.03994 166.27 6.90994 169.47 8.64994 171.48C10.3899 173.49 12.5699 174.5 15.1899 174.5C17.7899 174.5 19.9699 173.5 21.7299 171.5C23.4899 169.5 24.3699 166.36 24.3699 162.08C24.3699 157.99 23.4599 154.91 21.6499 152.83C19.8399 150.75 17.6499 149.72 15.0899 149.72C12.5699 149.72 10.4399 150.74 8.66994 152.79C6.91994 154.83 6.03994 157.87 6.03994 161.89Z" fill="#1E2834"/>
<path d="M74.1199 167.61L79.4799 168.27C78.6299 171.4 77.0699 173.83 74.7799 175.56C72.4899 177.29 69.5699 178.15 66.0199 178.15C61.5399 178.15 57.9999 176.77 55.3699 174.02C52.7499 171.26 51.4399 167.4 51.4399 162.42C51.4399 157.27 52.7699 153.28 55.4199 150.44C58.0699 147.6 61.5099 146.18 65.7299 146.18C69.8199 146.18 73.1599 147.57 75.7599 150.36C78.3499 153.15 79.6499 157.06 79.6499 162.11C79.6499 162.42 79.6399 162.88 79.6199 163.49H56.8099C56.8399 164.01 58.1099 169.59 59.6599 171.21C61.3699 173 63.4999 173.89 66.0599 173.89C67.9599 173.89 69.5799 173.39 70.9299 172.39C72.2699 171.39 73.3299 169.8 74.1199 167.61ZM57.0899 159.23H74.1699C73.9399 156.66 73.2899 154.73 72.2099 153.44C70.5599 151.44 68.4199 150.44 65.7899 150.44C63.4099 150.44 61.4099 151.24 59.7799 152.83C58.1699 154.42 57.2699 156.56 57.0899 159.23Z" fill="#1E2834"/>
<path d="M104.21 177.81V147.22H108.88V151.57C111.13 148.21 114.37 146.53 118.62 146.53C120.46 146.53 122.16 146.86 123.7 147.52C125.25 148.18 126.4 149.05 127.17 150.13C127.94 151.21 128.48 152.48 128.78 153.96C128.97 154.92 129.07 156.6 129.07 159V177.81H123.88V159.2C123.88 157.09 123.68 155.51 123.28 154.46C122.88 153.41 122.16 152.58 121.13 151.95C120.1 151.33 118.9 151.01 117.51 151.01C115.3 151.01 113.39 151.71 111.79 153.11C110.19 154.51 109.38 157.17 109.38 161.09V177.8H104.21V177.81Z" fill="#1E2834"/>
<path d="M177.71 167.61L183.07 168.27C182.22 171.4 180.66 173.83 178.37 175.56C176.08 177.29 173.16 178.15 169.61 178.15C165.14 178.15 161.59 176.77 158.97 174.02C156.35 171.26 155.04 167.4 155.04 162.42C155.04 157.27 156.37 153.28 159.02 150.44C161.67 147.6 165.11 146.18 169.33 146.18C173.42 146.18 176.76 147.57 179.36 150.36C181.95 153.15 183.25 157.06 183.25 162.11C183.25 162.42 183.24 162.88 183.22 163.49H160.4C160.59 166.85 161.54 169.43 163.25 171.21C164.96 173 167.09 173.89 169.65 173.89C171.55 173.89 173.17 173.39 174.52 172.39C175.85 171.39 176.92 169.8 177.71 167.61ZM160.68 159.23H177.76C177.53 156.66 176.88 154.73 175.8 153.44C174.15 151.44 172.01 150.44 169.38 150.44C167 150.44 165 151.24 163.37 152.83C161.75 154.42 160.85 156.56 160.68 159.23Z" fill="#1E2834"/>
<path d="M206.23 168.33L211.36 167.52C211.65 169.58 212.45 171.15 213.77 172.24C215.08 173.34 216.92 173.88 219.29 173.88C221.67 173.88 223.44 173.4 224.59 172.42C225.74 171.45 226.32 170.31 226.32 169.01C226.32 167.84 225.81 166.92 224.79 166.24C224.08 165.78 222.31 165.19 219.49 164.48C215.69 163.52 213.05 162.69 211.58 161.99C210.11 161.29 209 160.32 208.24 159.08C207.48 157.84 207.1 156.47 207.1 154.97C207.1 153.61 207.41 152.34 208.04 151.18C208.67 150.02 209.51 149.05 210.59 148.28C211.4 147.69 212.5 147.18 213.89 146.77C215.28 146.36 216.77 146.15 218.37 146.15C220.77 146.15 222.88 146.5 224.69 147.19C226.51 147.88 227.84 148.82 228.71 150C229.57 151.18 230.17 152.76 230.5 154.74L225.43 155.43C225.2 153.86 224.53 152.63 223.43 151.74C222.33 150.86 220.76 150.41 218.75 150.41C216.37 150.41 214.67 150.8 213.65 151.59C212.63 152.38 212.12 153.3 212.12 154.36C212.12 155.03 212.33 155.64 212.75 156.18C213.17 156.74 213.83 157.2 214.74 157.56C215.26 157.75 216.78 158.19 219.32 158.89C222.99 159.87 225.55 160.67 227 161.3C228.45 161.92 229.59 162.83 230.41 164.02C231.24 165.21 231.65 166.69 231.65 168.46C231.65 170.19 231.15 171.82 230.14 173.34C229.13 174.87 227.68 176.05 225.77 176.88C223.87 177.71 221.72 178.13 219.32 178.13C215.34 178.13 212.32 177.3 210.23 175.65C208.13 174.02 206.8 171.58 206.23 168.33Z" fill="#1E2834"/>
<path d="M287.55 168.33L292.68 167.52C292.97 169.58 293.77 171.15 295.09 172.24C296.4 173.34 298.24 173.88 300.61 173.88C302.99 173.88 304.76 173.4 305.91 172.42C307.06 171.45 307.64 170.31 307.64 169.01C307.64 167.84 307.13 166.92 306.11 166.24C305.4 165.78 303.63 165.19 300.81 164.48C297.01 163.52 294.37 162.69 292.9 161.99C291.43 161.29 290.32 160.32 289.56 159.08C288.8 157.84 288.42 156.47 288.42 154.97C288.42 153.61 288.73 152.34 289.36 151.18C289.99 150.02 290.83 149.05 291.91 148.28C292.72 147.69 293.82 147.18 295.21 146.77C296.6 146.36 298.09 146.15 299.69 146.15C302.09 146.15 304.2 146.5 306.01 147.19C307.83 147.88 309.16 148.82 310.03 150C310.89 151.18 311.49 152.76 311.82 154.74L306.75 155.43C306.52 153.86 305.85 152.63 304.75 151.74C303.65 150.86 302.08 150.41 300.07 150.41C297.69 150.41 295.99 150.8 294.97 151.59C293.95 152.38 293.44 153.3 293.44 154.36C293.44 155.03 293.65 155.64 294.07 156.18C294.49 156.74 295.15 157.2 296.06 157.56C296.58 157.75 298.1 158.19 300.64 158.89C304.31 159.87 306.87 160.67 308.32 161.3C309.77 161.92 310.91 162.83 311.73 164.02C312.56 165.21 312.97 166.69 312.97 168.46C312.97 170.19 312.47 171.82 311.46 173.34C310.45 174.87 309 176.05 307.09 176.88C305.19 177.71 303.04 178.13 300.64 178.13C296.66 178.13 293.64 177.3 291.55 175.65C289.45 174.02 288.12 171.58 287.55 168.33Z" fill="#1E2834"/>
<path d="M255.38 141.88V135.92H260.57V141.88H255.38ZM255.38 178.15V147.56H260.57V178.15H255.38Z" fill="#1E2834"/>
<path d="M155 125.89C188.529 125.89 215.71 98.7092 215.71 65.18C215.71 31.6508 188.529 4.46997 155 4.46997C121.471 4.46997 94.29 31.6508 94.29 65.18C94.29 98.7092 121.471 125.89 155 125.89Z" stroke="url(#paint0_radial_178_877)" stroke-width="8" stroke-miterlimit="10"/>
<path d="M164.19 63.68C167.81 60.07 170.04 55.08 170.04 49.58C170.04 45.38 168.74 41.48 166.51 38.27H171.19L179.79 29.67H150.12C139.12 29.67 130.21 38.58 130.21 49.58C130.21 56.86 134.11 63.22 139.93 66.7C142.88 68.46 146.32 69.48 150.01 69.5C150.01 69.5 150.01 69.5 150.02 69.5H150.12C151.73 69.5 153.29 69.31 154.78 68.95H154.79C160.5 69.5 164.97 74.32 164.97 80.18C164.97 86.42 159.91 91.47 153.68 91.47C148.14 91.47 143.54 87.49 142.58 82.23L134.19 82.89V82.93C135.26 92.92 143.72 100.7 154 100.7C165 100.7 173.92 91.79 173.92 80.79C173.92 73.51 170.02 67.15 164.19 63.68ZM150.12 60.87C143.89 60.87 138.83 55.82 138.83 49.58C138.83 43.35 143.89 38.29 150.12 38.29C156.36 38.29 161.41 43.35 161.41 49.58C161.41 55.82 156.36 60.87 150.12 60.87Z" fill="url(#paint1_radial_178_877)" stroke="url(#paint2_radial_178_877)" stroke-width="3" stroke-miterlimit="10"/>
<defs>
<radialGradient id="paint0_radial_178_877" cx="0" cy="0" r="1" gradientUnits="userSpaceOnUse" gradientTransform="translate(154.999 65.1845) scale(64.7107)">
<stop stop-color="#2970A6"/>
<stop offset="1" stop-color="#2A86BC"/>
</radialGradient>
<radialGradient id="paint1_radial_178_877" cx="0" cy="0" r="1" gradientUnits="userSpaceOnUse" gradientTransform="translate(154.999 65.1845) scale(30.6256)">
<stop stop-color="#2E6FA5"/>
<stop offset="1" stop-color="#2C86BA"/>
</radialGradient>
<radialGradient id="paint2_radial_178_877" cx="0" cy="0" r="1" gradientUnits="userSpaceOnUse" gradientTransform="translate(156.059 65.1845) scale(32.5436)">
<stop stop-color="#2970A6"/>
<stop offset="1" stop-color="#2A86BC"/>
</radialGradient>
</defs>
</svg>
