<svg xmlns="http://www.w3.org/2000/svg" width="55" height="58" fill="none" stroke="#fff" stroke-width="2" stroke-linejoin="round" xmlns:v="https://vecta.io/nano"><path d="M27.5 56.125c4.36 0 11.818-5.425 11.818-27.125S31.862 1.875 27.5 1.875 15.682 7.666 15.682 29 23.14 56.125 27.5 56.125z"/><path d="M1.913 43.208c2.18 3.632 11.027 7.002 31.497-4.364s21.858-20.42 19.677-24.052-11.371-6.811-31.497 4.365S-.266 39.576 1.914 43.208h-.001z"/><path d="M1.913 14.792c-2.18 3.632-.792 12.686 19.677 24.052s29.316 7.997 31.498 4.365.447-12.878-19.679-24.052S4.093 11.16 1.912 14.792h.001z"/></svg>