<svg xmlns="http://www.w3.org/2000/svg" width="12" height="12" fill="none" xmlns:v="https://vecta.io/nano"><path d="M12 8.984v1.806a1.2 1.2 0 0 1-.101.487c-.067.154-.166.292-.29.405s-.27.2-.429.253a1.21 1.21 0 0 1-.495.059c-1.857-.201-3.64-.835-5.207-1.849-1.458-.925-2.694-2.158-3.62-3.613A11.9 11.9 0 0 1 .005 1.313 1.2 1.2 0 0 1 .063.82C.117.662.203.516.315.392S.566.17.719.103A1.21 1.21 0 0 1 1.206 0h1.81a1.21 1.21 0 0 1 .799.291c.222.191.367.455.408.745a7.72 7.72 0 0 0 .422 1.692 1.2 1.2 0 0 1 .051.675c-.048.225-.16.432-.322.596l-.766.765c.859 1.508 2.11 2.756 3.62 3.613l.766-.765c.164-.162.371-.273.597-.321a1.21 1.21 0 0 1 .676.051 7.76 7.76 0 0 0 1.695.422 1.21 1.21 0 0 1 .752.414c.191.225.293.513.286.808z" fill="#00486f"/></svg>