<svg xmlns="http://www.w3.org/2000/svg" width="63" height="64" fill="#fff" xmlns:v="https://vecta.io/nano"><path d="M5.004 34.909H5.2c2.1 0 3.402-1.635 2.915-3.666l-.035-.206a23.55 23.55 0 0 1-.322-3.887c0-12.852 10.42-23.273 23.273-23.273s23.273 10.42 23.273 23.273c0 1.325-.11 2.622-.324 3.887l-.027.167c-.473 2.06.774 3.689 2.898 3.667 0 0 .217.008.221-.008 3.894-.413 4.99-3.708 4.99-7.713s-1.096-7.3-4.99-7.713C53.746 8.2 43.346 0 31.03 0S8.314 8.2 4.99 19.439C1.096 19.852 0 23.147 0 27.152s1.096 7.3 5.004 7.758zm44.879 9.678a3.88 3.88 0 0 0-4.631.405 21.23 21.23 0 0 1-14.222 5.432 21.23 21.23 0 0 1-14.221-5.432 3.88 3.88 0 0 0-4.631-.405C5.958 48.444 1.734 54.075.429 60.428.188 61.597.19 62.073.19 62.073.091 63.137.871 64 1.951 64a2.23 2.23 0 0 0 2.164-1.914s.008-.572.32-1.765c1.2-4.592 4.278-8.646 8.576-11.644.704-.491 1.645-.398 2.316.138 4.307 3.437 9.765 5.489 15.703 5.489a25.11 25.11 0 0 0 15.705-5.486c.671-.535 1.612-.628 2.314-.138 4.257 2.969 7.319 6.976 8.543 11.516.332 1.233.345 1.864.345 1.864.129 1.071 1.094 1.94 2.173 1.94 1.072 0 1.866-.869 1.757-1.918 0 0-.01-.621-.275-1.852-1.352-6.272-5.552-11.826-11.708-15.643zM31.03 7.758c-10.711 0-19.394 8.683-19.394 19.394s8.683 19.394 19.394 19.394 19.394-8.683 19.394-19.394S41.742 7.758 31.03 7.758zm0 34.909a15.52 15.52 0 0 1-15.515-15.515A15.52 15.52 0 0 1 31.03 11.637a15.52 15.52 0 0 1 15.515 15.515A15.52 15.52 0 0 1 31.03 42.667z"/></svg>