<svg xmlns="http://www.w3.org/2000/svg" xmlns:xlink="http://www.w3.org/1999/xlink" width="57" height="55" fill="none" xmlns:v="https://vecta.io/nano"><g fill="#fff"><path d="M25.836 50.32c-6.187 0-12.381-2.282-17.203-6.871-9.958-9.487-10.345-25.311-.857-35.269C12.371 3.353 18.572.608 25.23.446c6.658-.155 12.987 2.282 17.808 6.877 4.828 4.595 7.573 10.796 7.734 17.454s-2.282 12.987-6.877 17.808c-4.885 5.143-11.466 7.734-18.06 7.734h0zm.019-47.096l-.554.006a22 22 0 0 0-15.507 6.871c-8.43 8.843-8.089 22.9.761 31.331s22.907 8.089 31.337-.761a22.01 22.01 0 0 0 6.11-15.823A22 22 0 0 0 41.13 9.341c-4.157-3.957-9.558-6.117-15.275-6.117h0z"/><path d="M51.565 54.832c-1.141 0-2.288-.419-3.178-1.27l-9.674-9.217 1.244-.993a22.11 22.11 0 0 0 2.243-2.043c.677-.709 1.328-1.495 1.934-2.34l.935-1.295 9.674 9.217c.889.844 1.392 1.992 1.424 3.223a4.57 4.57 0 0 1-1.263 3.287 4.6 4.6 0 0 1-3.339 1.431zM42.909 44.5l7.399 7.051c.728.696 1.882.664 2.578-.064s.664-1.882-.064-2.578l-7.399-7.051-1.205 1.366L42.91 44.5zM13.325 30.565a13.55 13.55 0 0 1-1.025-4.853 13.43 13.43 0 0 1 3.738-9.674l.239-.245a13.46 13.46 0 0 1 9.249-3.957 13.43 13.43 0 0 1 5.511 1.031l2.101-2.101a16.25 16.25 0 0 0-7.677-1.716c-4.363.103-8.424 1.888-11.428 5.066-3.01 3.158-4.608 7.303-4.505 11.66a16.23 16.23 0 0 0 1.702 6.89l2.095-2.101h0zm25.021-10.422a13.36 13.36 0 0 1 1.051 4.905c.181 7.47-5.749 13.696-13.219 13.877-1.94.045-3.829-.316-5.569-1.044l-2.101 2.101c2.365 1.192 5.008 1.792 7.734 1.727 4.357-.103 8.282-1.921 11.144-4.782 3.049-3.049 4.898-7.296 4.789-11.943-.058-2.494-.683-4.84-1.734-6.935l-2.095 2.095zm-23.83 14.528l12.143-4.009.39 1.181-12.143 4.009-.39-1.181zm9.256-16.397l12.143-4.009.39 1.181-12.143 4.009-.39-1.181z"/><path d="M26.448 31.414l-1.764-12.666 1.232-.172 1.763 12.666-1.232.172z"/><use xlink:href="#B"/><path d="M36.206 18.255a3.02 3.02 0 0 1-3.016-3.016 3.02 3.02 0 0 1 3.016-3.016 3.02 3.02 0 0 1 3.016 3.016 3.02 3.02 0 0 1-3.016 3.016zm0-4.351c-.735 0-1.334.599-1.334 1.334s.599 1.334 1.334 1.334 1.334-.599 1.334-1.334-.599-1.334-1.334-1.334zm-13.4 4.55a2.18 2.18 0 0 0 2.178 2.178 2.18 2.18 0 0 0 2.178-2.178 2.18 2.18 0 0 0-2.178-2.178 2.18 2.18 0 0 0-2.178 2.178z"/><path d="M24.985 21.471a3.02 3.02 0 0 1-3.016-3.016 3.02 3.02 0 0 1 3.016-3.016 3.02 3.02 0 0 1 3.016 3.016 3.02 3.02 0 0 1-3.016 3.016zm0-4.351c-.735 0-1.334.599-1.334 1.334s.599 1.334 1.334 1.334 1.334-.599 1.334-1.334c0-.741-.599-1.334-1.334-1.334z"/><use xlink:href="#B" x="-20.715" y="20.284"/><path d="M15.491 38.538a3.02 3.02 0 0 1-3.016-3.016 3.02 3.02 0 0 1 3.016-3.016 3.02 3.02 0 0 1 3.016 3.016 3.02 3.02 0 0 1-3.016 3.016zm0-4.351c-.735 0-1.334.599-1.334 1.334a1.34 1.34 0 0 0 1.334 1.334c.735 0 1.334-.599 1.334-1.334s-.599-1.334-1.334-1.334zm8.927-3.061a2.18 2.18 0 0 0 2.178 2.178 2.18 2.18 0 0 0 2.178-2.178 2.18 2.18 0 0 0-2.178-2.179 2.18 2.18 0 0 0-2.178 2.179h0z"/><path d="M26.596 34.142a3.02 3.02 0 0 1-3.016-3.016 3.02 3.02 0 0 1 3.016-3.016 3.02 3.02 0 0 1 3.016 3.016 3.02 3.02 0 0 1-3.016 3.016zm0-4.351c-.735 0-1.334.599-1.334 1.334s.599 1.334 1.334 1.334 1.334-.6 1.334-1.334-.599-1.334-1.334-1.334z"/></g><defs ><path id="B" d="M34.027 15.238a2.18 2.18 0 0 0 2.179 2.178 2.18 2.18 0 0 0 2.178-2.178 2.18 2.18 0 0 0-2.178-2.178 2.18 2.18 0 0 0-2.179 2.178h0z"/></defs></svg>