<svg xmlns="http://www.w3.org/2000/svg" width="18" height="16" fill="none" xmlns:v="https://vecta.io/nano"><path d="M5.654 15.008c6.793 0 10.509-5.772 10.509-10.769l-.007-.487A7.63 7.63 0 0 0 18 1.788c-.676.306-1.392.507-2.125.598.772-.473 1.351-1.218 1.628-2.096a7.24 7.24 0 0 1-2.348.915A3.67 3.67 0 0 0 13.059.058c-.803-.135-1.626.005-2.343.398S9.428 1.475 9.093 2.234a3.88 3.88 0 0 0-.233 2.424c-1.468-.076-2.905-.467-4.216-1.148S2.174 1.872 1.247.702a3.88 3.88 0 0 0-.402 2.76c.213.939.766 1.76 1.547 2.296-.586-.02-1.158-.182-1.672-.471v.052c.001.874.296 1.721.836 2.397s1.29 1.141 2.125 1.316a3.52 3.52 0 0 1-.973.133c-.232.001-.463-.021-.691-.066.236.752.696 1.41 1.314 1.881s1.366.732 2.136.746C4.159 12.8 2.542 13.372.878 13.369A6.92 6.92 0 0 1 0 13.318a10.32 10.32 0 0 0 5.654 1.69z" fill="#fff"/></svg>