<svg xmlns="http://www.w3.org/2000/svg" width="46" height="46" fill="none" fill-rule="evenodd" xmlns:v="https://vecta.io/nano"><path d="M46 34.327l-.023 1.22-.242 2.971c-.165.863-.446 1.701-.833 2.49-.852 1.682-2.219 3.048-3.902 3.898-.794.388-1.636.669-2.504.834-.601.121-1.923.201-2.949.238l-1.22.023h-22.65a40.83 40.83 0 0 1-1.22-.023l-2.971-.242a9.92 9.92 0 0 1-2.49-.834 8.85 8.85 0 0 1-3.901-3.906 9.9 9.9 0 0 1-.834-2.504c-.121-.601-.201-1.925-.238-2.949L0 34.32v-22.65l.022-1.22.247-2.968c.166-.863.446-1.701.833-2.49a8.86 8.86 0 0 1 3.902-3.897A9.9 9.9 0 0 1 7.508.261C8.109.139 9.434.059 10.457.022L11.68 0h22.65l1.22.022 2.968.247c.863.166 1.701.446 2.49.833a8.86 8.86 0 0 1 3.897 3.902c.388.794.669 1.636.834 2.504.121.601.201 1.924.238 2.949l.023 1.22v22.65z" fill="#fff"/><path d="M34.101 11.83A15.49 15.49 0 0 0 23.06 7.253c-8.595 0-15.599 7-15.599 15.605-.002 2.738.716 5.428 2.084 7.8l-2.215 8.086 8.273-2.172a15.59 15.59 0 0 0 7.457 1.902h.006c8.601 0 15.605-7 15.605-15.605a15.52 15.52 0 0 0-4.574-11.037l.003-.003zM23.065 35.848c-2.324 0-4.606-.625-6.605-1.809l-.475-.283-4.909 1.284 1.311-4.786-.307-.491c-1.303-2.065-1.992-4.459-1.986-6.901 0-7.155 5.819-12.978 12.98-12.978a12.97 12.97 0 0 1 9.173 3.803c1.204 1.206 2.159 2.637 2.81 4.211a12.97 12.97 0 0 1 .983 4.966c-.006 7.158-5.825 12.979-12.974 12.979l.001.005zm7.111-9.721c-.388-.198-2.307-1.138-2.664-1.269s-.615-.197-.881.198-1.008 1.268-1.236 1.527-.455.296-.842.098-1.649-.608-3.137-1.937c-1.157-1.033-1.942-2.313-2.17-2.695s-.026-.603.172-.793c.18-.173.388-.455.585-.683s.259-.388.388-.652.067-.487-.032-.683-.88-2.116-1.198-2.898c-.313-.765-.64-.658-.88-.671s-.487-.012-.745-.012a1.44 1.44 0 0 0-1.039.486c-.359.388-1.366 1.335-1.366 3.254s1.396 3.773 1.592 4.035 2.75 4.201 6.661 5.888c.929.399 1.655.639 2.221.825a5.39 5.39 0 0 0 2.454.154c.75-.11 2.307-.942 2.633-1.853s.326-1.692.229-1.853-.351-.27-.745-.469l-.003.002z" fill="#2ebb2a"/></svg>