<svg xmlns="http://www.w3.org/2000/svg" width="57" height="58" fill="#fff" xmlns:v="https://vecta.io/nano"><path d="M36.25 37.25h20.625v4.125H36.25V37.25zm0 8.25h20.625v4.125H36.25V45.5zm0 8.25h20.625v4.125H36.25V53.75zM28 37.25A8.07 8.07 0 0 1 19.75 29 8.07 8.07 0 0 1 28 20.75 8.07 8.07 0 0 1 36.25 29h4.125a12.37 12.37 0 0 0-2.086-6.875 12.38 12.38 0 0 0-5.554-4.558c-2.261-.937-4.749-1.182-7.15-.704a12.37 12.37 0 0 0-6.336 3.387c-1.73 1.731-2.909 3.936-3.387 6.336s-.232 4.889.704 7.15 2.523 4.194 4.558 5.554 4.428 2.086 6.875 2.086V37.25zm27.442-18.472l-4.867-8.431a4.12 4.12 0 0 0-4.896-1.846l-5.02 1.699a22.73 22.73 0 0 0-2.706-1.563l-1.04-5.197c-.187-.935-.693-1.776-1.43-2.38a4.13 4.13 0 0 0-2.615-.935h-9.735c-.954 0-1.878.331-2.615.935s-1.242 1.446-1.429 2.381l-1.04 5.193a22.62 22.62 0 0 0-2.737 1.555L10.32 8.501a4.12 4.12 0 0 0-4.892 1.846L.56 18.778a4.12 4.12 0 0 0-.498 2.732 4.13 4.13 0 0 0 1.346 2.429l3.983 3.5L5.312 29l.058 1.58-3.96 3.482A4.12 4.12 0 0 0 .062 36.49c-.155.941.02 1.906.496 2.732l4.867 8.432a4.12 4.12 0 0 0 4.896 1.846l5.02-1.7a22.47 22.47 0 0 0 2.706 1.565l1.037 5.193c.187.935.692 1.777 1.43 2.382s1.662.935 2.616.935H28V53.75h-4.867l-1.464-7.322a18.76 18.76 0 0 1-5.558-3.242L9 45.591l-4.868-8.432 5.62-4.94a18.41 18.41 0 0 1-.014-6.451l-5.606-4.929L9 12.409l7.068 2.393a18.62 18.62 0 0 1 5.6-3.23l1.464-7.322h9.735l1.464 7.322c2.026.753 3.906 1.85 5.559 3.242L47 12.409l4.868 8.431-5.771 5.057L48.815 29l5.775-5.061a4.12 4.12 0 0 0 1.348-2.428c.155-.941-.02-1.906-.497-2.733h0z"/></svg>