<svg width="41" height="60" viewBox="0 0 41 60" fill="none" xmlns="http://www.w3.org/2000/svg">
<path d="M26.4017 38.7856C25.7509 38.7856 25.1466 38.3739 24.9208 37.7298C24.6419 36.913 25.0802 36.0231 25.897 35.7509C32.6372 33.4599 37.1595 27.1313 37.1595 20.0126C37.1595 10.8485 29.7021 3.39111 20.538 3.39111C11.3739 3.39111 3.92315 10.8419 3.92315 20.006C3.92315 27.1048 8.42549 33.42 15.1325 35.731C15.9493 36.0099 16.381 36.8997 16.1021 37.7165C15.8232 38.5333 14.9333 38.9649 14.1165 38.686C6.14776 35.9435 0.79541 28.4396 0.79541 20.0126C0.79541 9.12861 9.65401 0.27002 20.538 0.27002C31.422 0.27002 40.2806 9.12861 40.2806 20.0126C40.2806 28.4728 34.9017 35.9833 26.8997 38.706C26.7403 38.7591 26.5743 38.7856 26.4017 38.7856V38.7856ZM32.5775 45.0278C32.5775 44.3106 31.9997 43.7329 31.2825 43.7329H11.3872C10.67 43.7329 10.0923 44.3106 10.0923 45.0278C10.0923 45.745 10.67 46.3228 11.3872 46.3228H31.2825C31.9997 46.3228 32.5775 45.745 32.5775 45.0278V45.0278ZM26.4614 51.5356C26.4614 50.8185 25.8837 50.2407 25.1665 50.2407H11.3872C10.67 50.2407 10.0923 50.8185 10.0923 51.5356C10.0923 52.2528 10.67 52.8306 11.3872 52.8306H25.1665C25.8837 52.8239 26.4614 52.2462 26.4614 51.5356ZM21.6337 58.0368C21.6337 57.3196 21.056 56.7419 20.3388 56.7419H11.3872C10.67 56.7419 10.0923 57.3196 10.0923 58.0368C10.0923 58.754 10.67 59.3317 11.3872 59.3317H20.3388C21.056 59.3251 21.6337 58.7474 21.6337 58.0368V58.0368ZM6.46651 43.5735C5.66299 43.5735 5.01221 44.2243 5.01221 45.0278C5.01221 45.8313 5.66299 46.4821 6.46651 46.4821C7.27002 46.4821 7.9208 45.8313 7.9208 45.0278C7.9208 44.2243 7.27002 43.5735 6.46651 43.5735ZM6.46651 52.9899C7.27002 52.9899 7.9208 52.3392 7.9208 51.5356C7.9208 50.7321 7.27002 50.0814 6.46651 50.0814C5.66299 50.0814 5.01221 50.7321 5.01221 51.5356C5.01221 52.3392 5.66299 52.9899 6.46651 52.9899ZM6.46651 59.4911C7.27002 59.4911 7.9208 58.8403 7.9208 58.0368C7.9208 57.2333 7.27002 56.5825 6.46651 56.5825C5.66299 56.5825 5.01221 57.2333 5.01221 58.0368C5.01221 58.8403 5.66299 59.4911 6.46651 59.4911ZM19.3228 31.9856L26.8798 20.7231C27.1454 20.3247 27.172 19.8134 26.9462 19.395C26.7204 18.9767 26.2821 18.711 25.804 18.711H17.3771L23.2939 10.3771C23.7056 9.79268 23.5728 8.98916 22.9884 8.57744C22.404 8.15908 21.6005 8.29853 21.1888 8.88291L13.8243 19.2556C13.5454 19.6474 13.5056 20.1653 13.7314 20.597C13.9571 21.0286 14.3954 21.2942 14.8802 21.2942H23.3868L17.1778 30.5446C16.7794 31.1356 16.9388 31.9392 17.5298 32.3376C17.7489 32.4837 18.0013 32.5567 18.247 32.5567C18.6653 32.5567 19.0704 32.3575 19.3228 31.9856V31.9856Z" fill="white"/>
</svg>
