<svg xmlns="http://www.w3.org/2000/svg" width="60" height="60" fill="#fff" xmlns:v="https://vecta.io/nano"><path d="M6.75 40.5A6.76 6.76 0 0 1 0 33.75 6.76 6.76 0 0 1 6.75 27a6.76 6.76 0 0 1 6.75 6.75 6.76 6.76 0 0 1-6.75 6.75zm0-10.5C4.682 30 3 31.682 3 33.75s1.682 3.75 3.75 3.75 3.75-1.682 3.75-3.75S8.818 30 6.75 30h0zm15.75-5.25a6.01 6.01 0 0 1-6-6 6.01 6.01 0 0 1 6-6 6.01 6.01 0 0 1 6 6 6.01 6.01 0 0 1-6 6zm0-9c-1.654 0-3 1.346-3 3s1.346 3 3 3 3-1.346 3-3-1.346-3-3-3zM37.5 60a6.01 6.01 0 0 1-6-6 6.01 6.01 0 0 1 6-6 6.01 6.01 0 0 1 6 6 6.01 6.01 0 0 1-6 6zm0-9c-1.654 0-3 1.346-3 3s1.346 3 3 3 3-1.346 3-3-1.346-3-3-3zm15.75-10.5a6.76 6.76 0 0 1-6.75-6.75A6.76 6.76 0 0 1 53.25 27 6.76 6.76 0 0 1 60 33.75a6.76 6.76 0 0 1-6.75 6.75zm0-10.5c-2.068 0-3.75 1.682-3.75 3.75s1.682 3.75 3.75 3.75S57 35.818 57 33.75 55.318 30 53.25 30z"/><path d="M10.546 31.636a1.5 1.5 0 0 1-1.035-2.587l8.7-8.288a1.5 1.5 0 0 1 2.093.079 1.5 1.5 0 0 1-.023 2.094l-8.7 8.287a1.5 1.5 0 0 1-1.034.414h0zM40.26 51.953a1.5 1.5 0 0 1-1.184-2.421l9.773-12.562a1.5 1.5 0 1 1 2.368 1.842l-9.772 12.563a1.5 1.5 0 0 1-1.184.579h0zm-4.521-.592a1.5 1.5 0 0 1-1.382-.913l-11.475-26.97a1.5 1.5 0 1 1 2.761-1.175l11.476 26.97a1.5 1.5 0 0 1-1.38 2.089h0zM53.25 30a1.5 1.5 0 0 1-1.5-1.5v-3.75a21.61 21.61 0 0 0-6.37-15.379C41.272 5.263 35.81 3 30 3 18.007 3 8.25 12.757 8.25 24.75v3.75a1.5 1.5 0 1 1-3 0v-3.75C5.25 11.103 16.353 0 30 0a24.58 24.58 0 0 1 17.501 7.25c4.675 4.675 7.249 10.891 7.249 17.501v3.75a1.5 1.5 0 0 1-1.5 1.5h0z"/></svg>