<svg xmlns="http://www.w3.org/2000/svg" width="49" height="57" fill="none" xmlns:v="https://vecta.io/nano"><path d="M39 37c-1.334-.002-2.655.265-3.883.784s-2.34 1.282-3.267 2.241l-11.525-7.4c.9-2.333.9-4.917 0-7.25l11.525-7.4a10 10 0 0 0 12.639 1.368 10 10 0 0 0 3.768-12.141 10 10 0 0 0-11.192-6.028A10 10 0 0 0 29 11a10.25 10.25 0 0 0 .675 3.625l-11.525 7.4a10 10 0 0 0-10.93-2.289A10 10 0 0 0 .984 29a10 10 0 0 0 6.236 9.264 10 10 0 0 0 10.93-2.289l11.525 7.4A10.25 10.25 0 0 0 29 47a10 10 0 0 0 6.173 9.239 10 10 0 0 0 10.898-2.168 10 10 0 0 0 2.168-10.898A10 10 0 0 0 39 37zm0-32a6 6 0 0 1 5.543 3.704 6 6 0 0 1-1.301 6.539 6 6 0 0 1-6.539 1.301A6 6 0 0 1 33 11c.007-1.589.641-3.112 1.765-4.235S37.411 5.007 39 5zM11 35a6 6 0 0 1-5.543-3.704 6 6 0 0 1 1.301-6.539 6 6 0 0 1 6.539-1.301A6 6 0 0 1 17 29c-.007 1.589-.641 3.112-1.765 4.235S12.589 34.993 11 35zm28 18a6 6 0 0 1-5.543-3.704 6 6 0 0 1 1.301-6.539 6 6 0 0 1 6.539-1.301A6 6 0 0 1 45 47c-.007 1.589-.641 3.112-1.765 4.235S40.589 52.993 39 53z" fill="#fff"/></svg>